<ttFont>
    <TTGlyph name=".ttfautohint" xMin="0" yMin="0" xMax="0" yMax="0">
      <contour>
        <pt x="0" y="0" on="1"/>
      </contour>
    </TTGlyph>
    <TTGlyph name="A" xMin="84" yMin="0" xMax="1416" yMax="1579">
      <contour>
        <pt x="1067" y="485" on="1"/>
        <pt x="750" y="1460" on="1"/>
        <pt x="433" y="485" on="1"/>
      </contour>
      <contour>
        <pt x="1100" y="383" on="1"/>
        <pt x="400" y="383" on="1"/>
        <pt x="277" y="0" on="1"/>
        <pt x="84" y="0" on="1"/>
        <pt x="600" y="1579" on="1"/>
        <pt x="900" y="1579" on="1"/>
        <pt x="1416" y="0" on="1"/>
        <pt x="1223" y="0" on="1"/>
      </contour>
    </TTGlyph>
    <TTGlyph name="AE" xMin="-23" yMin="0" xMax="1769" yMax="1579">
      <contour>
        <pt x="1769" y="0" on="1"/>
        <pt x="930" y="0" on="1"/>
        <pt x="930" y="371" on="1"/>
        <pt x="378" y="371" on="1"/>
        <pt x="186" y="0" on="1"/>
        <pt x="-23" y="0" on="1"/>
        <pt x="803" y="1579" on="1"/>
        <pt x="1741" y="1579" on="1"/>
        <pt x="1741" y="1436" on="1"/>
        <pt x="1093" y="1436" on="1"/>
        <pt x="1093" y="891" on="1"/>
        <pt x="1698" y="891" on="1"/>
        <pt x="1698" y="764" on="1"/>
        <pt x="1095" y="764" on="1"/>
        <pt x="1095" y="143" on="1"/>
        <pt x="1769" y="143" on="1"/>
      </contour>
      <contour>
        <pt x="928" y="1459" on="1"/>
        <pt x="438" y="493" on="1"/>
        <pt x="928" y="493" on="1"/>
      </contour>
    </TTGlyph>
    <TTGlyph name="Aacute" xMin="84" yMin="0" xMax="1416" yMax="2349">
      <component glyphName=".ttfautohint" x="84" y="0" flags="0x0"/>
      <component glyphName="acutecomb" x="232" y="73" flags="0x1004"/>
      <component glyphName="A" x="0" y="0" flags="0x1204"/>
    </TTGlyph>
    <TTGlyph name="Abreve" xMin="84" yMin="0" xMax="1416" yMax="1951">
      <component glyphName=".ttfautohint" x="84" y="0" flags="0x0"/>
      <component glyphName="uni0306" x="367" y="313" flags="0x1004"/>
      <component glyphName="A" x="0" y="0" flags="0x1204"/>
    </TTGlyph>
    <TTGlyph name="Acircumflex" xMin="84" yMin="0" xMax="1416" yMax="2291">
      <component glyphName=".ttfautohint" x="84" y="0" flags="0x0"/>
      <component glyphName="circumflex" x="36" y="1280" flags="0x1004"/>
      <component glyphName="A" x="0" y="0" flags="0x1204"/>
    </TTGlyph>
    <TTGlyph name="Adieresis" xMin="84" yMin="0" xMax="1416" yMax="1942">
      <component glyphName=".ttfautohint" x="84" y="0" flags="0x0"/>
      <component glyphName="dieresis" x="334" y="1331" flags="0x1004"/>
      <component glyphName="A" x="0" y="0" flags="0x1204"/>
    </TTGlyph>
    <TTGlyph name="Agrave" xMin="84" yMin="0" xMax="1416" yMax="2356">
      <component glyphName=".ttfautohint" x="84" y="0" flags="0x0"/>
      <component glyphName="grave" x="360" y="1382" flags="0x1004"/>
      <component glyphName="A" x="0" y="0" flags="0x1204"/>
    </TTGlyph>
    <TTGlyph name="Amacron" xMin="84" yMin="0" xMax="1416" yMax="1829">
      <component glyphName=".ttfautohint" x="84" y="0" flags="0x0"/>
      <component glyphName="glyph113" x="321" y="1614" flags="0x1004"/>
      <component glyphName="A" x="0" y="0" flags="0x1204"/>
    </TTGlyph>
    <TTGlyph name="Aring" xMin="84" yMin="0" xMax="1416" yMax="2074">
      <component glyphName=".ttfautohint" x="84" y="0" flags="0x0"/>
      <component glyphName="ring" x="-104" y="559" flags="0x1004"/>
      <component glyphName="A" x="0" y="0" flags="0x1204"/>
    </TTGlyph>
    <TTGlyph name="Atilde" xMin="84" yMin="0" xMax="1416" yMax="1976">
      <component glyphName=".ttfautohint" x="84" y="0" flags="0x0"/>
      <component glyphName="tilde" x="-101" y="677" flags="0x1004"/>
      <component glyphName="A" x="0" y="0" flags="0x1204"/>
    </TTGlyph>
    <TTGlyph name="B" xMin="123" yMin="0" xMax="1243" yMax="1579">
      <contour>
        <pt x="996" y="1186" on="1"/>
        <pt x="996" y="1237" on="0"/>
        <pt x="965" y="1315" on="0"/>
        <pt x="917" y="1367" on="0"/>
        <pt x="839" y="1403" on="0"/>
        <pt x="804" y="1413" on="1"/>
        <pt x="768" y="1422" on="0"/>
        <pt x="718" y="1428" on="1"/>
        <pt x="649" y="1436" on="0"/>
        <pt x="546" y="1436" on="1"/>
        <pt x="317" y="1436" on="1"/>
        <pt x="317" y="915" on="1"/>
        <pt x="576" y="915" on="1"/>
        <pt x="750" y="914" on="0"/>
        <pt x="829" y="942" on="1"/>
        <pt x="912" y="971" on="0"/>
        <pt x="950" y="1023" on="1"/>
        <pt x="996" y="1087" on="0"/>
      </contour>
      <contour>
        <pt x="543" y="143" on="1"/>
        <pt x="713" y="143" on="0"/>
        <pt x="821" y="163" on="0"/>
        <pt x="901" y="186" on="0"/>
        <pt x="954" y="218" on="0"/>
        <pt x="982" y="242" on="1"/>
        <pt x="1009" y="266" on="0"/>
        <pt x="1025" y="298" on="1"/>
        <pt x="1061" y="369" on="0"/>
        <pt x="1061" y="527" on="0"/>
        <pt x="1032" y="625" on="0"/>
        <pt x="984" y="691" on="0"/>
        <pt x="908" y="739" on="0"/>
        <pt x="870" y="752" on="1"/>
        <pt x="830" y="766" on="0"/>
        <pt x="778" y="774" on="1"/>
        <pt x="699" y="786" on="0"/>
        <pt x="580" y="786" on="1"/>
        <pt x="317" y="786" on="1"/>
        <pt x="317" y="143" on="1"/>
      </contour>
      <contour>
        <pt x="836" y="862" on="1"/>
        <pt x="1033" y="840" on="0"/>
        <pt x="1243" y="628" on="0"/>
        <pt x="1243" y="434" on="1"/>
        <pt x="1244" y="206" on="0"/>
        <pt x="1062" y="100" on="1"/>
        <pt x="890" y="0" on="0"/>
        <pt x="543" y="0" on="1"/>
        <pt x="123" y="0" on="1"/>
        <pt x="123" y="1579" on="1"/>
        <pt x="484" y="1579" on="1"/>
        <pt x="701" y="1579" on="0"/>
        <pt x="835" y="1555" on="0"/>
        <pt x="942" y="1528" on="0"/>
        <pt x="1014" y="1489" on="0"/>
        <pt x="1052" y="1459" on="1"/>
        <pt x="1089" y="1430" on="0"/>
        <pt x="1111" y="1392" on="1"/>
        <pt x="1161" y="1307" on="0"/>
        <pt x="1161" y="1036" on="0"/>
        <pt x="997" y="886" on="0"/>
      </contour>
    </TTGlyph>
    <TTGlyph name="C" xMin="114" yMin="-41" xMax="1224" yMax="1610">
      <contour>
        <pt x="1151" y="1385" on="1"/>
        <pt x="956" y="1458" on="0"/>
        <pt x="677" y="1458" on="0"/>
        <pt x="502" y="1380" on="0"/>
        <pt x="399" y="1256" on="0"/>
        <pt x="336" y="1073" on="0"/>
        <pt x="315" y="894" on="0"/>
        <pt x="315" y="674" on="0"/>
        <pt x="337" y="493" on="0"/>
        <pt x="401" y="311" on="0"/>
        <pt x="504" y="188" on="0"/>
        <pt x="678" y="111" on="0"/>
        <pt x="794" y="111" on="1"/>
        <pt x="906" y="110" on="0"/>
        <pt x="1100" y="190" on="1"/>
        <pt x="1158" y="214" on="0"/>
        <pt x="1168" y="218" on="1"/>
        <pt x="1224" y="79" on="1"/>
        <pt x="1047" y="7" on="0"/>
        <pt x="873" y="-41" on="0"/>
        <pt x="627" y="-41" on="0"/>
        <pt x="397" y="48" on="0"/>
        <pt x="324" y="124" on="1"/>
        <pt x="250" y="198" on="0"/>
        <pt x="202" y="306" on="1"/>
        <pt x="114" y="503" on="0"/>
        <pt x="114" y="788" on="1"/>
        <pt x="114" y="1420" on="0"/>
        <pt x="530" y="1568" on="1"/>
        <pt x="646" y="1610" on="0"/>
        <pt x="794" y="1610" on="1"/>
        <pt x="906" y="1610" on="0"/>
        <pt x="1040" y="1576" on="0"/>
        <pt x="1079" y="1565" on="0"/>
        <pt x="1175" y="1536" on="0"/>
        <pt x="1196" y="1530" on="1"/>
      </contour>
    </TTGlyph>
    <TTGlyph name="Cacute" xMin="114" yMin="-41" xMax="1224" yMax="2349">
      <component glyphName=".ttfautohint" x="114" y="0" flags="0x0"/>
      <component glyphName="acutecomb" x="152" y="73" flags="0x1004"/>
      <component glyphName="C" x="0" y="0" flags="0x1204"/>
    </TTGlyph>
    <TTGlyph name="Ccaron" xMin="114" yMin="-41" xMax="1224" yMax="2291">
      <component glyphName=".ttfautohint" x="114" y="0" flags="0x0"/>
      <component glyphName="caron" x="-45" y="1281" flags="0x1004"/>
      <component glyphName="C" x="0" y="0" flags="0x1204"/>
    </TTGlyph>
    <TTGlyph name="Ccedilla" xMin="114" yMin="-673" xMax="1224" yMax="1610">
      <component glyphName=".ttfautohint" x="114" y="0" flags="0x0"/>
      <component glyphName="cedilla" x="492" y="-95" flags="0x1004"/>
      <component glyphName="C" x="0" y="0" flags="0x1204"/>
    </TTGlyph>
    <TTGlyph name="Ccircumflex" xMin="114" yMin="-41" xMax="1224" yMax="2291">
      <component glyphName=".ttfautohint" x="114" y="0" flags="0x0"/>
      <component glyphName="circumflex" x="-45" y="1280" flags="0x1004"/>
      <component glyphName="C" x="0" y="0" flags="0x1204"/>
    </TTGlyph>
    <TTGlyph name="D" xMin="123" yMin="0" xMax="1357" yMax="1579">
      <contour>
        <pt x="698" y="1436" on="1"/>
        <pt x="317" y="1436" on="1"/>
        <pt x="317" y="143" on="1"/>
        <pt x="698" y="143" on="1"/>
        <pt x="812" y="143" on="0"/>
        <pt x="980" y="217" on="0"/>
        <pt x="1078" y="335" on="0"/>
        <pt x="1108" y="423" on="1"/>
        <pt x="1156" y="568" on="0"/>
        <pt x="1156" y="789" on="1"/>
        <pt x="1156" y="1228" on="0"/>
        <pt x="959" y="1364" on="1"/>
        <pt x="856" y="1436" on="0"/>
      </contour>
      <contour>
        <pt x="698" y="1579" on="1"/>
        <pt x="1357" y="1579" on="0"/>
        <pt x="1357" y="0" on="0"/>
        <pt x="698" y="0" on="1"/>
        <pt x="123" y="0" on="1"/>
        <pt x="123" y="1579" on="1"/>
      </contour>
    </TTGlyph>
    <TTGlyph name="E" xMin="123" yMin="0" xMax="1106" yMax="1579">
      <contour>
        <pt x="1106" y="0" on="1"/>
        <pt x="123" y="0" on="1"/>
        <pt x="123" y="1579" on="1"/>
        <pt x="1093" y="1579" on="1"/>
        <pt x="1093" y="1436" on="1"/>
        <pt x="317" y="1436" on="1"/>
        <pt x="317" y="891" on="1"/>
        <pt x="995" y="891" on="1"/>
        <pt x="995" y="776" on="1"/>
        <pt x="317" y="776" on="1"/>
        <pt x="317" y="143" on="1"/>
        <pt x="1106" y="143" on="1"/>
      </contour>
    </TTGlyph>
    <TTGlyph name="Eacute" xMin="123" yMin="0" xMax="1106" yMax="2349">
      <component glyphName=".ttfautohint" x="123" y="0" flags="0x0"/>
      <component glyphName="acutecomb" x="97" y="73" flags="0x1004"/>
      <component glyphName="E" x="0" y="0" flags="0x1204"/>
    </TTGlyph>
    <TTGlyph name="Ecircumflex" xMin="123" yMin="0" xMax="1106" yMax="2291">
      <component glyphName=".ttfautohint" x="123" y="0" flags="0x0"/>
      <component glyphName="circumflex" x="-100" y="1280" flags="0x1004"/>
      <component glyphName="E" x="0" y="0" flags="0x1204"/>
    </TTGlyph>
    <TTGlyph name="Edieresis" xMin="123" yMin="0" xMax="1106" yMax="1942">
      <component glyphName=".ttfautohint" x="123" y="0" flags="0x0"/>
      <component glyphName="dieresis" x="198" y="1331" flags="0x1004"/>
      <component glyphName="E" x="0" y="0" flags="0x1204"/>
    </TTGlyph>
    <TTGlyph name="Egrave" xMin="123" yMin="0" xMax="1106" yMax="2356">
      <component glyphName=".ttfautohint" x="123" y="0" flags="0x0"/>
      <component glyphName="grave" x="224" y="1382" flags="0x1004"/>
      <component glyphName="E" x="0" y="0" flags="0x1204"/>
    </TTGlyph>
    <TTGlyph name="Emacron" xMin="123" yMin="0" xMax="1106" yMax="1829">
      <component glyphName=".ttfautohint" x="123" y="0" flags="0x0"/>
      <component glyphName="glyph113" x="186" y="1614" flags="0x1004"/>
      <component glyphName="E" x="0" y="0" flags="0x1204"/>
    </TTGlyph>
    <TTGlyph name="Eth" xMin="10" yMin="0" xMax="1384" yMax="1579">
      <contour>
        <pt x="725" y="1579" on="1"/>
        <pt x="1140" y="1580" on="0"/>
        <pt x="1294" y="1258" on="1"/>
        <pt x="1384" y="1069" on="0"/>
        <pt x="1384" y="788" on="1"/>
        <pt x="1384" y="0" on="0"/>
        <pt x="725" y="0" on="1"/>
        <pt x="172" y="0" on="1"/>
        <pt x="172" y="764" on="1"/>
        <pt x="10" y="764" on="1"/>
        <pt x="10" y="895" on="1"/>
        <pt x="172" y="895" on="1"/>
        <pt x="172" y="1579" on="1"/>
      </contour>
      <contour>
        <pt x="600" y="764" on="1"/>
        <pt x="366" y="764" on="1"/>
        <pt x="366" y="143" on="1"/>
        <pt x="725" y="143" on="1"/>
        <pt x="839" y="143" on="0"/>
        <pt x="1007" y="217" on="0"/>
        <pt x="1056" y="276" on="1"/>
        <pt x="1104" y="335" on="0"/>
        <pt x="1134" y="423" on="1"/>
        <pt x="1182" y="568" on="0"/>
        <pt x="1183" y="789" on="1"/>
        <pt x="1183" y="1228" on="0"/>
        <pt x="986" y="1364" on="1"/>
        <pt x="883" y="1436" on="0"/>
        <pt x="725" y="1436" on="1"/>
        <pt x="366" y="1436" on="1"/>
        <pt x="366" y="895" on="1"/>
        <pt x="600" y="895" on="1"/>
      </contour>
    </TTGlyph>
    <TTGlyph name="Euro" xMin="53" yMin="-41" xMax="1144" yMax="1554">
      <contour>
        <pt x="273" y="1005" on="1"/>
        <pt x="289" y="1264" on="0"/>
        <pt x="558" y="1554" on="0"/>
        <pt x="814" y="1554" on="1"/>
        <pt x="1010" y="1554" on="0"/>
        <pt x="1144" y="1486" on="1"/>
        <pt x="1097" y="1354" on="1"/>
        <pt x="1063" y="1354" on="0"/>
        <pt x="870" y="1413" on="0"/>
        <pt x="811" y="1413" on="1"/>
        <pt x="628" y="1413" on="0"/>
        <pt x="448" y="1202" on="0"/>
        <pt x="448" y="1005" on="1"/>
        <pt x="874" y="1005" on="1"/>
        <pt x="874" y="874" on="1"/>
        <pt x="436" y="874" on="1"/>
        <pt x="433" y="853" on="0"/>
        <pt x="431" y="752" on="1"/>
        <pt x="812" y="752" on="1"/>
        <pt x="812" y="620" on="1"/>
        <pt x="430" y="620" on="1"/>
        <pt x="430" y="236" on="0"/>
        <pt x="640" y="138" on="1"/>
        <pt x="699" y="110" on="0"/>
        <pt x="774" y="110" on="1"/>
        <pt x="934" y="110" on="0"/>
        <pt x="1082" y="192" on="1"/>
        <pt x="1138" y="59" on="1"/>
        <pt x="1088" y="9" on="0"/>
        <pt x="864" y="-41" on="0"/>
        <pt x="643" y="-41" on="0"/>
        <pt x="483" y="33" on="0"/>
        <pt x="371" y="158" on="0"/>
        <pt x="331" y="244" on="1"/>
        <pt x="255" y="406" on="0"/>
        <pt x="247" y="620" on="1"/>
        <pt x="70" y="620" on="1"/>
        <pt x="70" y="752" on="1"/>
        <pt x="243" y="752" on="1"/>
        <pt x="245" y="830" on="0"/>
        <pt x="247" y="874" on="1"/>
        <pt x="53" y="874" on="1"/>
        <pt x="53" y="1005" on="1"/>
      </contour>
    </TTGlyph>
    <TTGlyph name="F" xMin="123" yMin="0" xMax="1044" yMax="1579">
      <contour>
        <pt x="319" y="762" on="1"/>
        <pt x="319" y="0" on="1"/>
        <pt x="123" y="0" on="1"/>
        <pt x="123" y="1579" on="1"/>
        <pt x="1044" y="1579" on="1"/>
        <pt x="1044" y="1436" on="1"/>
        <pt x="319" y="1436" on="1"/>
        <pt x="319" y="879" on="1"/>
        <pt x="983" y="879" on="1"/>
        <pt x="983" y="762" on="1"/>
      </contour>
    </TTGlyph>
    <TTGlyph name="G" xMin="114" yMin="-41" xMax="1353" yMax="1610">
      <contour>
        <pt x="957" y="-17" on="0"/>
        <pt x="819" y="-41" on="0"/>
        <pt x="633" y="-41" on="0"/>
        <pt x="444" y="26" on="0"/>
        <pt x="308" y="145" on="0"/>
        <pt x="206" y="301" on="0"/>
        <pt x="175" y="395" on="1"/>
        <pt x="114" y="580" on="0"/>
        <pt x="114" y="927" on="0"/>
        <pt x="158" y="1168" on="0"/>
        <pt x="258" y="1378" on="0"/>
        <pt x="334" y="1452" on="1"/>
        <pt x="497" y="1610" on="0"/>
        <pt x="788" y="1610" on="1"/>
        <pt x="1018" y="1610" on="0"/>
        <pt x="1230" y="1476" on="1"/>
        <pt x="1164" y="1341" on="1"/>
        <pt x="1098" y="1397" on="0"/>
        <pt x="883" y="1458" on="0"/>
        <pt x="702" y="1458" on="0"/>
        <pt x="564" y="1417" on="0"/>
        <pt x="468" y="1347" on="0"/>
        <pt x="395" y="1243" on="0"/>
        <pt x="351" y="1131" on="0"/>
        <pt x="338" y="1060" on="1"/>
        <pt x="315" y="934" on="0"/>
        <pt x="315" y="705" on="0"/>
        <pt x="325" y="574" on="0"/>
        <pt x="353" y="434" on="0"/>
        <pt x="397" y="322" on="0"/>
        <pt x="471" y="220" on="0"/>
        <pt x="520" y="186" on="1"/>
        <pt x="626" y="112" on="0"/>
        <pt x="792" y="111" on="1"/>
        <pt x="943" y="112" on="0"/>
        <pt x="1049" y="174" on="1"/>
        <pt x="1168" y="244" on="0"/>
        <pt x="1168" y="399" on="1"/>
        <pt x="1168" y="684" on="1"/>
        <pt x="766" y="684" on="1"/>
        <pt x="766" y="811" on="1"/>
        <pt x="1353" y="811" on="1"/>
        <pt x="1353" y="0" on="1"/>
        <pt x="1265" y="0" on="1"/>
        <pt x="1212" y="213" on="1"/>
        <pt x="1194" y="141" on="0"/>
        <pt x="1095" y="36" on="0"/>
      </contour>
    </TTGlyph>
    <TTGlyph name="Gcedilla" xMin="114" yMin="-689" xMax="1353" yMax="1610">
      <component glyphName=".ttfautohint" x="114" y="0" flags="0x0"/>
      <component glyphName="comma" x="472" y="-436" flags="0x1004"/>
      <component glyphName="G" x="0" y="0" flags="0x1204"/>
    </TTGlyph>
    <TTGlyph name="H" xMin="123" yMin="0" xMax="1343" yMax="1579">
      <contour>
        <pt x="1149" y="0" on="1"/>
        <pt x="1149" y="764" on="1"/>
        <pt x="317" y="764" on="1"/>
        <pt x="317" y="0" on="1"/>
        <pt x="123" y="0" on="1"/>
        <pt x="123" y="1579" on="1"/>
        <pt x="317" y="1579" on="1"/>
        <pt x="317" y="879" on="1"/>
        <pt x="1149" y="879" on="1"/>
        <pt x="1149" y="1579" on="1"/>
        <pt x="1343" y="1579" on="1"/>
        <pt x="1343" y="0" on="1"/>
      </contour>
    </TTGlyph>
    <TTGlyph name="I" xMin="114" yMin="0" xMax="707" yMax="1579">
      <contour>
        <pt x="114" y="112" on="1"/>
        <pt x="318" y="112" on="1"/>
        <pt x="318" y="1461" on="1"/>
        <pt x="114" y="1461" on="1"/>
        <pt x="114" y="1579" on="1"/>
        <pt x="707" y="1579" on="1"/>
        <pt x="707" y="1461" on="1"/>
        <pt x="501" y="1461" on="1"/>
        <pt x="501" y="112" on="1"/>
        <pt x="707" y="112" on="1"/>
        <pt x="707" y="0" on="1"/>
        <pt x="114" y="0" on="1"/>
      </contour>
    </TTGlyph>
    <TTGlyph name="Iacute" xMin="114" yMin="0" xMax="773" yMax="2349">
      <component glyphName=".ttfautohint" x="114" y="0" flags="0x0"/>
      <component glyphName="acutecomb" x="-107" y="73" flags="0x1004"/>
      <component glyphName="I" x="0" y="0" flags="0x1204"/>
    </TTGlyph>
    <TTGlyph name="Icircumflex" xMin="70" yMin="0" xMax="750" yMax="2291">
      <component glyphName=".ttfautohint" x="70" y="0" flags="0x0"/>
      <component glyphName="circumflex" x="-304" y="1280" flags="0x1004"/>
      <component glyphName="I" x="0" y="0" flags="0x1204"/>
    </TTGlyph>
    <TTGlyph name="Idieresis" xMin="55" yMin="0" xMax="765" yMax="1942">
      <component glyphName=".ttfautohint" x="55" y="0" flags="0x0"/>
      <component glyphName="dieresis" x="-6" y="1331" flags="0x1004"/>
      <component glyphName="I" x="0" y="0" flags="0x1204"/>
    </TTGlyph>
    <TTGlyph name="Igrave" xMin="49" yMin="0" xMax="707" yMax="2356">
      <component glyphName=".ttfautohint" x="49" y="0" flags="0x0"/>
      <component glyphName="grave" x="20" y="1382" flags="0x1004"/>
      <component glyphName="I" x="0" y="0" flags="0x1204"/>
    </TTGlyph>
    <TTGlyph name="Imacron" xMin="70" yMin="0" xMax="752" yMax="1829">
      <component glyphName=".ttfautohint" x="70" y="0" flags="0x0"/>
      <component glyphName="glyph113" x="-18" y="1614" flags="0x1004"/>
      <component glyphName="I" x="0" y="0" flags="0x1204"/>
    </TTGlyph>
    <TTGlyph name="Itilde" xMin="31" yMin="0" xMax="791" yMax="1976">
      <component glyphName=".ttfautohint" x="31" y="0" flags="0x0"/>
      <component glyphName="tilde" x="-440" y="677" flags="0x1004"/>
      <component glyphName="I" x="0" y="0" flags="0x1204"/>
    </TTGlyph>
    <TTGlyph name="J" xMin="89" yMin="-90" xMax="603" yMax="1579">
      <contour>
        <pt x="136" y="-90" on="1"/>
        <pt x="89" y="37" on="1"/>
        <pt x="276" y="66" on="0"/>
        <pt x="336" y="133" on="1"/>
        <pt x="375" y="178" on="0"/>
        <pt x="395" y="246" on="0"/>
        <pt x="400" y="270" on="1"/>
        <pt x="406" y="294" on="0"/>
        <pt x="408" y="332" on="1"/>
        <pt x="412" y="384" on="0"/>
        <pt x="411" y="479" on="1"/>
        <pt x="411" y="1579" on="1"/>
        <pt x="603" y="1579" on="1"/>
        <pt x="603" y="514" on="1"/>
        <pt x="604" y="252" on="0"/>
        <pt x="548" y="130" on="1"/>
        <pt x="498" y="18" on="0"/>
        <pt x="408" y="-31" on="1"/>
        <pt x="302" y="-90" on="0"/>
      </contour>
    </TTGlyph>
    <TTGlyph name="Jcircumflex" xMin="89" yMin="-90" xMax="845" yMax="2291">
      <component glyphName=".ttfautohint" x="89" y="0" flags="0x0"/>
      <component glyphName="circumflex" x="-209" y="1280" flags="0x1004"/>
      <component glyphName="J" x="0" y="0" flags="0x1204"/>
    </TTGlyph>
    <TTGlyph name="K" xMin="123" yMin="0" xMax="1290" yMax="1579">
      <contour>
        <pt x="317" y="747" on="1"/>
        <pt x="317" y="0" on="1"/>
        <pt x="123" y="0" on="1"/>
        <pt x="123" y="1579" on="1"/>
        <pt x="317" y="1579" on="1"/>
        <pt x="317" y="854" on="1"/>
        <pt x="540" y="854" on="1"/>
        <pt x="1030" y="1579" on="1"/>
        <pt x="1223" y="1579" on="1"/>
        <pt x="694" y="798" on="1"/>
        <pt x="1290" y="0" on="1"/>
        <pt x="1087" y="0" on="1"/>
        <pt x="532" y="747" on="1"/>
      </contour>
    </TTGlyph>
    <TTGlyph name="L" xMin="123" yMin="0" xMax="1063" yMax="1579">
      <contour>
        <pt x="1063" y="0" on="1"/>
        <pt x="123" y="0" on="1"/>
        <pt x="123" y="1579" on="1"/>
        <pt x="317" y="1579" on="1"/>
        <pt x="317" y="143" on="1"/>
        <pt x="1063" y="143" on="1"/>
      </contour>
    </TTGlyph>
    <TTGlyph name="M" xMin="123" yMin="0" xMax="1655" yMax="1579">
      <contour>
        <pt x="791" y="0" on="1"/>
        <pt x="278" y="1469" on="1"/>
        <pt x="278" y="0" on="1"/>
        <pt x="123" y="0" on="1"/>
        <pt x="123" y="1579" on="1"/>
        <pt x="414" y="1579" on="1"/>
        <pt x="889" y="178" on="1"/>
        <pt x="1364" y="1579" on="1"/>
        <pt x="1655" y="1579" on="1"/>
        <pt x="1655" y="0" on="1"/>
        <pt x="1500" y="0" on="1"/>
        <pt x="1500" y="1469" on="1"/>
        <pt x="987" y="0" on="1"/>
      </contour>
    </TTGlyph>
    <TTGlyph name="N" xMin="123" yMin="0" xMax="1376" yMax="1579">
      <contour>
        <pt x="1214" y="145" on="1"/>
        <pt x="1214" y="1579" on="1"/>
        <pt x="1376" y="1579" on="1"/>
        <pt x="1376" y="0" on="1"/>
        <pt x="1114" y="0" on="1"/>
        <pt x="285" y="1434" on="1"/>
        <pt x="285" y="0" on="1"/>
        <pt x="123" y="0" on="1"/>
        <pt x="123" y="1579" on="1"/>
        <pt x="385" y="1579" on="1"/>
      </contour>
    </TTGlyph>
    <TTGlyph name="Nacute" xMin="123" yMin="0" xMax="1376" yMax="2349">
      <component glyphName=".ttfautohint" x="123" y="0" flags="0x0"/>
      <component glyphName="acutecomb" x="232" y="73" flags="0x1004"/>
      <component glyphName="N" x="0" y="0" flags="0x1204"/>
    </TTGlyph>
    <TTGlyph name="Ntilde" xMin="123" yMin="0" xMax="1376" yMax="1976">
      <component glyphName=".ttfautohint" x="123" y="0" flags="0x0"/>
      <component glyphName="tilde" x="-102" y="677" flags="0x1004"/>
      <component glyphName="N" x="0" y="0" flags="0x1204"/>
    </TTGlyph>
    <TTGlyph name="O" xMin="114" yMin="-41" xMax="1424" yMax="1610">
      <contour>
        <pt x="1384" y="1163" on="0"/>
        <pt x="1424" y="925" on="0"/>
        <pt x="1424" y="646" on="0"/>
        <pt x="1385" y="411" on="0"/>
        <pt x="1290" y="197" on="0"/>
        <pt x="1216" y="122" on="1"/>
        <pt x="1056" y="-41" on="0"/>
        <pt x="768" y="-41" on="1"/>
        <pt x="354" y="-42" on="0"/>
        <pt x="202" y="300" on="1"/>
        <pt x="114" y="496" on="0"/>
        <pt x="114" y="784" on="1"/>
        <pt x="114" y="1226" on="0"/>
        <pt x="318" y="1444" on="1"/>
        <pt x="390" y="1520" on="0"/>
        <pt x="613" y="1610" on="0"/>
        <pt x="903" y="1610" on="0"/>
        <pt x="1136" y="1524" on="0"/>
        <pt x="1286" y="1376" on="0"/>
      </contour>
      <contour>
        <pt x="1224" y="784" on="1"/>
        <pt x="1224" y="1092" on="0"/>
        <pt x="1143" y="1242" on="1"/>
        <pt x="1066" y="1385" on="0"/>
        <pt x="938" y="1431" on="1"/>
        <pt x="864" y="1458" on="0"/>
        <pt x="688" y="1458" on="0"/>
        <pt x="554" y="1416" on="0"/>
        <pt x="461" y="1345" on="0"/>
        <pt x="390" y="1239" on="0"/>
        <pt x="349" y="1126" on="0"/>
        <pt x="336" y="1056" on="1"/>
        <pt x="314" y="937" on="0"/>
        <pt x="314" y="696" on="0"/>
        <pt x="329" y="545" on="0"/>
        <pt x="365" y="386" on="0"/>
        <pt x="399" y="324" on="1"/>
        <pt x="433" y="264" on="0"/>
        <pt x="483" y="214" on="1"/>
        <pt x="587" y="112" on="0"/>
        <pt x="779" y="111" on="1"/>
        <pt x="1224" y="111" on="0"/>
      </contour>
    </TTGlyph>
    <TTGlyph name="OE" xMin="124" yMin="-41" xMax="2215" yMax="1610">
      <contour>
        <pt x="2215" y="0" on="1"/>
        <pt x="1232" y="0" on="1"/>
        <pt x="1232" y="169" on="1"/>
        <pt x="1078" y="-41" on="0"/>
        <pt x="778" y="-41" on="1"/>
        <pt x="371" y="-41" on="0"/>
        <pt x="217" y="285" on="1"/>
        <pt x="124" y="482" on="0"/>
        <pt x="124" y="784" on="1"/>
        <pt x="124" y="1422" on="0"/>
        <pt x="519" y="1570" on="1"/>
        <pt x="627" y="1610" on="0"/>
        <pt x="764" y="1610" on="1"/>
        <pt x="1076" y="1610" on="0"/>
        <pt x="1232" y="1397" on="1"/>
        <pt x="1232" y="1579" on="1"/>
        <pt x="2202" y="1579" on="1"/>
        <pt x="2202" y="1436" on="1"/>
        <pt x="1426" y="1436" on="1"/>
        <pt x="1426" y="891" on="1"/>
        <pt x="2104" y="891" on="1"/>
        <pt x="2104" y="776" on="1"/>
        <pt x="1426" y="776" on="1"/>
        <pt x="1426" y="143" on="1"/>
        <pt x="2215" y="143" on="1"/>
      </contour>
      <contour>
        <pt x="1232" y="878" on="1"/>
        <pt x="1216" y="1214" on="0"/>
        <pt x="1080" y="1350" on="1"/>
        <pt x="972" y="1458" on="0"/>
        <pt x="780" y="1458" on="1"/>
        <pt x="476" y="1458" on="0"/>
        <pt x="379" y="1180" on="1"/>
        <pt x="324" y="1023" on="0"/>
        <pt x="324" y="784" on="1"/>
        <pt x="324" y="401" on="0"/>
        <pt x="462" y="239" on="1"/>
        <pt x="572" y="111" on="0"/>
        <pt x="780" y="111" on="1"/>
        <pt x="1058" y="112" on="0"/>
        <pt x="1162" y="348" on="1"/>
        <pt x="1221" y="481" on="0"/>
        <pt x="1232" y="692" on="1"/>
      </contour>
    </TTGlyph>
    <TTGlyph name="Oacute" xMin="114" yMin="-41" xMax="1424" yMax="2349">
      <component glyphName=".ttfautohint" x="114" y="0" flags="0x0"/>
      <component glyphName="acutecomb" x="252" y="73" flags="0x1004"/>
      <component glyphName="O" x="0" y="0" flags="0x1204"/>
    </TTGlyph>
    <TTGlyph name="Ocircumflex" xMin="114" yMin="-41" xMax="1424" yMax="2291">
      <component glyphName=".ttfautohint" x="114" y="0" flags="0x0"/>
      <component glyphName="circumflex" x="55" y="1280" flags="0x1004"/>
      <component glyphName="O" x="0" y="0" flags="0x1204"/>
    </TTGlyph>
    <TTGlyph name="Odieresis" xMin="114" yMin="-41" xMax="1424" yMax="1942">
      <component glyphName=".ttfautohint" x="114" y="0" flags="0x0"/>
      <component glyphName="dieresis" x="353" y="1331" flags="0x1004"/>
      <component glyphName="O" x="0" y="0" flags="0x1204"/>
    </TTGlyph>
    <TTGlyph name="Ograve" xMin="114" yMin="-41" xMax="1424" yMax="2356">
      <component glyphName=".ttfautohint" x="114" y="0" flags="0x0"/>
      <component glyphName="grave" x="378" y="1382" flags="0x1004"/>
      <component glyphName="O" x="0" y="0" flags="0x1204"/>
    </TTGlyph>
    <TTGlyph name="Oslash" xMin="54" yMin="-159" xMax="1365" yMax="1710">
      <contour>
        <pt x="1365" y="784" on="1"/>
        <pt x="1365" y="156" on="0"/>
        <pt x="969" y="3" on="1"/>
        <pt x="855" y="-41" on="0"/>
        <pt x="565" y="-41" on="0"/>
        <pt x="453" y="0" on="1"/>
        <pt x="381" y="-159" on="1"/>
        <pt x="280" y="-113" on="1"/>
        <pt x="353" y="49" on="1"/>
        <pt x="174" y="170" on="0"/>
        <pt x="110" y="376" on="1"/>
        <pt x="54" y="557" on="0"/>
        <pt x="54" y="918" on="0"/>
        <pt x="93" y="1153" on="0"/>
        <pt x="188" y="1367" on="0"/>
        <pt x="331" y="1520" on="0"/>
        <pt x="554" y="1610" on="0"/>
        <pt x="891" y="1610" on="0"/>
        <pt x="1027" y="1538" on="1"/>
        <pt x="1105" y="1710" on="1"/>
        <pt x="1206" y="1668" on="1"/>
        <pt x="1120" y="1477" on="1"/>
        <pt x="1365" y="1280" on="0"/>
      </contour>
      <contour>
        <pt x="710" y="1458" on="1"/>
        <pt x="298" y="1458" on="0"/>
        <pt x="260" y="922" on="1"/>
        <pt x="256" y="858" on="0"/>
        <pt x="255" y="784" on="1"/>
        <pt x="255" y="369" on="0"/>
        <pt x="426" y="209" on="1"/>
        <pt x="960" y="1390" on="1"/>
        <pt x="859" y="1458" on="0"/>
      </contour>
      <contour>
        <pt x="1164" y="784" on="1"/>
        <pt x="1164" y="1143" on="0"/>
        <pt x="1043" y="1307" on="1"/>
        <pt x="519" y="147" on="1"/>
        <pt x="521" y="147" on="1"/>
        <pt x="604" y="111" on="0"/>
        <pt x="804" y="111" on="0"/>
        <pt x="953" y="166" on="0"/>
        <pt x="1050" y="267" on="0"/>
        <pt x="1116" y="391" on="0"/>
        <pt x="1133" y="471" on="1"/>
        <pt x="1164" y="617" on="0"/>
      </contour>
    </TTGlyph>
    <TTGlyph name="Otilde" xMin="114" yMin="-41" xMax="1424" yMax="1976">
      <component glyphName=".ttfautohint" x="114" y="0" flags="0x0"/>
      <component glyphName="tilde" x="-82" y="677" flags="0x1004"/>
      <component glyphName="O" x="0" y="0" flags="0x1204"/>
    </TTGlyph>
    <TTGlyph name="P" xMin="123" yMin="0" xMax="1220" yMax="1579">
      <contour>
        <pt x="487" y="784" on="1"/>
        <pt x="701" y="784" on="0"/>
        <pt x="840" y="820" on="0"/>
        <pt x="890" y="842" on="1"/>
        <pt x="938" y="865" on="0"/>
        <pt x="968" y="896" on="1"/>
        <pt x="1038" y="969" on="0"/>
        <pt x="1038" y="1167" on="0"/>
        <pt x="1007" y="1288" on="0"/>
        <pt x="936" y="1364" on="0"/>
        <pt x="898" y="1387" on="1"/>
        <pt x="860" y="1410" on="0"/>
        <pt x="794" y="1420" on="1"/>
        <pt x="688" y="1436" on="0"/>
        <pt x="532" y="1436" on="1"/>
        <pt x="317" y="1436" on="1"/>
        <pt x="317" y="784" on="1"/>
      </contour>
      <contour>
        <pt x="1220" y="1116" on="1"/>
        <pt x="1220" y="1035" on="0"/>
        <pt x="1187" y="913" on="0"/>
        <pt x="1134" y="824" on="0"/>
        <pt x="1049" y="752" on="0"/>
        <pt x="962" y="705" on="0"/>
        <pt x="841" y="670" on="0"/>
        <pt x="789" y="661" on="1"/>
        <pt x="738" y="652" on="0"/>
        <pt x="668" y="647" on="1"/>
        <pt x="557" y="639" on="0"/>
        <pt x="427" y="639" on="1"/>
        <pt x="317" y="639" on="1"/>
        <pt x="317" y="0" on="1"/>
        <pt x="123" y="0" on="1"/>
        <pt x="123" y="1579" on="1"/>
        <pt x="520" y="1579" on="1"/>
        <pt x="807" y="1578" on="0"/>
        <pt x="945" y="1528" on="1"/>
        <pt x="1081" y="1478" on="0"/>
        <pt x="1144" y="1388" on="1"/>
        <pt x="1220" y="1280" on="0"/>
      </contour>
    </TTGlyph>
    <TTGlyph name="Q" xMin="112" yMin="-424" xMax="1439" yMax="1610">
      <contour>
        <pt x="1239" y="1458" on="0"/>
        <pt x="313" y="1458" on="0"/>
        <pt x="313" y="784" on="1"/>
        <pt x="313" y="340" on="0"/>
        <pt x="513" y="188" on="1"/>
        <pt x="616" y="110" on="0"/>
        <pt x="776" y="111" on="1"/>
        <pt x="1193" y="112" on="0"/>
        <pt x="1234" y="646" on="1"/>
        <pt x="1239" y="710" on="0"/>
        <pt x="1239" y="784" on="1"/>
      </contour>
      <contour>
        <pt x="1439" y="794" on="1"/>
        <pt x="1439" y="666" on="0"/>
        <pt x="1410" y="460" on="0"/>
        <pt x="1335" y="255" on="0"/>
        <pt x="1219" y="102" on="0"/>
        <pt x="1032" y="-10" on="0"/>
        <pt x="911" y="-29" on="1"/>
        <pt x="1290" y="-293" on="1"/>
        <pt x="1171" y="-424" on="1"/>
        <pt x="678" y="-35" on="1"/>
        <pt x="459" y="-11" on="0"/>
        <pt x="333" y="114" on="1"/>
        <pt x="208" y="240" on="0"/>
        <pt x="160" y="414" on="1"/>
        <pt x="112" y="589" on="0"/>
        <pt x="112" y="927" on="0"/>
        <pt x="155" y="1163" on="0"/>
        <pt x="255" y="1373" on="0"/>
        <pt x="330" y="1448" on="1"/>
        <pt x="492" y="1610" on="0"/>
        <pt x="776" y="1610" on="1"/>
        <pt x="1188" y="1610" on="0"/>
        <pt x="1348" y="1267" on="1"/>
        <pt x="1440" y="1071" on="0"/>
      </contour>
    </TTGlyph>
    <TTGlyph name="R" xMin="123" yMin="0" xMax="1216" yMax="1579">
      <contour>
        <pt x="1032" y="0" on="1"/>
        <pt x="1036" y="312" on="1"/>
        <pt x="1036" y="508" on="0"/>
        <pt x="994" y="580" on="1"/>
        <pt x="954" y="652" on="0"/>
        <pt x="882" y="681" on="1"/>
        <pt x="788" y="719" on="0"/>
        <pt x="589" y="733" on="0"/>
        <pt x="497" y="733" on="1"/>
        <pt x="317" y="733" on="1"/>
        <pt x="317" y="0" on="1"/>
        <pt x="123" y="0" on="1"/>
        <pt x="123" y="1579" on="1"/>
        <pt x="499" y="1579" on="1"/>
        <pt x="739" y="1579" on="0"/>
        <pt x="866" y="1557" on="0"/>
        <pt x="986" y="1528" on="0"/>
        <pt x="1057" y="1487" on="0"/>
        <pt x="1140" y="1423" on="0"/>
        <pt x="1162" y="1382" on="1"/>
        <pt x="1216" y="1285" on="0"/>
        <pt x="1216" y="1160" on="1"/>
        <pt x="1216" y="992" on="0"/>
        <pt x="975" y="797" on="0"/>
        <pt x="803" y="797" on="1"/>
        <pt x="1112" y="762" on="0"/>
        <pt x="1186" y="570" on="1"/>
        <pt x="1214" y="496" on="0"/>
        <pt x="1214" y="397" on="1"/>
        <pt x="1214" y="0" on="1"/>
      </contour>
      <contour>
        <pt x="612" y="1437" on="1"/>
        <pt x="499" y="1436" on="1"/>
        <pt x="317" y="1436" on="1"/>
        <pt x="317" y="862" on="1"/>
        <pt x="558" y="862" on="1"/>
        <pt x="880" y="862" on="0"/>
        <pt x="985" y="976" on="1"/>
        <pt x="1046" y="1043" on="0"/>
        <pt x="1046" y="1150" on="1"/>
        <pt x="1046" y="1310" on="0"/>
        <pt x="941" y="1374" on="1"/>
        <pt x="876" y="1414" on="0"/>
        <pt x="809" y="1424" on="1"/>
        <pt x="713" y="1437" on="0"/>
      </contour>
    </TTGlyph>
    <TTGlyph name="Racute" xMin="123" yMin="0" xMax="1216" yMax="2349">
      <component glyphName=".ttfautohint" x="123" y="0" flags="0x0"/>
      <component glyphName="acutecomb" x="152" y="73" flags="0x1004"/>
      <component glyphName="R" x="0" y="0" flags="0x1204"/>
    </TTGlyph>
    <TTGlyph name="Rcaron" xMin="123" yMin="0" xMax="1216" yMax="2291">
      <component glyphName=".ttfautohint" x="123" y="0" flags="0x0"/>
      <component glyphName="caron" x="-44" y="1281" flags="0x1004"/>
      <component glyphName="R" x="0" y="0" flags="0x1204"/>
    </TTGlyph>
    <TTGlyph name="Rcommaaccent" xMin="123" yMin="-648" xMax="1216" yMax="1579">
      <component glyphName=".ttfautohint" x="123" y="0" flags="0x0"/>
      <component glyphName="comma" x="408" y="-395" flags="0x1004"/>
      <component glyphName="R" x="0" y="0" flags="0x1204"/>
    </TTGlyph>
    <TTGlyph name="S" xMin="1" yMin="-41" xMax="1095" yMax="1610">
      <contour>
        <pt x="70" y="72" on="1"/>
        <pt x="90" y="222" on="1"/>
        <pt x="204" y="162" on="0"/>
        <pt x="382" y="111" on="0"/>
        <pt x="568" y="111" on="0"/>
        <pt x="681" y="126" on="0"/>
        <pt x="736" y="146" on="1"/>
        <pt x="791" y="166" on="0"/>
        <pt x="828" y="200" on="1"/>
        <pt x="911" y="275" on="0"/>
        <pt x="911" y="416" on="1"/>
        <pt x="911" y="556" on="0"/>
        <pt x="796" y="634" on="1"/>
        <pt x="703" y="697" on="0"/>
        <pt x="456" y="774" on="0"/>
        <pt x="305" y="824" on="0"/>
        <pt x="237" y="860" on="1"/>
        <pt x="169" y="894" on="0"/>
        <pt x="116" y="940" on="1"/>
        <pt x="1" y="1039" on="0"/>
        <pt x="1" y="1217" on="1"/>
        <pt x="1" y="1317" on="0"/>
        <pt x="88" y="1472" on="0"/>
        <pt x="160" y="1518" on="1"/>
        <pt x="305" y="1610" on="0"/>
        <pt x="500" y="1610" on="1"/>
        <pt x="771" y="1610" on="0"/>
        <pt x="993" y="1484" on="1"/>
        <pt x="963" y="1337" on="1"/>
        <pt x="877" y="1392" on="0"/>
        <pt x="661" y="1458" on="0"/>
        <pt x="500" y="1458" on="0"/>
        <pt x="404" y="1449" on="0"/>
        <pt x="299" y="1418" on="0"/>
        <pt x="264" y="1392" on="1"/>
        <pt x="184" y="1331" on="0"/>
        <pt x="184" y="1208" on="1"/>
        <pt x="184" y="1088" on="0"/>
        <pt x="299" y="1024" on="1"/>
        <pt x="379" y="979" on="0"/>
        <pt x="640" y="906" on="0"/>
        <pt x="791" y="857" on="0"/>
        <pt x="927" y="782" on="0"/>
        <pt x="980" y="732" on="1"/>
        <pt x="1095" y="624" on="0"/>
        <pt x="1095" y="426" on="1"/>
        <pt x="1095" y="144" on="0"/>
        <pt x="862" y="27" on="1"/>
        <pt x="726" y="-41" on="0"/>
        <pt x="532" y="-41" on="1"/>
        <pt x="415" y="-41" on="0"/>
        <pt x="157" y="17" on="0"/>
      </contour>
    </TTGlyph>
    <TTGlyph name="Sacute" xMin="1" yMin="-41" xMax="1095" yMax="2349">
      <component glyphName=".ttfautohint" x="1" y="0" flags="0x0"/>
      <component glyphName="acutecomb" x="30" y="73" flags="0x1004"/>
      <component glyphName="S" x="0" y="0" flags="0x1204"/>
    </TTGlyph>
    <TTGlyph name="Scaron" xMin="1" yMin="-41" xMax="1095" yMax="2291">
      <component glyphName=".ttfautohint" x="1" y="0" flags="0x0"/>
      <component glyphName="caron" x="-166" y="1281" flags="0x1004"/>
      <component glyphName="S" x="0" y="0" flags="0x1204"/>
    </TTGlyph>
    <TTGlyph name="T" xMin="116" yMin="0" xMax="1224" yMax="1579">
      <contour>
        <pt x="1224" y="1436" on="1"/>
        <pt x="766" y="1436" on="1"/>
        <pt x="766" y="0" on="1"/>
        <pt x="576" y="0" on="1"/>
        <pt x="576" y="1436" on="1"/>
        <pt x="116" y="1436" on="1"/>
        <pt x="116" y="1579" on="1"/>
        <pt x="1224" y="1579" on="1"/>
      </contour>
    </TTGlyph>
    <TTGlyph name="Thorn" xMin="123" yMin="0" xMax="1212" yMax="1579">
      <contour>
        <pt x="317" y="1444" on="1"/>
        <pt x="500" y="1445" on="1"/>
        <pt x="720" y="1445" on="0"/>
        <pt x="886" y="1410" on="0"/>
        <pt x="991" y="1375" on="0"/>
        <pt x="1068" y="1326" on="0"/>
        <pt x="1140" y="1254" on="0"/>
        <pt x="1162" y="1209" on="1"/>
        <pt x="1212" y="1110" on="0"/>
        <pt x="1212" y="973" on="1"/>
        <pt x="1212" y="758" on="0"/>
        <pt x="1082" y="652" on="1"/>
        <pt x="996" y="582" on="0"/>
        <pt x="827" y="535" on="0"/>
        <pt x="724" y="516" on="0"/>
        <pt x="654" y="511" on="1"/>
        <pt x="555" y="504" on="0"/>
        <pt x="412" y="504" on="1"/>
        <pt x="317" y="504" on="1"/>
        <pt x="317" y="0" on="1"/>
        <pt x="123" y="0" on="1"/>
        <pt x="123" y="1579" on="1"/>
        <pt x="317" y="1579" on="1"/>
      </contour>
      <contour>
        <pt x="479" y="649" on="1"/>
        <pt x="650" y="649" on="0"/>
        <pt x="760" y="667" on="0"/>
        <pt x="848" y="689" on="0"/>
        <pt x="907" y="720" on="0"/>
        <pt x="970" y="767" on="0"/>
        <pt x="988" y="797" on="1"/>
        <pt x="1030" y="867" on="0"/>
        <pt x="1030" y="1013" on="0"/>
        <pt x="1013" y="1102" on="0"/>
        <pt x="986" y="1168" on="0"/>
        <pt x="937" y="1220" on="0"/>
        <pt x="889" y="1254" on="0"/>
        <pt x="813" y="1278" on="0"/>
        <pt x="782" y="1284" on="1"/>
        <pt x="750" y="1290" on="0"/>
        <pt x="702" y="1294" on="1"/>
        <pt x="626" y="1300" on="0"/>
        <pt x="526" y="1300" on="1"/>
        <pt x="317" y="1300" on="1"/>
        <pt x="317" y="649" on="1"/>
      </contour>
    </TTGlyph>
    <TTGlyph name="U" xMin="122" yMin="-41" xMax="1378" yMax="1579">
      <contour>
        <pt x="748" y="-41" on="1"/>
        <pt x="604" y="-41" on="0"/>
        <pt x="388" y="34" on="0"/>
        <pt x="318" y="99" on="1"/>
        <pt x="246" y="164" on="0"/>
        <pt x="202" y="261" on="1"/>
        <pt x="122" y="436" on="0"/>
        <pt x="122" y="715" on="1"/>
        <pt x="122" y="1579" on="1"/>
        <pt x="314" y="1579" on="1"/>
        <pt x="314" y="711" on="1"/>
        <pt x="314" y="449" on="0"/>
        <pt x="362" y="328" on="1"/>
        <pt x="407" y="214" on="0"/>
        <pt x="492" y="161" on="1"/>
        <pt x="590" y="100" on="0"/>
        <pt x="748" y="100" on="1"/>
        <pt x="986" y="100" on="0"/>
        <pt x="1082" y="236" on="1"/>
        <pt x="1143" y="322" on="0"/>
        <pt x="1159" y="416" on="1"/>
        <pt x="1182" y="553" on="0"/>
        <pt x="1182" y="711" on="1"/>
        <pt x="1182" y="1579" on="1"/>
        <pt x="1378" y="1579" on="1"/>
        <pt x="1378" y="715" on="1"/>
        <pt x="1378" y="280" on="0"/>
        <pt x="1182" y="99" on="1"/>
        <pt x="1030" y="-41" on="0"/>
      </contour>
    </TTGlyph>
    <TTGlyph name="Uacute" xMin="122" yMin="-41" xMax="1378" yMax="2349">
      <component glyphName=".ttfautohint" x="122" y="0" flags="0x0"/>
      <component glyphName="acutecomb" x="232" y="73" flags="0x1004"/>
      <component glyphName="U" x="0" y="0" flags="0x1204"/>
    </TTGlyph>
    <TTGlyph name="Ucircumflex" xMin="122" yMin="-41" xMax="1378" yMax="2291">
      <component glyphName=".ttfautohint" x="122" y="0" flags="0x0"/>
      <component glyphName="circumflex" x="36" y="1280" flags="0x1004"/>
      <component glyphName="U" x="0" y="0" flags="0x1204"/>
    </TTGlyph>
    <TTGlyph name="Udieresis" xMin="122" yMin="-41" xMax="1378" yMax="1942">
      <component glyphName=".ttfautohint" x="122" y="0" flags="0x0"/>
      <component glyphName="dieresis" x="334" y="1331" flags="0x1004"/>
      <component glyphName="U" x="0" y="0" flags="0x1204"/>
    </TTGlyph>
    <TTGlyph name="Ugrave" xMin="122" yMin="-41" xMax="1378" yMax="2356">
      <component glyphName=".ttfautohint" x="122" y="0" flags="0x0"/>
      <component glyphName="grave" x="360" y="1382" flags="0x1004"/>
      <component glyphName="U" x="0" y="0" flags="0x1204"/>
    </TTGlyph>
    <TTGlyph name="Umacron" xMin="122" yMin="-41" xMax="1378" yMax="1829">
      <component glyphName=".ttfautohint" x="122" y="0" flags="0x0"/>
      <component glyphName="glyph113" x="321" y="1614" flags="0x1004"/>
      <component glyphName="U" x="0" y="0" flags="0x1204"/>
    </TTGlyph>
    <TTGlyph name="V" xMin="86" yMin="0" xMax="1320" yMax="1579">
      <contour>
        <pt x="582" y="0" on="1"/>
        <pt x="86" y="1579" on="1"/>
        <pt x="270" y="1579" on="1"/>
        <pt x="704" y="180" on="1"/>
        <pt x="1138" y="1579" on="1"/>
        <pt x="1320" y="1579" on="1"/>
        <pt x="826" y="0" on="1"/>
      </contour>
    </TTGlyph>
    <TTGlyph name="W" xMin="88" yMin="0" xMax="1931" yMax="1579">
      <contour>
        <pt x="1147" y="1489" on="1"/>
        <pt x="1441" y="175" on="1"/>
        <pt x="1751" y="1579" on="1"/>
        <pt x="1931" y="1579" on="1"/>
        <pt x="1575" y="0" on="1"/>
        <pt x="1309" y="0" on="1"/>
        <pt x="1010" y="1333" on="1"/>
        <pt x="711" y="0" on="1"/>
        <pt x="444" y="0" on="1"/>
        <pt x="88" y="1579" on="1"/>
        <pt x="269" y="1579" on="1"/>
        <pt x="579" y="175" on="1"/>
        <pt x="873" y="1489" on="1"/>
      </contour>
    </TTGlyph>
    <TTGlyph name="X" xMin="96" yMin="0" xMax="1308" yMax="1579">
      <contour>
        <pt x="314" y="0" on="1"/>
        <pt x="96" y="0" on="1"/>
        <pt x="593" y="800" on="1"/>
        <pt x="98" y="1579" on="1"/>
        <pt x="294" y="1579" on="1"/>
        <pt x="702" y="923" on="1"/>
        <pt x="1110" y="1579" on="1"/>
        <pt x="1306" y="1579" on="1"/>
        <pt x="811" y="800" on="1"/>
        <pt x="1308" y="0" on="1"/>
        <pt x="1090" y="0" on="1"/>
        <pt x="702" y="626" on="1"/>
        <pt x="572" y="418" on="0"/>
      </contour>
    </TTGlyph>
    <TTGlyph name="Y" xMin="82" yMin="0" xMax="1300" yMax="1579">
      <contour>
        <pt x="696" y="677" on="1"/>
        <pt x="1109" y="1579" on="1"/>
        <pt x="1300" y="1579" on="1"/>
        <pt x="786" y="485" on="1"/>
        <pt x="786" y="0" on="1"/>
        <pt x="596" y="0" on="1"/>
        <pt x="596" y="485" on="1"/>
        <pt x="82" y="1579" on="1"/>
        <pt x="279" y="1579" on="1"/>
        <pt x="483" y="1119" on="0"/>
      </contour>
    </TTGlyph>
    <TTGlyph name="Yacute" xMin="82" yMin="0" xMax="1300" yMax="2349">
      <component glyphName=".ttfautohint" x="82" y="0" flags="0x0"/>
      <component glyphName="acutecomb" x="174" y="73" flags="0x1004"/>
      <component glyphName="Y" x="0" y="0" flags="0x1204"/>
    </TTGlyph>
    <TTGlyph name="Ydieresis" xMin="82" yMin="0" xMax="1300" yMax="1942">
      <component glyphName=".ttfautohint" x="82" y="0" flags="0x0"/>
      <component glyphName="dieresis" x="275" y="1331" flags="0x1004"/>
      <component glyphName="Y" x="0" y="0" flags="0x1204"/>
    </TTGlyph>
    <TTGlyph name="Z" xMin="119" yMin="0" xMax="1151" yMax="1579">
      <contour>
        <pt x="1149" y="1579" on="1"/>
        <pt x="1149" y="1419" on="1"/>
        <pt x="316" y="143" on="1"/>
        <pt x="1151" y="143" on="1"/>
        <pt x="1151" y="0" on="1"/>
        <pt x="119" y="0" on="1"/>
        <pt x="119" y="180" on="1"/>
        <pt x="948" y="1447" on="1"/>
        <pt x="119" y="1447" on="1"/>
        <pt x="119" y="1579" on="1"/>
      </contour>
    </TTGlyph>
    <TTGlyph name="Zacute" xMin="119" yMin="0" xMax="1151" yMax="2349">
      <component glyphName=".ttfautohint" x="119" y="0" flags="0x0"/>
      <component glyphName="acutecomb" x="118" y="73" flags="0x1004"/>
      <component glyphName="Z" x="0" y="0" flags="0x1204"/>
    </TTGlyph>
    <TTGlyph name="Zcaron" xMin="119" yMin="0" xMax="1151" yMax="2291">
      <component glyphName=".ttfautohint" x="119" y="0" flags="0x0"/>
      <component glyphName="caron" x="-79" y="1281" flags="0x1004"/>
      <component glyphName="Z" x="0" y="0" flags="0x1204"/>
    </TTGlyph>
    <TTGlyph name="Zdotaccent" xMin="119" yMin="0" xMax="1151" yMax="1942">
      <component glyphName=".ttfautohint" x="119" y="0" flags="0x0"/>
      <component glyphName="period" x="407" y="1729" flags="0x1004"/>
      <component glyphName="Z" x="0" y="0" flags="0x1204"/>
    </TTGlyph>
    <TTGlyph name="a" xMin="110" yMin="-20" xMax="1075" yMax="1190">
      <contour>
        <pt x="549" y="117" on="1"/>
        <pt x="720" y="117" on="0"/>
        <pt x="885" y="271" on="1"/>
        <pt x="885" y="569" on="1"/>
        <pt x="754" y="590" on="0"/>
        <pt x="566" y="590" on="0"/>
        <pt x="479" y="580" on="0"/>
        <pt x="392" y="550" on="0"/>
        <pt x="364" y="525" on="1"/>
        <pt x="301" y="469" on="0"/>
        <pt x="301" y="228" on="0"/>
        <pt x="421" y="117" on="0"/>
      </contour>
      <contour>
        <pt x="885" y="665" on="1"/>
        <pt x="885" y="713" on="1"/>
        <pt x="884" y="931" on="0"/>
        <pt x="814" y="991" on="1"/>
        <pt x="748" y="1047" on="0"/>
        <pt x="637" y="1047" on="1"/>
        <pt x="426" y="1047" on="0"/>
        <pt x="250" y="935" on="1"/>
        <pt x="183" y="1057" on="1"/>
        <pt x="298" y="1122" on="0"/>
        <pt x="495" y="1190" on="0"/>
        <pt x="742" y="1190" on="0"/>
        <pt x="924" y="1135" on="0"/>
        <pt x="1032" y="1007" on="0"/>
        <pt x="1075" y="825" on="0"/>
        <pt x="1075" y="686" on="1"/>
        <pt x="1075" y="0" on="1"/>
        <pt x="935" y="0" on="1"/>
        <pt x="907" y="178" on="1"/>
        <pt x="762" y="-20" on="0"/>
        <pt x="502" y="-20" on="1"/>
        <pt x="318" y="-20" on="0"/>
        <pt x="110" y="163" on="0"/>
        <pt x="110" y="343" on="1"/>
        <pt x="110" y="532" on="0"/>
        <pt x="244" y="627" on="1"/>
        <pt x="368" y="715" on="0"/>
        <pt x="554" y="715" on="1"/>
        <pt x="623" y="715" on="0"/>
        <pt x="827" y="686" on="0"/>
      </contour>
    </TTGlyph>
    <TTGlyph name="aacute" xMin="110" yMin="-20" xMax="1075" yMax="1929">
      <component glyphName=".ttfautohint" x="110" y="0" flags="0x0"/>
      <component glyphName="acutecomb" x="75" y="-347" flags="0x1004"/>
      <component glyphName="a" x="0" y="0" flags="0x1204"/>
    </TTGlyph>
    <TTGlyph name="abreve" xMin="110" yMin="-20" xMax="1075" yMax="1531">
      <component glyphName=".ttfautohint" x="110" y="0" flags="0x0"/>
      <component glyphName="uni0306" x="210" y="-107" flags="0x1004"/>
      <component glyphName="a" x="0" y="0" flags="0x1204"/>
    </TTGlyph>
    <TTGlyph name="acircumflex" xMin="110" yMin="-20" xMax="1075" yMax="1871">
      <component glyphName=".ttfautohint" x="110" y="0" flags="0x0"/>
      <component glyphName="circumflex" x="-122" y="860" flags="0x1004"/>
      <component glyphName="a" x="0" y="0" flags="0x1204"/>
    </TTGlyph>
    <TTGlyph name="acute" xMin="39" yMin="328" xMax="430" yMax="965">
      <contour>
        <pt x="96" y="328" on="1"/>
        <pt x="39" y="354" on="1"/>
        <pt x="198" y="965" on="1"/>
        <pt x="430" y="874" on="1"/>
      </contour>
    </TTGlyph>
    <TTGlyph name="acutecomb" xMin="489" yMin="1639" xMax="880" yMax="2276">
      <contour>
        <pt x="546" y="1639" on="1"/>
        <pt x="489" y="1665" on="1"/>
        <pt x="648" y="2276" on="1"/>
        <pt x="880" y="2185" on="1"/>
      </contour>
    </TTGlyph>
    <TTGlyph name="adieresis" xMin="110" yMin="-20" xMax="1075" yMax="1522">
      <component glyphName=".ttfautohint" x="110" y="0" flags="0x0"/>
      <component glyphName="dieresis" x="176" y="911" flags="0x1004"/>
      <component glyphName="a" x="0" y="0" flags="0x1204"/>
    </TTGlyph>
    <TTGlyph name="ae" xMin="38" yMin="-23" xMax="1744" yMax="1190">
      <contour>
        <pt x="1310" y="-23" on="1"/>
        <pt x="1009" y="-23" on="0"/>
        <pt x="877" y="207" on="1"/>
        <pt x="798" y="102" on="0"/>
        <pt x="559" y="-23" on="0"/>
        <pt x="430" y="-23" on="1"/>
        <pt x="246" y="-23" on="0"/>
        <pt x="38" y="161" on="0"/>
        <pt x="38" y="343" on="1"/>
        <pt x="38" y="532" on="0"/>
        <pt x="172" y="627" on="1"/>
        <pt x="296" y="715" on="0"/>
        <pt x="482" y="715" on="1"/>
        <pt x="553" y="715" on="0"/>
        <pt x="730" y="688" on="0"/>
        <pt x="786" y="665" on="1"/>
        <pt x="786" y="713" on="1"/>
        <pt x="786" y="881" on="0"/>
        <pt x="753" y="957" on="0"/>
        <pt x="716" y="1006" on="0"/>
        <pt x="690" y="1018" on="1"/>
        <pt x="630" y="1046" on="0"/>
        <pt x="449" y="1047" on="0"/>
        <pt x="237" y="983" on="0"/>
        <pt x="171" y="935" on="1"/>
        <pt x="104" y="1057" on="1"/>
        <pt x="170" y="1113" on="0"/>
        <pt x="429" y="1190" on="0"/>
        <pt x="595" y="1190" on="0"/>
        <pt x="705" y="1172" on="0"/>
        <pt x="758" y="1150" on="1"/>
        <pt x="866" y="1104" on="0"/>
        <pt x="906" y="970" on="1"/>
        <pt x="958" y="1078" on="0"/>
        <pt x="1173" y="1190" on="0"/>
        <pt x="1413" y="1190" on="0"/>
        <pt x="1586" y="1109" on="0"/>
        <pt x="1638" y="1038" on="1"/>
        <pt x="1744" y="895" on="0"/>
        <pt x="1744" y="676" on="1"/>
        <pt x="1744" y="625" on="0"/>
        <pt x="1736" y="567" on="1"/>
        <pt x="976" y="567" on="1"/>
        <pt x="976" y="314" on="0"/>
        <pt x="1079" y="211" on="1"/>
        <pt x="1163" y="127" on="0"/>
        <pt x="1492" y="127" on="0"/>
        <pt x="1628" y="244" on="1"/>
        <pt x="1690" y="99" on="1"/>
        <pt x="1620" y="48" on="0"/>
        <pt x="1398" y="-23" on="0"/>
      </contour>
      <contour>
        <pt x="229" y="229" on="0"/>
        <pt x="348" y="119" on="0"/>
        <pt x="622" y="119" on="0"/>
        <pt x="786" y="271" on="1"/>
        <pt x="786" y="569" on="1"/>
        <pt x="660" y="590" on="0"/>
        <pt x="494" y="590" on="0"/>
        <pt x="407" y="580" on="0"/>
        <pt x="320" y="550" on="0"/>
        <pt x="292" y="525" on="1"/>
        <pt x="229" y="469" on="0"/>
      </contour>
      <contour>
        <pt x="1576" y="717" on="1"/>
        <pt x="1576" y="960" on="0"/>
        <pt x="1430" y="1030" on="1"/>
        <pt x="1376" y="1056" on="0"/>
        <pt x="1302" y="1057" on="1"/>
        <pt x="1139" y="1057" on="0"/>
        <pt x="976" y="852" on="0"/>
        <pt x="976" y="682" on="1"/>
        <pt x="1576" y="682" on="1"/>
      </contour>
    </TTGlyph>
    <TTGlyph name="agrave" xMin="110" yMin="-20" xMax="1075" yMax="1936">
      <component glyphName=".ttfautohint" x="110" y="0" flags="0x0"/>
      <component glyphName="grave" x="202" y="962" flags="0x1004"/>
      <component glyphName="a" x="0" y="0" flags="0x1204"/>
    </TTGlyph>
    <TTGlyph name="amacron" xMin="110" yMin="-20" xMax="1075" yMax="1409">
      <component glyphName=".ttfautohint" x="110" y="0" flags="0x0"/>
      <component glyphName="glyph113" x="164" y="1194" flags="0x1004"/>
      <component glyphName="a" x="0" y="0" flags="0x1204"/>
    </TTGlyph>
    <TTGlyph name="ampersand" xMin="64" yMin="-39" xMax="1489" yMax="1445">
      <contour>
        <pt x="855" y="-19" on="0"/>
        <pt x="701" y="-39" on="0"/>
        <pt x="544" y="-39" on="0"/>
        <pt x="386" y="-11" on="0"/>
        <pt x="237" y="55" on="0"/>
        <pt x="183" y="104" on="1"/>
        <pt x="64" y="212" on="0"/>
        <pt x="64" y="396" on="1"/>
        <pt x="64" y="727" on="0"/>
        <pt x="398" y="822" on="1"/>
        <pt x="321" y="870" on="0"/>
        <pt x="196" y="1035" on="0"/>
        <pt x="196" y="1197" on="0"/>
        <pt x="228" y="1262" on="1"/>
        <pt x="262" y="1326" on="0"/>
        <pt x="318" y="1366" on="1"/>
        <pt x="430" y="1444" on="0"/>
        <pt x="595" y="1445" on="1"/>
        <pt x="759" y="1445" on="0"/>
        <pt x="873" y="1367" on="1"/>
        <pt x="996" y="1283" on="0"/>
        <pt x="996" y="1115" on="1"/>
        <pt x="996" y="985" on="0"/>
        <pt x="909" y="910" on="1"/>
        <pt x="839" y="850" on="0"/>
        <pt x="713" y="806" on="1"/>
        <pt x="684" y="796" on="0"/>
        <pt x="637" y="781" on="1"/>
        <pt x="1132" y="391" on="1"/>
        <pt x="1146" y="601" on="0"/>
        <pt x="1146" y="796" on="1"/>
        <pt x="1310" y="796" on="1"/>
        <pt x="1310" y="518" on="0"/>
        <pt x="1263" y="277" on="1"/>
        <pt x="1489" y="95" on="1"/>
        <pt x="1403" y="-7" on="1"/>
        <pt x="1192" y="170" on="1"/>
        <pt x="1161" y="112" on="0"/>
        <pt x="1024" y="25" on="0"/>
      </contour>
      <contour>
        <pt x="246" y="418" on="1"/>
        <pt x="246" y="232" on="0"/>
        <pt x="352" y="162" on="1"/>
        <pt x="448" y="100" on="0"/>
        <pt x="631" y="100" on="1"/>
        <pt x="981" y="100" on="0"/>
        <pt x="1080" y="256" on="1"/>
        <pt x="492" y="726" on="1"/>
        <pt x="246" y="674" on="0"/>
      </contour>
      <contour>
        <pt x="836" y="1119" on="1"/>
        <pt x="836" y="1216" on="0"/>
        <pt x="698" y="1310" on="0"/>
        <pt x="595" y="1310" on="1"/>
        <pt x="362" y="1310" on="0"/>
        <pt x="362" y="1121" on="1"/>
        <pt x="362" y="1055" on="0"/>
        <pt x="479" y="919" on="0"/>
        <pt x="547" y="883" on="1"/>
        <pt x="555" y="885" on="0"/>
        <pt x="618" y="904" on="0"/>
        <pt x="639" y="910" on="0"/>
        <pt x="695" y="929" on="0"/>
        <pt x="718" y="941" on="0"/>
        <pt x="763" y="965" on="0"/>
        <pt x="783" y="986" on="0"/>
        <pt x="798" y="1002" on="1"/>
        <pt x="814" y="1018" on="0"/>
        <pt x="820" y="1034" on="1"/>
        <pt x="836" y="1076" on="0"/>
      </contour>
    </TTGlyph>
    <TTGlyph name="aring" xMin="110" yMin="-20" xMax="1075" yMax="1772">
      <component glyphName=".ttfautohint" x="110" y="0" flags="0x0"/>
      <component glyphName="ring" x="-262" y="257" flags="0x1004"/>
      <component glyphName="a" x="0" y="0" flags="0x1204"/>
    </TTGlyph>
    <TTGlyph name="asciicircum" xMin="98" yMin="432" xMax="778" yMax="1011">
      <contour>
        <pt x="438" y="809" on="1"/>
        <pt x="226" y="432" on="1"/>
        <pt x="98" y="510" on="1"/>
        <pt x="390" y="1011" on="1"/>
        <pt x="486" y="1011" on="1"/>
        <pt x="778" y="510" on="1"/>
        <pt x="650" y="432" on="1"/>
      </contour>
    </TTGlyph>
    <TTGlyph name="asciicircum.001" xMin="412" yMin="467" xMax="1146" yMax="1092">
      <contour>
        <pt x="779" y="874" on="1"/>
        <pt x="550" y="467" on="1"/>
        <pt x="412" y="551" on="1"/>
        <pt x="727" y="1092" on="1"/>
        <pt x="831" y="1092" on="1"/>
        <pt x="1146" y="551" on="1"/>
        <pt x="1008" y="467" on="1"/>
      </contour>
    </TTGlyph>
    <TTGlyph name="asciitilde" xMin="107" yMin="390" xMax="867" yMax="654">
      <contour>
        <pt x="410" y="480" on="1"/>
        <pt x="352" y="510" on="0"/>
        <pt x="302" y="509" on="0"/>
        <pt x="288" y="498" on="1"/>
        <pt x="274" y="487" on="0"/>
        <pt x="270" y="466" on="1"/>
        <pt x="262" y="431" on="0"/>
        <pt x="263" y="394" on="1"/>
        <pt x="107" y="394" on="1"/>
        <pt x="107" y="654" on="0"/>
        <pt x="308" y="654" on="1"/>
        <pt x="400" y="654" on="0"/>
        <pt x="592" y="529" on="0"/>
        <pt x="711" y="529" on="0"/>
        <pt x="711" y="640" on="1"/>
        <pt x="867" y="640" on="1"/>
        <pt x="867" y="539" on="0"/>
        <pt x="770" y="390" on="0"/>
        <pt x="587" y="390" on="0"/>
      </contour>
    </TTGlyph>
    <TTGlyph name="asterisk" xMin="113" yMin="815" xMax="903" yMax="1567">
      <contour>
        <pt x="508" y="1292" on="1"/>
        <pt x="647" y="1567" on="1"/>
        <pt x="750" y="1509" on="1"/>
        <pt x="592" y="1237" on="1"/>
        <pt x="903" y="1237" on="1"/>
        <pt x="903" y="1145" on="1"/>
        <pt x="594" y="1145" on="1"/>
        <pt x="764" y="872" on="1"/>
        <pt x="662" y="815" on="1"/>
        <pt x="508" y="1090" on="1"/>
        <pt x="354" y="815" on="1"/>
        <pt x="252" y="872" on="1"/>
        <pt x="422" y="1145" on="1"/>
        <pt x="113" y="1145" on="1"/>
        <pt x="113" y="1237" on="1"/>
        <pt x="424" y="1237" on="1"/>
        <pt x="266" y="1509" on="1"/>
        <pt x="369" y="1567" on="1"/>
      </contour>
    </TTGlyph>
    <TTGlyph name="at" xMin="108" yMin="-155" xMax="1769" yMax="1456">
      <contour>
        <pt x="1207" y="987" on="1"/>
        <pt x="1107" y="1008" on="0"/>
        <pt x="1031" y="1008" on="1"/>
        <pt x="850" y="1008" on="0"/>
        <pt x="603" y="755" on="0"/>
        <pt x="603" y="573" on="1"/>
        <pt x="603" y="330" on="0"/>
        <pt x="828" y="330" on="1"/>
        <pt x="1202" y="330" on="0"/>
      </contour>
      <contour>
        <pt x="1440" y="134" on="1"/>
        <pt x="1531" y="42" on="1"/>
        <pt x="1466" y="-30" on="0"/>
        <pt x="1360" y="-76" on="1"/>
        <pt x="1178" y="-155" on="0"/>
        <pt x="943" y="-155" on="1"/>
        <pt x="653" y="-154" on="0"/>
        <pt x="447" y="-40" on="1"/>
        <pt x="230" y="81" on="0"/>
        <pt x="150" y="310" on="1"/>
        <pt x="108" y="431" on="0"/>
        <pt x="108" y="761" on="0"/>
        <pt x="235" y="1085" on="0"/>
        <pt x="457" y="1320" on="0"/>
        <pt x="776" y="1456" on="0"/>
        <pt x="1127" y="1456" on="0"/>
        <pt x="1415" y="1369" on="0"/>
        <pt x="1640" y="1200" on="0"/>
        <pt x="1769" y="928" on="0"/>
        <pt x="1769" y="756" on="1"/>
        <pt x="1769" y="484" on="0"/>
        <pt x="1614" y="318" on="1"/>
        <pt x="1502" y="198" on="0"/>
        <pt x="1328" y="199" on="1"/>
        <pt x="1220" y="199" on="0"/>
        <pt x="1220" y="383" on="1"/>
        <pt x="1220" y="417" on="0"/>
        <pt x="1228" y="531" on="0"/>
        <pt x="1228" y="548" on="1"/>
        <pt x="1196" y="392" on="0"/>
        <pt x="970" y="199" on="0"/>
        <pt x="638" y="199" on="0"/>
        <pt x="448" y="413" on="0"/>
        <pt x="448" y="734" on="0"/>
        <pt x="611" y="984" on="0"/>
        <pt x="873" y="1128" on="0"/>
        <pt x="1015" y="1128" on="1"/>
        <pt x="1104" y="1128" on="0"/>
        <pt x="1300" y="1096" on="1"/>
        <pt x="1355" y="987" on="1"/>
        <pt x="1355" y="317" on="1"/>
        <pt x="1358" y="317" on="1"/>
        <pt x="1609" y="317" on="0"/>
        <pt x="1609" y="758" on="1"/>
        <pt x="1609" y="1176" on="0"/>
        <pt x="1221" y="1285" on="1"/>
        <pt x="1107" y="1317" on="0"/>
        <pt x="804" y="1317" on="0"/>
        <pt x="540" y="1206" on="0"/>
        <pt x="452" y="1108" on="1"/>
        <pt x="268" y="903" on="0"/>
        <pt x="267" y="578" on="1"/>
        <pt x="266" y="222" on="0"/>
        <pt x="544" y="72" on="1"/>
        <pt x="709" y="-16" on="0"/>
        <pt x="953" y="-16" on="1"/>
        <pt x="1100" y="-16" on="0"/>
        <pt x="1336" y="52" on="0"/>
      </contour>
    </TTGlyph>
    <TTGlyph name="atilde" xMin="110" yMin="-20" xMax="1075" yMax="1556">
      <component glyphName=".ttfautohint" x="110" y="0" flags="0x0"/>
      <component glyphName="tilde" x="-258" y="257" flags="0x1004"/>
      <component glyphName="a" x="0" y="0" flags="0x1204"/>
    </TTGlyph>
    <TTGlyph name="b" xMin="126" yMin="-20" xMax="1140" yMax="1614">
      <contour>
        <pt x="662" y="-20" on="1"/>
        <pt x="560" y="-20" on="0"/>
        <pt x="369" y="90" on="0"/>
        <pt x="294" y="178" on="1"/>
        <pt x="266" y="0" on="1"/>
        <pt x="126" y="0" on="1"/>
        <pt x="126" y="1579" on="1"/>
        <pt x="316" y="1614" on="1"/>
        <pt x="316" y="1030" on="1"/>
        <pt x="383" y="1097" on="0"/>
        <pt x="577" y="1190" on="0"/>
        <pt x="764" y="1190" on="0"/>
        <pt x="928" y="1120" on="0"/>
        <pt x="982" y="1062" on="1"/>
        <pt x="1036" y="1004" on="0"/>
        <pt x="1072" y="924" on="1"/>
        <pt x="1140" y="775" on="0"/>
        <pt x="1140" y="580" on="1"/>
        <pt x="1140" y="270" on="0"/>
        <pt x="981" y="104" on="1"/>
        <pt x="863" y="-20" on="0"/>
      </contour>
      <contour>
        <pt x="958" y="584" on="1"/>
        <pt x="958" y="1047" on="0"/>
        <pt x="671" y="1047" on="1"/>
        <pt x="585" y="1047" on="0"/>
        <pt x="380" y="963" on="0"/>
        <pt x="316" y="902" on="1"/>
        <pt x="316" y="273" on="1"/>
        <pt x="474" y="117" on="0"/>
        <pt x="671" y="117" on="1"/>
        <pt x="792" y="118" on="0"/>
        <pt x="856" y="196" on="1"/>
        <pt x="919" y="274" on="0"/>
        <pt x="934" y="353" on="1"/>
        <pt x="958" y="481" on="0"/>
      </contour>
    </TTGlyph>
    <TTGlyph name="backslash" xMin="-33" yMin="-172" xMax="748" yMax="1731">
      <contour>
        <pt x="125" y="1731" on="1"/>
        <pt x="748" y="-114" on="1"/>
        <pt x="588" y="-172" on="1"/>
        <pt x="-33" y="1679" on="1"/>
      </contour>
    </TTGlyph>
    <TTGlyph name="bar" xMin="129" yMin="-111" xMax="307" yMax="1696">
      <contour>
        <pt x="129" y="-111" on="1"/>
        <pt x="129" y="1696" on="1"/>
        <pt x="307" y="1696" on="1"/>
        <pt x="307" y="-111" on="1"/>
      </contour>
    </TTGlyph>
    <TTGlyph name="braceleft" xMin="57" yMin="-209" xMax="705" yMax="1539">
      <contour>
        <pt x="57" y="571" on="1"/>
        <pt x="57" y="759" on="1"/>
        <pt x="58" y="759" on="1"/>
        <pt x="200" y="760" on="0"/>
        <pt x="248" y="858" on="1"/>
        <pt x="270" y="904" on="0"/>
        <pt x="292" y="1020" on="0"/>
        <pt x="298" y="1084" on="1"/>
        <pt x="303" y="1150" on="0"/>
        <pt x="311" y="1214" on="1"/>
        <pt x="328" y="1352" on="0"/>
        <pt x="406" y="1440" on="1"/>
        <pt x="493" y="1538" on="0"/>
        <pt x="703" y="1539" on="1"/>
        <pt x="704" y="1539" on="1"/>
        <pt x="705" y="1370" on="1"/>
        <pt x="702" y="1370" on="1"/>
        <pt x="561" y="1370" on="0"/>
        <pt x="512" y="1294" on="1"/>
        <pt x="489" y="1258" on="0"/>
        <pt x="468" y="1168" on="0"/>
        <pt x="464" y="1062" on="0"/>
        <pt x="456" y="883" on="0"/>
        <pt x="416" y="802" on="1"/>
        <pt x="366" y="702" on="0"/>
        <pt x="224" y="665" on="1"/>
        <pt x="366" y="628" on="0"/>
        <pt x="416" y="528" on="1"/>
        <pt x="438" y="483" on="0"/>
        <pt x="460" y="371" on="0"/>
        <pt x="466" y="215" on="1"/>
        <pt x="470" y="100" on="0"/>
        <pt x="512" y="36" on="1"/>
        <pt x="561" y="-40" on="0"/>
        <pt x="702" y="-40" on="1"/>
        <pt x="705" y="-40" on="1"/>
        <pt x="704" y="-209" on="1"/>
        <pt x="703" y="-209" on="1"/>
        <pt x="493" y="-208" on="0"/>
        <pt x="406" y="-110" on="1"/>
        <pt x="366" y="-64" on="0"/>
        <pt x="319" y="52" on="0"/>
        <pt x="303" y="181" on="0"/>
        <pt x="294" y="289" on="1"/>
        <pt x="285" y="396" on="0"/>
        <pt x="248" y="472" on="1"/>
        <pt x="200" y="570" on="0"/>
        <pt x="58" y="571" on="1"/>
      </contour>
    </TTGlyph>
    <TTGlyph name="braceright" xMin="62" yMin="-209" xMax="710" yMax="1539">
      <contour>
        <pt x="710" y="571" on="1"/>
        <pt x="709" y="571" on="1"/>
        <pt x="567" y="570" on="0"/>
        <pt x="519" y="472" on="1"/>
        <pt x="482" y="396" on="0"/>
        <pt x="464" y="181" on="0"/>
        <pt x="448" y="52" on="0"/>
        <pt x="424" y="-6" on="1"/>
        <pt x="401" y="-64" on="0"/>
        <pt x="361" y="-110" on="1"/>
        <pt x="274" y="-208" on="0"/>
        <pt x="64" y="-209" on="1"/>
        <pt x="63" y="-209" on="1"/>
        <pt x="62" y="-40" on="1"/>
        <pt x="65" y="-40" on="1"/>
        <pt x="206" y="-40" on="0"/>
        <pt x="255" y="36" on="1"/>
        <pt x="297" y="100" on="0"/>
        <pt x="301" y="215" on="1"/>
        <pt x="307" y="371" on="0"/>
        <pt x="318" y="427" on="1"/>
        <pt x="330" y="483" on="0"/>
        <pt x="352" y="528" on="1"/>
        <pt x="402" y="628" on="0"/>
        <pt x="543" y="665" on="1"/>
        <pt x="402" y="702" on="0"/>
        <pt x="352" y="802" on="1"/>
        <pt x="311" y="885" on="0"/>
        <pt x="303" y="1062" on="0"/>
        <pt x="298" y="1168" on="0"/>
        <pt x="288" y="1214" on="1"/>
        <pt x="276" y="1258" on="0"/>
        <pt x="254" y="1294" on="1"/>
        <pt x="206" y="1370" on="0"/>
        <pt x="65" y="1370" on="1"/>
        <pt x="62" y="1370" on="1"/>
        <pt x="63" y="1539" on="1"/>
        <pt x="64" y="1539" on="1"/>
        <pt x="274" y="1538" on="0"/>
        <pt x="361" y="1440" on="1"/>
        <pt x="439" y="1352" on="0"/>
        <pt x="456" y="1214" on="1"/>
        <pt x="464" y="1150" on="0"/>
        <pt x="475" y="1020" on="0"/>
        <pt x="486" y="962" on="1"/>
        <pt x="497" y="904" on="0"/>
        <pt x="519" y="858" on="1"/>
        <pt x="567" y="760" on="0"/>
        <pt x="709" y="759" on="1"/>
        <pt x="710" y="759" on="1"/>
      </contour>
    </TTGlyph>
    <TTGlyph name="bracketleft" xMin="121" yMin="0" xMax="785" yMax="1579">
      <contour>
        <pt x="121" y="1579" on="1"/>
        <pt x="785" y="1579" on="1"/>
        <pt x="785" y="1436" on="1"/>
        <pt x="314" y="1436" on="1"/>
        <pt x="314" y="143" on="1"/>
        <pt x="785" y="143" on="1"/>
        <pt x="785" y="0" on="1"/>
        <pt x="121" y="0" on="1"/>
      </contour>
    </TTGlyph>
    <TTGlyph name="bracketright" xMin="116" yMin="0" xMax="780" yMax="1579">
      <contour>
        <pt x="116" y="1579" on="1"/>
        <pt x="780" y="1579" on="1"/>
        <pt x="780" y="0" on="1"/>
        <pt x="116" y="0" on="1"/>
        <pt x="116" y="143" on="1"/>
        <pt x="587" y="143" on="1"/>
        <pt x="587" y="1436" on="1"/>
        <pt x="116" y="1436" on="1"/>
      </contour>
    </TTGlyph>
    <TTGlyph name="brokenbar" xMin="122" yMin="0" xMax="310" yMax="1579">
      <contour>
        <pt x="122" y="889" on="1"/>
        <pt x="122" y="1579" on="1"/>
        <pt x="310" y="1579" on="1"/>
        <pt x="310" y="889" on="1"/>
      </contour>
      <contour>
        <pt x="122" y="0" on="1"/>
        <pt x="122" y="690" on="1"/>
        <pt x="310" y="690" on="1"/>
        <pt x="310" y="0" on="1"/>
      </contour>
    </TTGlyph>
    <TTGlyph name="bullet" xMin="332" yMin="387" xMax="1086" yMax="1110">
      <contour>
        <pt x="869" y="1110" on="0"/>
        <pt x="1086" y="905" on="0"/>
        <pt x="1086" y="595" on="0"/>
        <pt x="865" y="387" on="0"/>
        <pt x="546" y="387" on="0"/>
        <pt x="332" y="589" on="0"/>
        <pt x="332" y="906" on="0"/>
        <pt x="546" y="1110" on="0"/>
      </contour>
    </TTGlyph>
    <TTGlyph name="c" xMin="111" yMin="-20" xMax="1010" yMax="1190">
      <contour>
        <pt x="319" y="780" on="0"/>
        <pt x="301" y="654" on="0"/>
        <pt x="301" y="430" on="0"/>
        <pt x="341" y="322" on="1"/>
        <pt x="417" y="117" on="0"/>
        <pt x="624" y="117" on="1"/>
        <pt x="825" y="117" on="0"/>
        <pt x="953" y="245" on="1"/>
        <pt x="1010" y="111" on="1"/>
        <pt x="823" y="-20" on="0"/>
        <pt x="619" y="-20" on="1"/>
        <pt x="492" y="-20" on="0"/>
        <pt x="392" y="28" on="1"/>
        <pt x="293" y="76" on="0"/>
        <pt x="233" y="160" on="1"/>
        <pt x="111" y="330" on="0"/>
        <pt x="111" y="580" on="1"/>
        <pt x="112" y="832" on="0"/>
        <pt x="234" y="1006" on="1"/>
        <pt x="294" y="1092" on="0"/>
        <pt x="494" y="1190" on="0"/>
        <pt x="622" y="1190" on="1"/>
        <pt x="823" y="1190" on="0"/>
        <pt x="1010" y="1057" on="1"/>
        <pt x="953" y="924" on="1"/>
        <pt x="819" y="1040" on="0"/>
        <pt x="485" y="1040" on="0"/>
        <pt x="403" y="945" on="1"/>
        <pt x="366" y="902" on="0"/>
      </contour>
    </TTGlyph>
    <TTGlyph name="cacute" xMin="111" yMin="-20" xMax="1010" yMax="1929">
      <component glyphName=".ttfautohint" x="111" y="0" flags="0x0"/>
      <component glyphName="acutecomb" x="43" y="-347" flags="0x1004"/>
      <component glyphName="c" x="0" y="0" flags="0x1204"/>
    </TTGlyph>
    <TTGlyph name="caron" xMin="374" yMin="431" xMax="1054" yMax="1010">
      <contour>
        <pt x="714" y="633" on="1"/>
        <pt x="926" y="1010" on="1"/>
        <pt x="1054" y="932" on="1"/>
        <pt x="762" y="431" on="1"/>
        <pt x="666" y="431" on="1"/>
        <pt x="374" y="932" on="1"/>
        <pt x="502" y="1010" on="1"/>
      </contour>
    </TTGlyph>
    <TTGlyph name="ccaron" xMin="111" yMin="-20" xMax="1010" yMax="1871">
      <component glyphName=".ttfautohint" x="111" y="0" flags="0x0"/>
      <component glyphName="caron" x="-154" y="861" flags="0x1004"/>
      <component glyphName="c" x="0" y="0" flags="0x1204"/>
    </TTGlyph>
    <TTGlyph name="ccedilla" xMin="111" yMin="-652" xMax="1010" yMax="1190">
      <component glyphName=".ttfautohint" x="111" y="0" flags="0x0"/>
      <component glyphName="cedilla" x="383" y="-74" flags="0x1004"/>
      <component glyphName="c" x="0" y="0" flags="0x1204"/>
    </TTGlyph>
    <TTGlyph name="ccircumflex" xMin="111" yMin="-20" xMax="1010" yMax="1871">
      <component glyphName=".ttfautohint" x="111" y="0" flags="0x0"/>
      <component glyphName="circumflex" x="-154" y="860" flags="0x1004"/>
      <component glyphName="c" x="0" y="0" flags="0x1204"/>
    </TTGlyph>
    <TTGlyph name="cedilla" xMin="67" yMin="-578" xMax="503" yMax="76">
      <contour>
        <pt x="67" y="-540" on="1"/>
        <pt x="67" y="-423" on="1"/>
        <pt x="184" y="-464" on="0"/>
        <pt x="309" y="-464" on="0"/>
        <pt x="370" y="-408" on="0"/>
        <pt x="370" y="-295" on="0"/>
        <pt x="349" y="-244" on="0"/>
        <pt x="305" y="-214" on="0"/>
        <pt x="262" y="-196" on="0"/>
        <pt x="228" y="-192" on="1"/>
        <pt x="178" y="-186" on="0"/>
        <pt x="117" y="-186" on="1"/>
        <pt x="117" y="76" on="1"/>
        <pt x="238" y="76" on="1"/>
        <pt x="238" y="-98" on="1"/>
        <pt x="368" y="-98" on="0"/>
        <pt x="503" y="-214" on="0"/>
        <pt x="503" y="-342" on="1"/>
        <pt x="503" y="-578" on="0"/>
        <pt x="251" y="-578" on="1"/>
        <pt x="179" y="-578" on="0"/>
      </contour>
    </TTGlyph>
    <TTGlyph name="cent" xMin="63" yMin="-159" xMax="962" yMax="1329">
      <contour>
        <pt x="962" y="1077" on="1"/>
        <pt x="962" y="1077" on="0"/>
        <pt x="905" y="944" on="1"/>
        <pt x="779" y="1036" on="0"/>
        <pt x="640" y="1038" on="1"/>
        <pt x="640" y="130" on="1"/>
        <pt x="781" y="130" on="0"/>
        <pt x="905" y="205" on="1"/>
        <pt x="951" y="68" on="1"/>
        <pt x="783" y="-17" on="0"/>
        <pt x="640" y="-19" on="1"/>
        <pt x="640" y="-159" on="1"/>
        <pt x="537" y="-159" on="1"/>
        <pt x="537" y="-22" on="1"/>
        <pt x="416" y="-15" on="0"/>
        <pt x="230" y="88" on="0"/>
        <pt x="174" y="172" on="1"/>
        <pt x="62" y="340" on="0"/>
        <pt x="63" y="580" on="1"/>
        <pt x="63" y="825" on="0"/>
        <pt x="174" y="990" on="1"/>
        <pt x="292" y="1165" on="0"/>
        <pt x="537" y="1189" on="1"/>
        <pt x="537" y="1329" on="1"/>
        <pt x="640" y="1329" on="1"/>
        <pt x="640" y="1186" on="1"/>
        <pt x="786" y="1184" on="0"/>
      </contour>
      <contour>
        <pt x="537" y="129" on="1"/>
        <pt x="537" y="1037" on="1"/>
        <pt x="253" y="1001" on="0"/>
        <pt x="253" y="580" on="1"/>
        <pt x="253" y="444" on="0"/>
        <pt x="287" y="344" on="1"/>
        <pt x="353" y="148" on="0"/>
      </contour>
    </TTGlyph>
    <TTGlyph name="circumflex" xMin="374" yMin="432" xMax="1054" yMax="1011">
      <contour>
        <pt x="714" y="809" on="1"/>
        <pt x="502" y="432" on="1"/>
        <pt x="374" y="510" on="1"/>
        <pt x="666" y="1011" on="1"/>
        <pt x="762" y="1011" on="1"/>
        <pt x="1054" y="510" on="1"/>
        <pt x="926" y="432" on="1"/>
      </contour>
    </TTGlyph>
    <TTGlyph name="colon" xMin="129" yMin="0" xMax="399" yMax="864">
      <contour>
        <pt x="129" y="281" on="1"/>
        <pt x="399" y="281" on="1"/>
        <pt x="399" y="0" on="1"/>
        <pt x="129" y="0" on="1"/>
      </contour>
      <contour>
        <pt x="129" y="864" on="1"/>
        <pt x="399" y="864" on="1"/>
        <pt x="399" y="583" on="1"/>
        <pt x="129" y="583" on="1"/>
      </contour>
    </TTGlyph>
    <TTGlyph name="comma" xMin="121" yMin="-253" xMax="402" yMax="293">
      <contour>
        <pt x="121" y="0" on="1"/>
        <pt x="121" y="293" on="1"/>
        <pt x="402" y="293" on="1"/>
        <pt x="402" y="44" on="1"/>
        <pt x="402" y="-70" on="0"/>
        <pt x="284" y="-221" on="0"/>
        <pt x="173" y="-253" on="1"/>
        <pt x="122" y="-159" on="1"/>
        <pt x="191" y="-135" on="0"/>
        <pt x="253" y="-67" on="0"/>
        <pt x="252" y="0" on="1"/>
      </contour>
    </TTGlyph>
    <TTGlyph name="copyright" xMin="35" yMin="-23" xMax="1785" yMax="1687">
      <contour>
        <pt x="947" y="336" on="1"/>
        <pt x="693" y="336" on="0"/>
        <pt x="425" y="582" on="0"/>
        <pt x="425" y="1080" on="0"/>
        <pt x="693" y="1326" on="0"/>
        <pt x="947" y="1326" on="1"/>
        <pt x="1075" y="1326" on="0"/>
        <pt x="1227" y="1248" on="1"/>
        <pt x="1227" y="1122" on="1"/>
        <pt x="1077" y="1198" on="0"/>
        <pt x="933" y="1198" on="1"/>
        <pt x="742" y="1198" on="0"/>
        <pt x="587" y="1027" on="0"/>
        <pt x="587" y="635" on="0"/>
        <pt x="742" y="464" on="0"/>
        <pt x="933" y="464" on="1"/>
        <pt x="1077" y="464" on="0"/>
        <pt x="1227" y="540" on="1"/>
        <pt x="1227" y="414" on="1"/>
        <pt x="1075" y="336" on="0"/>
      </contour>
      <contour>
        <pt x="35" y="1006" on="0"/>
        <pt x="176" y="1324" on="0"/>
        <pt x="413" y="1552" on="0"/>
        <pt x="735" y="1687" on="0"/>
        <pt x="1085" y="1687" on="0"/>
        <pt x="1407" y="1552" on="0"/>
        <pt x="1644" y="1324" on="0"/>
        <pt x="1785" y="1006" on="0"/>
        <pt x="1785" y="830" on="1"/>
        <pt x="1785" y="592" on="0"/>
        <pt x="1548" y="199" on="0"/>
        <pt x="1147" y="-23" on="0"/>
        <pt x="910" y="-23" on="1"/>
        <pt x="732" y="-23" on="0"/>
        <pt x="410" y="108" on="0"/>
        <pt x="174" y="332" on="0"/>
        <pt x="35" y="651" on="0"/>
      </contour>
      <contour>
        <pt x="183" y="622" on="0"/>
        <pt x="371" y="289" on="0"/>
        <pt x="703" y="101" on="0"/>
        <pt x="1117" y="101" on="0"/>
        <pt x="1449" y="289" on="0"/>
        <pt x="1637" y="622" on="0"/>
        <pt x="1637" y="829" on="1"/>
        <pt x="1637" y="976" on="0"/>
        <pt x="1522" y="1247" on="0"/>
        <pt x="1328" y="1445" on="0"/>
        <pt x="1058" y="1562" on="0"/>
        <pt x="712" y="1562" on="0"/>
        <pt x="377" y="1364" on="0"/>
        <pt x="183" y="1027" on="0"/>
      </contour>
    </TTGlyph>
    <TTGlyph name="currency" xMin="44" yMin="430" xMax="1140" yMax="1526">
      <contour>
        <pt x="482" y="1266" on="0"/>
        <pt x="306" y="1091" on="0"/>
        <pt x="306" y="865" on="0"/>
        <pt x="471" y="699" on="0"/>
        <pt x="694" y="699" on="0"/>
        <pt x="872" y="878" on="0"/>
        <pt x="872" y="1102" on="0"/>
        <pt x="708" y="1266" on="0"/>
      </contour>
      <contour>
        <pt x="231" y="742" on="1"/>
        <pt x="163" y="846" on="0"/>
        <pt x="163" y="1097" on="0"/>
        <pt x="238" y="1208" on="1"/>
        <pt x="44" y="1402" on="1"/>
        <pt x="168" y="1526" on="1"/>
        <pt x="362" y="1333" on="1"/>
        <pt x="474" y="1409" on="0"/>
        <pt x="726" y="1409" on="0"/>
        <pt x="830" y="1341" on="1"/>
        <pt x="1016" y="1526" on="1"/>
        <pt x="1140" y="1402" on="1"/>
        <pt x="953" y="1215" on="1"/>
        <pt x="1014" y="1118" on="0"/>
        <pt x="1014" y="869" on="0"/>
        <pt x="938" y="757" on="1"/>
        <pt x="1140" y="555" on="1"/>
        <pt x="1016" y="430" on="1"/>
        <pt x="813" y="633" on="1"/>
        <pt x="704" y="558" on="0"/>
        <pt x="454" y="558" on="0"/>
        <pt x="357" y="619" on="1"/>
        <pt x="168" y="430" on="1"/>
        <pt x="44" y="555" on="1"/>
      </contour>
    </TTGlyph>
    <TTGlyph name="d" xMin="113" yMin="-20" xMax="1130" yMax="1614">
      <contour>
        <pt x="146" y="316" on="0"/>
        <pt x="113" y="488" on="0"/>
        <pt x="113" y="673" on="0"/>
        <pt x="145" y="841" on="0"/>
        <pt x="216" y="1000" on="0"/>
        <pt x="268" y="1059" on="1"/>
        <pt x="385" y="1190" on="0"/>
        <pt x="575" y="1190" on="1"/>
        <pt x="674" y="1190" on="0"/>
        <pt x="881" y="1101" on="0"/>
        <pt x="940" y="1028" on="1"/>
        <pt x="940" y="1614" on="1"/>
        <pt x="1130" y="1579" on="1"/>
        <pt x="1130" y="0" on="1"/>
        <pt x="989" y="0" on="1"/>
        <pt x="961" y="179" on="1"/>
        <pt x="895" y="94" on="0"/>
        <pt x="698" y="-20" on="0"/>
        <pt x="495" y="-20" on="0"/>
        <pt x="330" y="47" on="0"/>
        <pt x="220" y="160" on="0"/>
      </contour>
      <contour>
        <pt x="587" y="1047" on="1"/>
        <pt x="295" y="1047" on="0"/>
        <pt x="295" y="117" on="0"/>
        <pt x="593" y="117" on="1"/>
        <pt x="685" y="117" on="0"/>
        <pt x="878" y="205" on="0"/>
        <pt x="940" y="275" on="1"/>
        <pt x="940" y="903" on="1"/>
        <pt x="751" y="1047" on="0"/>
      </contour>
    </TTGlyph>
    <TTGlyph name="dagger" xMin="123" yMin="0" xMax="1045" yMax="1585">
      <contour>
        <pt x="1045" y="1102" on="1"/>
        <pt x="691" y="1102" on="1"/>
        <pt x="691" y="0" on="1"/>
        <pt x="486" y="0" on="1"/>
        <pt x="486" y="1102" on="1"/>
        <pt x="123" y="1102" on="1"/>
        <pt x="123" y="1254" on="1"/>
        <pt x="485" y="1254" on="1"/>
        <pt x="485" y="1585" on="1"/>
        <pt x="693" y="1585" on="1"/>
        <pt x="693" y="1254" on="1"/>
        <pt x="1045" y="1254" on="1"/>
      </contour>
    </TTGlyph>
    <TTGlyph name="daggerdbl" xMin="222" yMin="0" xMax="1144" yMax="1585">
      <contour>
        <pt x="1144" y="1102" on="1"/>
        <pt x="790" y="1102" on="1"/>
        <pt x="790" y="480" on="1"/>
        <pt x="1142" y="480" on="1"/>
        <pt x="1142" y="329" on="1"/>
        <pt x="790" y="329" on="1"/>
        <pt x="790" y="0" on="1"/>
        <pt x="584" y="0" on="1"/>
        <pt x="584" y="329" on="1"/>
        <pt x="222" y="329" on="1"/>
        <pt x="222" y="480" on="1"/>
        <pt x="584" y="480" on="1"/>
        <pt x="584" y="1102" on="1"/>
        <pt x="222" y="1102" on="1"/>
        <pt x="222" y="1254" on="1"/>
        <pt x="584" y="1254" on="1"/>
        <pt x="584" y="1585" on="1"/>
        <pt x="792" y="1585" on="1"/>
        <pt x="792" y="1254" on="1"/>
        <pt x="1144" y="1254" on="1"/>
      </contour>
    </TTGlyph>
    <TTGlyph name="degree" xMin="43" yMin="660" xMax="523" yMax="1139">
      <contour>
        <pt x="347" y="1048" on="0"/>
        <pt x="223" y="1048" on="0"/>
        <pt x="140" y="961" on="0"/>
        <pt x="140" y="838" on="0"/>
        <pt x="225" y="750" on="0"/>
        <pt x="347" y="750" on="0"/>
        <pt x="426" y="836" on="0"/>
        <pt x="426" y="962" on="0"/>
      </contour>
      <contour>
        <pt x="43" y="1003" on="0"/>
        <pt x="182" y="1139" on="0"/>
        <pt x="389" y="1139" on="0"/>
        <pt x="523" y="1002" on="0"/>
        <pt x="523" y="796" on="0"/>
        <pt x="390" y="660" on="0"/>
        <pt x="183" y="660" on="0"/>
        <pt x="43" y="795" on="0"/>
      </contour>
    </TTGlyph>
    <TTGlyph name="dieresis" xMin="61" yMin="381" xMax="771" yMax="611">
      <contour>
        <pt x="61" y="543" on="0"/>
        <pt x="126" y="611" on="0"/>
        <pt x="221" y="611" on="0"/>
        <pt x="281" y="544" on="0"/>
        <pt x="281" y="448" on="0"/>
        <pt x="221" y="381" on="0"/>
        <pt x="125" y="381" on="0"/>
        <pt x="61" y="448" on="0"/>
      </contour>
      <contour>
        <pt x="551" y="543" on="0"/>
        <pt x="616" y="611" on="0"/>
        <pt x="711" y="611" on="0"/>
        <pt x="771" y="544" on="0"/>
        <pt x="771" y="448" on="0"/>
        <pt x="711" y="381" on="0"/>
        <pt x="615" y="381" on="0"/>
        <pt x="551" y="448" on="0"/>
      </contour>
    </TTGlyph>
    <TTGlyph name="divide" xMin="9" yMin="215" xMax="691" yMax="930">
      <contour>
        <pt x="691" y="508" on="1"/>
        <pt x="9" y="508" on="1"/>
        <pt x="9" y="639" on="1"/>
        <pt x="691" y="639" on="1"/>
      </contour>
      <contour>
        <pt x="236" y="862" on="0"/>
        <pt x="301" y="930" on="0"/>
        <pt x="396" y="930" on="0"/>
        <pt x="456" y="863" on="0"/>
        <pt x="456" y="767" on="0"/>
        <pt x="396" y="700" on="0"/>
        <pt x="300" y="700" on="0"/>
        <pt x="236" y="767" on="0"/>
      </contour>
      <contour>
        <pt x="234" y="377" on="0"/>
        <pt x="299" y="445" on="0"/>
        <pt x="394" y="445" on="0"/>
        <pt x="454" y="378" on="0"/>
        <pt x="454" y="282" on="0"/>
        <pt x="394" y="215" on="0"/>
        <pt x="298" y="215" on="0"/>
        <pt x="234" y="282" on="0"/>
      </contour>
    </TTGlyph>
    <TTGlyph name="dollar" xMin="60" yMin="-178" xMax="962" yMax="1390">
      <contour>
        <pt x="576" y="1236" on="1"/>
        <pt x="650" y="1234" on="0"/>
        <pt x="907" y="1199" on="0"/>
        <pt x="907" y="1172" on="1"/>
        <pt x="907" y="1171" on="1"/>
        <pt x="855" y="1040" on="1"/>
        <pt x="742" y="1087" on="0"/>
        <pt x="576" y="1098" on="1"/>
        <pt x="576" y="709" on="1"/>
        <pt x="801" y="634" on="0"/>
        <pt x="962" y="466" on="0"/>
        <pt x="962" y="340" on="1"/>
        <pt x="962" y="92" on="0"/>
        <pt x="728" y="12" on="1"/>
        <pt x="660" y="-12" on="0"/>
        <pt x="576" y="-18" on="1"/>
        <pt x="576" y="-178" on="1"/>
        <pt x="473" y="-178" on="1"/>
        <pt x="473" y="-20" on="1"/>
        <pt x="371" y="-13" on="0"/>
        <pt x="201" y="37" on="0"/>
        <pt x="124" y="63" on="1"/>
        <pt x="173" y="207" on="1"/>
        <pt x="337" y="145" on="0"/>
        <pt x="473" y="129" on="1"/>
        <pt x="473" y="572" on="1"/>
        <pt x="316" y="607" on="0"/>
        <pt x="246" y="636" on="0"/>
        <pt x="180" y="669" on="0"/>
        <pt x="142" y="704" on="0"/>
        <pt x="98" y="754" on="0"/>
        <pt x="86" y="782" on="1"/>
        <pt x="60" y="848" on="0"/>
        <pt x="60" y="995" on="0"/>
        <pt x="110" y="1101" on="0"/>
        <pt x="192" y="1169" on="0"/>
        <pt x="247" y="1193" on="1"/>
        <pt x="345" y="1236" on="0"/>
        <pt x="473" y="1240" on="1"/>
        <pt x="473" y="1390" on="1"/>
        <pt x="576" y="1390" on="1"/>
      </contour>
      <contour>
        <pt x="473" y="745" on="1"/>
        <pt x="473" y="1100" on="1"/>
        <pt x="290" y="1100" on="0"/>
        <pt x="244" y="1016" on="1"/>
        <pt x="224" y="979" on="0"/>
        <pt x="223" y="882" on="0"/>
        <pt x="248" y="848" on="1"/>
        <pt x="273" y="814" on="0"/>
        <pt x="314" y="794" on="1"/>
        <pt x="388" y="756" on="0"/>
      </contour>
      <contour>
        <pt x="576" y="539" on="1"/>
        <pt x="576" y="134" on="1"/>
        <pt x="669" y="136" on="0"/>
        <pt x="797" y="240" on="0"/>
        <pt x="797" y="329" on="1"/>
        <pt x="797" y="393" on="0"/>
        <pt x="757" y="440" on="0"/>
        <pt x="742" y="458" on="0"/>
        <pt x="708" y="480" on="0"/>
        <pt x="690" y="492" on="0"/>
        <pt x="647" y="511" on="0"/>
        <pt x="631" y="518" on="0"/>
        <pt x="583" y="536" on="0"/>
      </contour>
    </TTGlyph>
    <TTGlyph name="dotlessi" xMin="224" yMin="0" xMax="406" yMax="1169">
      <contour>
        <pt x="406" y="0" on="1"/>
        <pt x="224" y="0" on="1"/>
        <pt x="224" y="1169" on="1"/>
        <pt x="406" y="1169" on="1"/>
      </contour>
    </TTGlyph>
    <TTGlyph name="e" xMin="113" yMin="-20" xMax="1071" yMax="1190">
      <contour>
        <pt x="903" y="717" on="1"/>
        <pt x="903" y="860" on="0"/>
        <pt x="843" y="954" on="1"/>
        <pt x="777" y="1056" on="0"/>
        <pt x="629" y="1057" on="1"/>
        <pt x="336" y="1057" on="0"/>
        <pt x="304" y="682" on="1"/>
        <pt x="903" y="682" on="1"/>
      </contour>
      <contour>
        <pt x="300" y="563" on="1"/>
        <pt x="304" y="223" on="0"/>
        <pt x="510" y="141" on="1"/>
        <pt x="570" y="117" on="0"/>
        <pt x="649" y="117" on="1"/>
        <pt x="818" y="117" on="0"/>
        <pt x="955" y="244" on="1"/>
        <pt x="1017" y="99" on="1"/>
        <pt x="943" y="47" on="0"/>
        <pt x="728" y="-20" on="0"/>
        <pt x="505" y="-20" on="0"/>
        <pt x="403" y="26" on="1"/>
        <pt x="300" y="73" on="0"/>
        <pt x="238" y="155" on="1"/>
        <pt x="112" y="320" on="0"/>
        <pt x="113" y="578" on="1"/>
        <pt x="114" y="829" on="0"/>
        <pt x="238" y="1003" on="1"/>
        <pt x="300" y="1089" on="0"/>
        <pt x="500" y="1190" on="0"/>
        <pt x="739" y="1190" on="0"/>
        <pt x="912" y="1109" on="0"/>
        <pt x="965" y="1038" on="1"/>
        <pt x="1071" y="896" on="0"/>
        <pt x="1071" y="676" on="1"/>
        <pt x="1071" y="631" on="0"/>
        <pt x="1060" y="563" on="1"/>
      </contour>
    </TTGlyph>
    <TTGlyph name="eacute" xMin="113" yMin="-20" xMax="1071" yMax="1949">
      <component glyphName=".ttfautohint" x="113" y="0" flags="0x0"/>
      <component glyphName="e" x="0" y="0" flags="0x1204"/>
      <component glyphName="acute" x="560" y="984" flags="0x1004"/>
    </TTGlyph>
    <TTGlyph name="ecircumflex" xMin="113" yMin="-20" xMax="1071" yMax="1891">
      <component glyphName=".ttfautohint" x="113" y="0" flags="0x0"/>
      <component glyphName="e" x="0" y="0" flags="0x1204"/>
      <component glyphName="asciicircum" x="190" y="880" flags="0x1004"/>
    </TTGlyph>
    <TTGlyph name="edieresis" xMin="113" yMin="-20" xMax="1071" yMax="1542">
      <component glyphName=".ttfautohint" x="113" y="0" flags="0x0"/>
      <component glyphName="e" x="0" y="0" flags="0x1204"/>
      <component glyphName="dieresis" x="212" y="931" flags="0x1004"/>
    </TTGlyph>
    <TTGlyph name="egrave" xMin="113" yMin="-20" xMax="1071" yMax="1956">
      <component glyphName=".ttfautohint" x="113" y="0" flags="0x0"/>
      <component glyphName="e" x="0" y="0" flags="0x1204"/>
      <component glyphName="grave" x="238" y="982" flags="0x1004"/>
    </TTGlyph>
    <TTGlyph name="eight" xMin="120" yMin="-148" xMax="1066" yMax="1334">
      <contour>
        <pt x="590" y="1334" on="1"/>
        <pt x="746" y="1334" on="0"/>
        <pt x="862" y="1280" on="1"/>
        <pt x="1066" y="1184" on="0"/>
        <pt x="1066" y="966" on="1"/>
        <pt x="1066" y="843" on="0"/>
        <pt x="926" y="676" on="0"/>
        <pt x="804" y="634" on="1"/>
        <pt x="937" y="592" on="0"/>
        <pt x="1066" y="378" on="0"/>
        <pt x="1066" y="231" on="1"/>
        <pt x="1066" y="34" on="0"/>
        <pt x="922" y="-61" on="1"/>
        <pt x="856" y="-105" on="0"/>
        <pt x="693" y="-148" on="0"/>
        <pt x="505" y="-148" on="0"/>
        <pt x="339" y="-105" on="0"/>
        <pt x="201" y="-17" on="0"/>
        <pt x="120" y="134" on="0"/>
        <pt x="120" y="380" on="0"/>
        <pt x="249" y="594" on="0"/>
        <pt x="382" y="636" on="1"/>
        <pt x="261" y="676" on="0"/>
        <pt x="120" y="845" on="0"/>
        <pt x="120" y="1062" on="0"/>
        <pt x="205" y="1208" on="0"/>
        <pt x="346" y="1292" on="0"/>
        <pt x="510" y="1334" on="0"/>
      </contour>
      <contour>
        <pt x="449" y="-9" on="0"/>
        <pt x="749" y="-9" on="0"/>
        <pt x="888" y="108" on="0"/>
        <pt x="888" y="385" on="0"/>
        <pt x="729" y="575" on="0"/>
        <pt x="466" y="575" on="0"/>
        <pt x="298" y="389" on="0"/>
        <pt x="298" y="111" on="0"/>
      </contour>
      <contour>
        <pt x="716" y="691" on="0"/>
        <pt x="888" y="848" on="0"/>
        <pt x="888" y="970" on="1"/>
        <pt x="888" y="1092" on="0"/>
        <pt x="802" y="1148" on="1"/>
        <pt x="762" y="1174" on="0"/>
        <pt x="660" y="1199" on="0"/>
        <pt x="599" y="1199" on="1"/>
        <pt x="538" y="1200" on="0"/>
        <pt x="486" y="1188" on="1"/>
        <pt x="298" y="1146" on="0"/>
        <pt x="298" y="966" on="1"/>
        <pt x="298" y="849" on="0"/>
        <pt x="480" y="691" on="0"/>
      </contour>
    </TTGlyph>
    <TTGlyph name="ellipsis" xMin="147" yMin="-18" xMax="1503" yMax="230">
      <contour>
        <pt x="1266" y="106" on="1"/>
        <pt x="1266" y="160" on="0"/>
        <pt x="1333" y="230" on="0"/>
        <pt x="1437" y="230" on="0"/>
        <pt x="1503" y="158" on="0"/>
        <pt x="1503" y="54" on="0"/>
        <pt x="1437" y="-18" on="0"/>
        <pt x="1333" y="-18" on="0"/>
        <pt x="1266" y="52" on="0"/>
      </contour>
      <contour>
        <pt x="706" y="106" on="1"/>
        <pt x="706" y="160" on="0"/>
        <pt x="774" y="230" on="0"/>
        <pt x="878" y="230" on="0"/>
        <pt x="944" y="158" on="0"/>
        <pt x="944" y="54" on="0"/>
        <pt x="878" y="-18" on="0"/>
        <pt x="774" y="-18" on="0"/>
        <pt x="706" y="52" on="0"/>
      </contour>
      <contour>
        <pt x="147" y="106" on="1"/>
        <pt x="147" y="160" on="0"/>
        <pt x="215" y="230" on="0"/>
        <pt x="319" y="230" on="0"/>
        <pt x="384" y="159" on="0"/>
        <pt x="384" y="53" on="0"/>
        <pt x="352" y="18" on="1"/>
        <pt x="318" y="-18" on="0"/>
        <pt x="214" y="-18" on="0"/>
        <pt x="147" y="52" on="0"/>
      </contour>
    </TTGlyph>
    <TTGlyph name="emacron" xMin="113" yMin="-20" xMax="1071" yMax="1409">
      <component glyphName=".ttfautohint" x="113" y="0" flags="0x0"/>
      <component glyphName="glyph113" x="163" y="1194" flags="0x1004"/>
      <component glyphName="e" x="0" y="0" flags="0x1204"/>
    </TTGlyph>
    <TTGlyph name="emdash" xMin="140" yMin="599" xMax="1155" yMax="755">
      <contour>
        <pt x="1155" y="599" on="1"/>
        <pt x="140" y="599" on="1"/>
        <pt x="140" y="755" on="1"/>
        <pt x="1155" y="755" on="1"/>
      </contour>
    </TTGlyph>
    <TTGlyph name="endash" xMin="399" yMin="599" xMax="907" yMax="755">
      <contour>
        <pt x="907" y="599" on="1"/>
        <pt x="399" y="599" on="1"/>
        <pt x="399" y="755" on="1"/>
        <pt x="907" y="755" on="1"/>
      </contour>
    </TTGlyph>
    <TTGlyph name="equal" xMin="123" yMin="280" xMax="711" yMax="639">
      <contour>
        <pt x="711" y="508" on="1"/>
        <pt x="123" y="508" on="1"/>
        <pt x="123" y="639" on="1"/>
        <pt x="711" y="639" on="1"/>
      </contour>
      <contour>
        <pt x="711" y="280" on="1"/>
        <pt x="123" y="280" on="1"/>
        <pt x="123" y="411" on="1"/>
        <pt x="711" y="411" on="1"/>
      </contour>
    </TTGlyph>
    <TTGlyph name="eth" xMin="34" yMin="-20" xMax="1065" yMax="1743">
      <contour>
        <pt x="441" y="1743" on="1"/>
        <pt x="569" y="1671" on="0"/>
        <pt x="737" y="1508" on="1"/>
        <pt x="1023" y="1593" on="1"/>
        <pt x="1065" y="1503" on="1"/>
        <pt x="805" y="1426" on="1"/>
        <pt x="931" y="1255" on="0"/>
        <pt x="1051" y="900" on="0"/>
        <pt x="1051" y="690" on="1"/>
        <pt x="1051" y="-20" on="0"/>
        <pt x="518" y="-20" on="1"/>
        <pt x="226" y="-20" on="0"/>
        <pt x="104" y="238" on="1"/>
        <pt x="34" y="386" on="0"/>
        <pt x="34" y="584" on="1"/>
        <pt x="34" y="768" on="0"/>
        <pt x="102" y="920" on="1"/>
        <pt x="177" y="1088" on="0"/>
        <pt x="321" y="1154" on="1"/>
        <pt x="400" y="1190" on="0"/>
        <pt x="594" y="1190" on="0"/>
        <pt x="802" y="1101" on="0"/>
        <pt x="861" y="1028" on="1"/>
        <pt x="802" y="1206" on="0"/>
        <pt x="652" y="1380" on="1"/>
        <pt x="417" y="1311" on="1"/>
        <pt x="375" y="1401" on="1"/>
        <pt x="578" y="1461" on="1"/>
        <pt x="468" y="1571" on="0"/>
        <pt x="357" y="1641" on="1"/>
      </contour>
      <contour>
        <pt x="867" y="770" on="0"/>
        <pt x="797" y="940" on="0"/>
        <pt x="645" y="1047" on="0"/>
        <pt x="460" y="1047" on="0"/>
        <pt x="342" y="995" on="0"/>
        <pt x="272" y="912" on="0"/>
        <pt x="251" y="850" on="1"/>
        <pt x="216" y="746" on="0"/>
        <pt x="216" y="587" on="1"/>
        <pt x="216" y="123" on="0"/>
        <pt x="514" y="123" on="1"/>
        <pt x="802" y="123" on="0"/>
        <pt x="852" y="448" on="1"/>
        <pt x="867" y="545" on="0"/>
      </contour>
    </TTGlyph>
    <TTGlyph name="exclam" xMin="118" yMin="-16" xMax="327" yMax="1579">
      <contour>
        <pt x="327" y="186" on="1"/>
        <pt x="327" y="-16" on="1"/>
        <pt x="118" y="-16" on="1"/>
        <pt x="118" y="186" on="1"/>
      </contour>
      <contour>
        <pt x="314" y="399" on="1"/>
        <pt x="140" y="399" on="1"/>
        <pt x="140" y="1579" on="1"/>
        <pt x="314" y="1579" on="1"/>
      </contour>
    </TTGlyph>
    <TTGlyph name="exclamdown" xMin="72" yMin="0" xMax="296" yMax="1595">
      <contour>
        <pt x="281" y="1393" on="1"/>
        <pt x="72" y="1393" on="1"/>
        <pt x="72" y="1595" on="1"/>
        <pt x="281" y="1595" on="1"/>
      </contour>
      <contour>
        <pt x="296" y="1180" on="1"/>
        <pt x="296" y="0" on="1"/>
        <pt x="122" y="0" on="1"/>
        <pt x="122" y="1180" on="1"/>
      </contour>
    </TTGlyph>
    <TTGlyph name="f" xMin="67" yMin="0" xMax="835" yMax="1659">
      <contour>
        <pt x="447" y="1324" on="1"/>
        <pt x="452" y="1169" on="1"/>
        <pt x="800" y="1169" on="1"/>
        <pt x="800" y="1064" on="1"/>
        <pt x="452" y="1064" on="1"/>
        <pt x="452" y="0" on="1"/>
        <pt x="262" y="0" on="1"/>
        <pt x="262" y="1064" on="1"/>
        <pt x="67" y="1064" on="1"/>
        <pt x="67" y="1169" on="1"/>
        <pt x="262" y="1169" on="1"/>
        <pt x="262" y="1370" on="0"/>
        <pt x="296" y="1468" on="1"/>
        <pt x="328" y="1562" on="0"/>
        <pt x="394" y="1606" on="1"/>
        <pt x="471" y="1658" on="0"/>
        <pt x="593" y="1659" on="1"/>
        <pt x="710" y="1659" on="0"/>
        <pt x="835" y="1567" on="1"/>
        <pt x="772" y="1442" on="1"/>
        <pt x="690" y="1516" on="0"/>
        <pt x="564" y="1516" on="0"/>
        <pt x="494" y="1487" on="0"/>
        <pt x="476" y="1459" on="1"/>
        <pt x="446" y="1412" on="0"/>
      </contour>
    </TTGlyph>
    <TTGlyph name="five" xMin="58" yMin="-207" xMax="930" yMax="1169">
      <contour>
        <pt x="441" y="-56" on="1"/>
        <pt x="758" y="-56" on="0"/>
        <pt x="758" y="244" on="1"/>
        <pt x="758" y="391" on="0"/>
        <pt x="607" y="562" on="0"/>
        <pt x="461" y="562" on="1"/>
        <pt x="354" y="562" on="0"/>
        <pt x="162" y="468" on="1"/>
        <pt x="94" y="537" on="1"/>
        <pt x="94" y="1169" on="1"/>
        <pt x="842" y="1169" on="1"/>
        <pt x="842" y="1018" on="1"/>
        <pt x="239" y="1018" on="1"/>
        <pt x="239" y="622" on="1"/>
        <pt x="274" y="661" on="0"/>
        <pt x="415" y="698" on="0"/>
        <pt x="479" y="698" on="1"/>
        <pt x="681" y="698" on="0"/>
        <pt x="930" y="450" on="0"/>
        <pt x="930" y="30" on="0"/>
        <pt x="659" y="-207" on="0"/>
        <pt x="439" y="-207" on="1"/>
        <pt x="343" y="-207" on="0"/>
        <pt x="177" y="-162" on="0"/>
        <pt x="58" y="-114" on="1"/>
        <pt x="109" y="31" on="1"/>
        <pt x="280" y="-56" on="0"/>
      </contour>
    </TTGlyph>
    <TTGlyph name="four" xMin="110" yMin="-260" xMax="1142" yMax="1208">
      <contour>
        <pt x="794" y="1208" on="1"/>
        <pt x="956" y="1169" on="1"/>
        <pt x="956" y="207" on="1"/>
        <pt x="1142" y="207" on="1"/>
        <pt x="1142" y="68" on="1"/>
        <pt x="956" y="68" on="1"/>
        <pt x="956" y="-260" on="1"/>
        <pt x="785" y="-260" on="1"/>
        <pt x="785" y="68" on="1"/>
        <pt x="138" y="68" on="1"/>
        <pt x="110" y="205" on="1"/>
      </contour>
      <contour>
        <pt x="785" y="930" on="1"/>
        <pt x="295" y="205" on="1"/>
        <pt x="785" y="205" on="1"/>
      </contour>
    </TTGlyph>
    <TTGlyph name="g" xMin="82" yMin="-427" xMax="1144" yMax="1190">
      <contour>
        <pt x="240" y="-149" on="0"/>
        <pt x="265" y="-207" on="0"/>
        <pt x="316" y="-242" on="0"/>
        <pt x="395" y="-277" on="0"/>
        <pt x="539" y="-277" on="1"/>
        <pt x="605" y="-277" on="1"/>
        <pt x="639" y="-277" on="0"/>
        <pt x="710" y="-274" on="1"/>
        <pt x="780" y="-272" on="0"/>
        <pt x="856" y="-243" on="1"/>
        <pt x="954" y="-206" on="0"/>
        <pt x="954" y="-111" on="1"/>
        <pt x="954" y="-15" on="0"/>
        <pt x="890" y="31" on="1"/>
        <pt x="827" y="76" on="0"/>
        <pt x="659" y="76" on="1"/>
        <pt x="337" y="76" on="1"/>
        <pt x="291" y="47" on="0"/>
        <pt x="240" y="-54" on="0"/>
      </contour>
      <contour>
        <pt x="279" y="756" on="0"/>
        <pt x="382" y="587" on="0"/>
        <pt x="462" y="552" on="1"/>
        <pt x="515" y="552" on="0"/>
        <pt x="651" y="583" on="1"/>
        <pt x="704" y="596" on="0"/>
        <pt x="752" y="638" on="1"/>
        <pt x="822" y="699" on="0"/>
        <pt x="822" y="860" on="1"/>
        <pt x="822" y="956" on="0"/>
        <pt x="770" y="1004" on="1"/>
        <pt x="710" y="1058" on="0"/>
        <pt x="555" y="1058" on="1"/>
        <pt x="440" y="1058" on="0"/>
        <pt x="364" y="1014" on="1"/>
        <pt x="324" y="990" on="0"/>
        <pt x="279" y="904" on="0"/>
      </contour>
      <contour>
        <pt x="575" y="217" on="1"/>
        <pt x="715" y="217" on="0"/>
        <pt x="829" y="196" on="1"/>
        <pt x="894" y="184" on="0"/>
        <pt x="992" y="138" on="0"/>
        <pt x="1073" y="69" on="0"/>
        <pt x="1116" y="-38" on="0"/>
        <pt x="1116" y="-182" on="0"/>
        <pt x="1045" y="-300" on="0"/>
        <pt x="938" y="-368" on="0"/>
        <pt x="792" y="-412" on="0"/>
        <pt x="661" y="-427" on="0"/>
        <pt x="573" y="-427" on="1"/>
        <pt x="486" y="-427" on="0"/>
        <pt x="398" y="-416" on="1"/>
        <pt x="82" y="-376" on="0"/>
        <pt x="82" y="-125" on="1"/>
        <pt x="82" y="32" on="0"/>
        <pt x="248" y="107" on="1"/>
        <pt x="195" y="143" on="0"/>
        <pt x="129" y="258" on="0"/>
        <pt x="129" y="396" on="0"/>
        <pt x="238" y="509" on="0"/>
        <pt x="315" y="521" on="1"/>
        <pt x="222" y="562" on="0"/>
        <pt x="118" y="747" on="0"/>
        <pt x="118" y="990" on="0"/>
        <pt x="214" y="1074" on="1"/>
        <pt x="347" y="1190" on="0"/>
        <pt x="559" y="1190" on="1"/>
        <pt x="741" y="1190" on="0"/>
        <pt x="839" y="1114" on="1"/>
        <pt x="906" y="1149" on="0"/>
        <pt x="1045" y="1170" on="0"/>
        <pt x="1144" y="1171" on="1"/>
        <pt x="1144" y="1026" on="1"/>
        <pt x="906" y="1026" on="1"/>
        <pt x="989" y="977" on="0"/>
        <pt x="989" y="803" on="1"/>
        <pt x="988" y="629" on="0"/>
        <pt x="876" y="544" on="1"/>
        <pt x="826" y="506" on="0"/>
        <pt x="696" y="454" on="0"/>
        <pt x="561" y="434" on="0"/>
        <pt x="431" y="414" on="0"/>
        <pt x="330" y="397" on="0"/>
        <pt x="268" y="355" on="0"/>
        <pt x="268" y="279" on="0"/>
        <pt x="289" y="210" on="1"/>
      </contour>
    </TTGlyph>
    <TTGlyph name="germandbls" xMin="110" yMin="-129" xMax="1255" yMax="1579">
      <contour>
        <pt x="862" y="1019" on="0"/>
        <pt x="901" y="1127" on="0"/>
        <pt x="901" y="1258" on="0"/>
        <pt x="866" y="1344" on="0"/>
        <pt x="808" y="1395" on="0"/>
        <pt x="765" y="1410" on="1"/>
        <pt x="690" y="1436" on="0"/>
        <pt x="513" y="1436" on="0"/>
        <pt x="416" y="1408" on="0"/>
        <pt x="357" y="1342" on="0"/>
        <pt x="322" y="1282" on="0"/>
        <pt x="315" y="1224" on="1"/>
        <pt x="305" y="1140" on="0"/>
        <pt x="305" y="1018" on="1"/>
        <pt x="305" y="16" on="1"/>
        <pt x="111" y="-6" on="1"/>
        <pt x="110" y="1046" on="1"/>
        <pt x="110" y="1450" on="0"/>
        <pt x="356" y="1544" on="1"/>
        <pt x="448" y="1580" on="0"/>
        <pt x="580" y="1579" on="1"/>
        <pt x="1073" y="1579" on="0"/>
        <pt x="1073" y="1176" on="1"/>
        <pt x="1073" y="996" on="0"/>
        <pt x="968" y="904" on="1"/>
        <pt x="911" y="854" on="0"/>
        <pt x="827" y="844" on="1"/>
        <pt x="1028" y="844" on="0"/>
        <pt x="1255" y="598" on="0"/>
        <pt x="1255" y="395" on="1"/>
        <pt x="1255" y="270" on="0"/>
        <pt x="1159" y="80" on="0"/>
        <pt x="1084" y="24" on="1"/>
        <pt x="1010" y="-32" on="0"/>
        <pt x="904" y="-68" on="1"/>
        <pt x="724" y="-128" on="0"/>
        <pt x="481" y="-129" on="1"/>
        <pt x="481" y="27" on="1"/>
        <pt x="730" y="27" on="0"/>
        <pt x="848" y="70" on="1"/>
        <pt x="960" y="111" on="0"/>
        <pt x="1012" y="190" on="1"/>
        <pt x="1074" y="284" on="0"/>
        <pt x="1073" y="432" on="1"/>
        <pt x="1072" y="626" on="0"/>
        <pt x="902" y="704" on="1"/>
        <pt x="766" y="766" on="0"/>
        <pt x="560" y="772" on="1"/>
        <pt x="512" y="774" on="0"/>
        <pt x="449" y="774" on="1"/>
        <pt x="449" y="905" on="1"/>
        <pt x="507" y="903" on="0"/>
        <pt x="601" y="903" on="0"/>
        <pt x="702" y="916" on="0"/>
        <pt x="799" y="955" on="0"/>
      </contour>
    </TTGlyph>
    <TTGlyph name="glyph113" xMin="88" yMin="98" xMax="770" yMax="215">
      <contour>
        <pt x="770" y="98" on="1"/>
        <pt x="88" y="98" on="1"/>
        <pt x="88" y="215" on="1"/>
        <pt x="770" y="215" on="1"/>
      </contour>
    </TTGlyph>
    <TTGlyph name="grave" xMin="29" yMin="330" xMax="424" yMax="974">
      <contour>
        <pt x="424" y="356" on="1"/>
        <pt x="357" y="330" on="1"/>
        <pt x="29" y="885" on="1"/>
        <pt x="271" y="974" on="1"/>
      </contour>
    </TTGlyph>
    <TTGlyph name="greater" xMin="-27" yMin="60" xMax="730" yMax="1266">
      <contour>
        <pt x="730" y="663" on="1"/>
        <pt x="75" y="60" on="1"/>
        <pt x="-27" y="170" on="1"/>
        <pt x="524" y="663" on="1"/>
        <pt x="-27" y="1156" on="1"/>
        <pt x="75" y="1266" on="1"/>
      </contour>
    </TTGlyph>
    <TTGlyph name="guillemotleft" xMin="15" yMin="99" xMax="1231" yMax="1049">
      <contour>
        <pt x="1231" y="842" on="1"/>
        <pt x="794" y="577" on="1"/>
        <pt x="1231" y="306" on="1"/>
        <pt x="1231" y="99" on="1"/>
        <pt x="623" y="481" on="1"/>
        <pt x="623" y="666" on="1"/>
        <pt x="1231" y="1049" on="1"/>
      </contour>
      <contour>
        <pt x="623" y="842" on="1"/>
        <pt x="187" y="577" on="1"/>
        <pt x="623" y="306" on="1"/>
        <pt x="623" y="99" on="1"/>
        <pt x="15" y="481" on="1"/>
        <pt x="15" y="666" on="1"/>
        <pt x="623" y="1049" on="1"/>
      </contour>
    </TTGlyph>
    <TTGlyph name="guillemotright" xMin="59" yMin="99" xMax="1275" yMax="1049">
      <contour>
        <pt x="59" y="842" on="1"/>
        <pt x="59" y="1049" on="1"/>
        <pt x="668" y="666" on="1"/>
        <pt x="668" y="481" on="1"/>
        <pt x="59" y="99" on="1"/>
        <pt x="59" y="306" on="1"/>
        <pt x="506" y="577" on="1"/>
      </contour>
      <contour>
        <pt x="666" y="842" on="1"/>
        <pt x="666" y="1049" on="1"/>
        <pt x="1275" y="666" on="1"/>
        <pt x="1275" y="481" on="1"/>
        <pt x="666" y="99" on="1"/>
        <pt x="666" y="306" on="1"/>
        <pt x="1113" y="577" on="1"/>
      </contour>
    </TTGlyph>
    <TTGlyph name="guilsinglleft" xMin="88" yMin="107" xMax="745" yMax="1133">
      <contour>
        <pt x="745" y="909" on="1"/>
        <pt x="262" y="623" on="1"/>
        <pt x="745" y="330" on="1"/>
        <pt x="745" y="107" on="1"/>
        <pt x="88" y="519" on="1"/>
        <pt x="88" y="719" on="1"/>
        <pt x="745" y="1133" on="1"/>
      </contour>
    </TTGlyph>
    <TTGlyph name="guilsinglright" xMin="88" yMin="107" xMax="745" yMax="1133">
      <contour>
        <pt x="88" y="1133" on="1"/>
        <pt x="745" y="719" on="1"/>
        <pt x="745" y="519" on="1"/>
        <pt x="88" y="107" on="1"/>
        <pt x="88" y="330" on="1"/>
        <pt x="570" y="623" on="1"/>
        <pt x="88" y="909" on="1"/>
      </contour>
    </TTGlyph>
    <TTGlyph name="h" xMin="123" yMin="0" xMax="1110" yMax="1616">
      <contour>
        <pt x="669" y="1047" on="1"/>
        <pt x="594" y="1047" on="0"/>
        <pt x="377" y="956" on="0"/>
        <pt x="313" y="888" on="1"/>
        <pt x="313" y="0" on="1"/>
        <pt x="123" y="0" on="1"/>
        <pt x="123" y="1579" on="1"/>
        <pt x="313" y="1616" on="1"/>
        <pt x="313" y="1011" on="1"/>
        <pt x="405" y="1095" on="0"/>
        <pt x="590" y="1190" on="0"/>
        <pt x="702" y="1190" on="1"/>
        <pt x="915" y="1190" on="0"/>
        <pt x="1110" y="953" on="0"/>
        <pt x="1110" y="727" on="1"/>
        <pt x="1110" y="0" on="1"/>
        <pt x="920" y="0" on="1"/>
        <pt x="920" y="727" on="1"/>
        <pt x="920" y="905" on="0"/>
        <pt x="854" y="982" on="1"/>
        <pt x="798" y="1047" on="0"/>
      </contour>
    </TTGlyph>
    <TTGlyph name="hyphen" xMin="123" yMin="508" xMax="799" yMax="665">
      <contour>
        <pt x="799" y="508" on="1"/>
        <pt x="123" y="508" on="1"/>
        <pt x="123" y="665" on="1"/>
        <pt x="799" y="665" on="1"/>
      </contour>
    </TTGlyph>
    <TTGlyph name="i" xMin="125" yMin="0" xMax="345" yMax="1577">
      <contour>
        <pt x="324" y="0" on="1"/>
        <pt x="142" y="0" on="1"/>
        <pt x="142" y="1169" on="1"/>
        <pt x="324" y="1169" on="1"/>
      </contour>
      <contour>
        <pt x="125" y="1509" on="0"/>
        <pt x="190" y="1577" on="0"/>
        <pt x="285" y="1577" on="0"/>
        <pt x="345" y="1510" on="0"/>
        <pt x="345" y="1414" on="0"/>
        <pt x="285" y="1347" on="0"/>
        <pt x="189" y="1347" on="0"/>
        <pt x="125" y="1414" on="0"/>
      </contour>
    </TTGlyph>
    <TTGlyph name="iacute" xMin="224" yMin="0" xMax="678" yMax="1929">
      <component glyphName=".ttfautohint" x="224" y="0" flags="0x0"/>
      <component glyphName="acutecomb" x="-202" y="-347" flags="0x1004"/>
      <component glyphName="dotlessi" x="0" y="0" flags="0x1204"/>
    </TTGlyph>
    <TTGlyph name="icircumflex" xMin="-25" yMin="0" xMax="655" yMax="1871">
      <component glyphName=".ttfautohint" x="0" y="0" flags="0x0"/>
      <component glyphName="circumflex" x="-399" y="860" flags="0x1004"/>
      <component glyphName="dotlessi" x="0" y="0" flags="0x1204"/>
    </TTGlyph>
    <TTGlyph name="idieresis" xMin="-40" yMin="0" xMax="670" yMax="1522">
      <component glyphName=".ttfautohint" x="0" y="0" flags="0x0"/>
      <component glyphName="dieresis" x="-101" y="911" flags="0x1004"/>
      <component glyphName="dotlessi" x="0" y="0" flags="0x1204"/>
    </TTGlyph>
    <TTGlyph name="igrave" xMin="-47" yMin="0" xMax="406" yMax="1936">
      <component glyphName=".ttfautohint" x="0" y="0" flags="0x0"/>
      <component glyphName="grave" x="-76" y="962" flags="0x1004"/>
      <component glyphName="dotlessi" x="0" y="0" flags="0x1204"/>
    </TTGlyph>
    <TTGlyph name="imacron" xMin="-26" yMin="0" xMax="656" yMax="1409">
      <component glyphName=".ttfautohint" x="0" y="0" flags="0x0"/>
      <component glyphName="glyph113" x="-114" y="1194" flags="0x1004"/>
      <component glyphName="dotlessi" x="0" y="0" flags="0x1204"/>
    </TTGlyph>
    <TTGlyph name="itilde" xMin="-65" yMin="0" xMax="695" yMax="1556">
      <component glyphName=".ttfautohint" x="0" y="0" flags="0x0"/>
      <component glyphName="tilde" x="-536" y="257" flags="0x1004"/>
      <component glyphName="dotlessi" x="0" y="0" flags="0x1204"/>
    </TTGlyph>
    <TTGlyph name="j" xMin="93" yMin="-373" xMax="483" yMax="1577">
      <contour>
        <pt x="93" y="-258" on="1"/>
        <pt x="234" y="-166" on="0"/>
        <pt x="264" y="-26" on="1"/>
        <pt x="280" y="53" on="0"/>
        <pt x="281" y="176" on="1"/>
        <pt x="281" y="1169" on="1"/>
        <pt x="471" y="1169" on="1"/>
        <pt x="471" y="154" on="1"/>
        <pt x="471" y="-22" on="0"/>
        <pt x="395" y="-170" on="1"/>
        <pt x="357" y="-244" on="0"/>
        <pt x="226" y="-352" on="0"/>
        <pt x="140" y="-373" on="1"/>
      </contour>
      <contour>
        <pt x="263" y="1509" on="0"/>
        <pt x="328" y="1577" on="0"/>
        <pt x="423" y="1577" on="0"/>
        <pt x="483" y="1510" on="0"/>
        <pt x="483" y="1414" on="0"/>
        <pt x="423" y="1347" on="0"/>
        <pt x="327" y="1347" on="0"/>
        <pt x="263" y="1414" on="0"/>
      </contour>
    </TTGlyph>
    <TTGlyph name="jcircumflex" xMin="-52" yMin="-373" xMax="628" yMax="2258">
      <component glyphName=".ttfautohint" x="0" y="0" flags="0x0"/>
      <component glyphName="circumflex" x="-426" y="1247" flags="0x1004"/>
      <component glyphName="j" x="0" y="0" flags="0x1204"/>
    </TTGlyph>
    <TTGlyph name="k" xMin="125" yMin="0" xMax="1132" yMax="1614">
      <contour>
        <pt x="1099" y="1169" on="1"/>
        <pt x="546" y="648" on="1"/>
        <pt x="1132" y="0" on="1"/>
        <pt x="911" y="0" on="1"/>
        <pt x="431" y="555" on="1"/>
        <pt x="315" y="459" on="1"/>
        <pt x="315" y="0" on="1"/>
        <pt x="125" y="0" on="1"/>
        <pt x="125" y="1579" on="1"/>
        <pt x="315" y="1614" on="1"/>
        <pt x="315" y="627" on="1"/>
        <pt x="874" y="1169" on="1"/>
      </contour>
    </TTGlyph>
    <TTGlyph name="kcommaaccent" xMin="125" yMin="-648" xMax="1132" yMax="1614">
      <component glyphName=".ttfautohint" x="125" y="0" flags="0x0"/>
      <component glyphName="comma" x="367" y="-395" flags="0x1004"/>
      <component glyphName="k" x="0" y="0" flags="0x1204"/>
    </TTGlyph>
    <TTGlyph name="l" xMin="123" yMin="0" xMax="313" yMax="1614">
      <contour>
        <pt x="123" y="0" on="1"/>
        <pt x="123" y="1579" on="1"/>
        <pt x="313" y="1614" on="1"/>
        <pt x="313" y="0" on="1"/>
      </contour>
    </TTGlyph>
    <TTGlyph name="less" xMin="52" yMin="60" xMax="809" yMax="1266">
      <contour>
        <pt x="52" y="663" on="1"/>
        <pt x="707" y="1266" on="1"/>
        <pt x="809" y="1156" on="1"/>
        <pt x="258" y="663" on="1"/>
        <pt x="809" y="170" on="1"/>
        <pt x="707" y="60" on="1"/>
      </contour>
    </TTGlyph>
    <TTGlyph name="logicalnot" xMin="1" yMin="338" xMax="1355" yMax="1174">
      <contour>
        <pt x="1355" y="338" on="1"/>
        <pt x="1179" y="338" on="1"/>
        <pt x="1179" y="1023" on="1"/>
        <pt x="1" y="1023" on="1"/>
        <pt x="1" y="1174" on="1"/>
        <pt x="1355" y="1174" on="1"/>
      </contour>
    </TTGlyph>
    <TTGlyph name="m" xMin="123" yMin="0" xMax="1781" yMax="1190">
      <contour>
        <pt x="1005" y="967" on="1"/>
        <pt x="1074" y="1068" on="0"/>
        <pt x="1303" y="1190" on="0"/>
        <pt x="1515" y="1190" on="0"/>
        <pt x="1655" y="1122" on="0"/>
        <pt x="1697" y="1062" on="1"/>
        <pt x="1781" y="943" on="0"/>
        <pt x="1781" y="766" on="1"/>
        <pt x="1781" y="0" on="1"/>
        <pt x="1591" y="0" on="1"/>
        <pt x="1591" y="768" on="1"/>
        <pt x="1592" y="928" on="0"/>
        <pt x="1540" y="990" on="1"/>
        <pt x="1493" y="1046" on="0"/>
        <pt x="1397" y="1047" on="1"/>
        <pt x="1216" y="1047" on="0"/>
        <pt x="1035" y="858" on="1"/>
        <pt x="1035" y="0" on="1"/>
        <pt x="845" y="0" on="1"/>
        <pt x="845" y="768" on="1"/>
        <pt x="845" y="931" on="0"/>
        <pt x="795" y="991" on="1"/>
        <pt x="748" y="1047" on="0"/>
        <pt x="653" y="1047" on="1"/>
        <pt x="500" y="1047" on="0"/>
        <pt x="313" y="860" on="1"/>
        <pt x="313" y="0" on="1"/>
        <pt x="123" y="0" on="1"/>
        <pt x="123" y="1169" on="1"/>
        <pt x="264" y="1169" on="1"/>
        <pt x="291" y="963" on="1"/>
        <pt x="355" y="1065" on="0"/>
        <pt x="566" y="1190" on="0"/>
        <pt x="799" y="1190" on="0"/>
        <pt x="970" y="1074" on="0"/>
      </contour>
    </TTGlyph>
    <TTGlyph name="macron" xMin="551" yMin="1007" xMax="1011" yMax="1131">
      <contour>
        <pt x="1011" y="1131" on="1"/>
        <pt x="1009" y="1007" on="1"/>
        <pt x="551" y="1007" on="1"/>
        <pt x="553" y="1131" on="1"/>
      </contour>
    </TTGlyph>
    <TTGlyph name="multiply" xMin="24" yMin="127" xMax="862" yMax="965">
      <contour>
        <pt x="24" y="863" on="1"/>
        <pt x="126" y="965" on="1"/>
        <pt x="443" y="648" on="1"/>
        <pt x="760" y="965" on="1"/>
        <pt x="862" y="863" on="1"/>
        <pt x="545" y="546" on="1"/>
        <pt x="862" y="229" on="1"/>
        <pt x="760" y="127" on="1"/>
        <pt x="443" y="444" on="1"/>
        <pt x="126" y="127" on="1"/>
        <pt x="24" y="229" on="1"/>
        <pt x="341" y="546" on="1"/>
      </contour>
    </TTGlyph>
    <TTGlyph name="n" xMin="123" yMin="0" xMax="1107" yMax="1188">
      <contour>
        <pt x="313" y="880" on="1"/>
        <pt x="313" y="0" on="1"/>
        <pt x="123" y="0" on="1"/>
        <pt x="123" y="1169" on="1"/>
        <pt x="263" y="1169" on="1"/>
        <pt x="287" y="982" on="1"/>
        <pt x="356" y="1069" on="0"/>
        <pt x="621" y="1188" on="0"/>
        <pt x="836" y="1188" on="0"/>
        <pt x="983" y="1115" on="0"/>
        <pt x="1025" y="1050" on="1"/>
        <pt x="1107" y="923" on="0"/>
        <pt x="1107" y="727" on="1"/>
        <pt x="1107" y="0" on="1"/>
        <pt x="917" y="0" on="1"/>
        <pt x="917" y="727" on="1"/>
        <pt x="916" y="902" on="0"/>
        <pt x="854" y="980" on="1"/>
        <pt x="801" y="1046" on="0"/>
        <pt x="613" y="1047" on="0"/>
        <pt x="378" y="940" on="0"/>
      </contour>
    </TTGlyph>
    <TTGlyph name="nacute" xMin="123" yMin="0" xMax="1107" yMax="1929">
      <component glyphName=".ttfautohint" x="123" y="0" flags="0x0"/>
      <component glyphName="acutecomb" x="98" y="-347" flags="0x1004"/>
      <component glyphName="n" x="0" y="0" flags="0x1204"/>
    </TTGlyph>
    <TTGlyph name="nine" xMin="115" yMin="-161" xMax="1120" yMax="1314">
      <contour>
        <pt x="291" y="681" on="0"/>
        <pt x="443" y="501" on="0"/>
        <pt x="581" y="501" on="1"/>
        <pt x="663" y="501" on="0"/>
        <pt x="889" y="580" on="0"/>
        <pt x="936" y="635" on="1"/>
        <pt x="942" y="675" on="0"/>
        <pt x="942" y="896" on="0"/>
        <pt x="898" y="996" on="1"/>
        <pt x="822" y="1172" on="0"/>
        <pt x="615" y="1172" on="1"/>
        <pt x="464" y="1172" on="0"/>
        <pt x="291" y="976" on="0"/>
      </contour>
      <contour>
        <pt x="1120" y="733" on="1"/>
        <pt x="1120" y="395" on="0"/>
        <pt x="735" y="-84" on="0"/>
        <pt x="405" y="-161" on="1"/>
        <pt x="362" y="-16" on="1"/>
        <pt x="573" y="27" on="0"/>
        <pt x="884" y="306" on="0"/>
        <pt x="922" y="509" on="1"/>
        <pt x="802" y="365" on="0"/>
        <pt x="373" y="365" on="0"/>
        <pt x="115" y="615" on="0"/>
        <pt x="115" y="1044" on="0"/>
        <pt x="392" y="1314" on="0"/>
        <pt x="615" y="1314" on="1"/>
        <pt x="874" y="1314" on="0"/>
        <pt x="1000" y="1146" on="1"/>
        <pt x="1120" y="986" on="0"/>
      </contour>
    </TTGlyph>
    <TTGlyph name="ntilde" xMin="123" yMin="0" xMax="1107" yMax="1576">
      <component glyphName=".ttfautohint" x="123" y="0" flags="0x0"/>
      <component glyphName="n" x="0" y="0" flags="0x1204"/>
      <component glyphName="asciitilde" x="177" y="922" flags="0x1004"/>
    </TTGlyph>
    <TTGlyph name="numbersign" xMin="106" yMin="295" xMax="950" yMax="1309">
      <contour>
        <pt x="599" y="561" on="1"/>
        <pt x="413" y="561" on="1"/>
        <pt x="380" y="295" on="1"/>
        <pt x="239" y="295" on="1"/>
        <pt x="272" y="561" on="1"/>
        <pt x="106" y="561" on="1"/>
        <pt x="106" y="684" on="1"/>
        <pt x="282" y="684" on="1"/>
        <pt x="309" y="905" on="1"/>
        <pt x="134" y="905" on="1"/>
        <pt x="134" y="1030" on="1"/>
        <pt x="323" y="1030" on="1"/>
        <pt x="354" y="1309" on="1"/>
        <pt x="493" y="1309" on="1"/>
        <pt x="462" y="1030" on="1"/>
        <pt x="651" y="1030" on="1"/>
        <pt x="679" y="1307" on="1"/>
        <pt x="821" y="1307" on="1"/>
        <pt x="790" y="1030" on="1"/>
        <pt x="950" y="1030" on="1"/>
        <pt x="950" y="905" on="1"/>
        <pt x="778" y="905" on="1"/>
        <pt x="751" y="684" on="1"/>
        <pt x="927" y="684" on="1"/>
        <pt x="927" y="561" on="1"/>
        <pt x="739" y="561" on="1"/>
        <pt x="708" y="295" on="1"/>
        <pt x="567" y="295" on="1"/>
      </contour>
      <contour>
        <pt x="425" y="684" on="1"/>
        <pt x="608" y="684" on="1"/>
        <pt x="634" y="905" on="1"/>
        <pt x="452" y="905" on="1"/>
      </contour>
    </TTGlyph>
    <TTGlyph name="o" xMin="112" yMin="-20" xMax="1173" yMax="1190">
      <contour>
        <pt x="294" y="655" on="0"/>
        <pt x="294" y="509" on="0"/>
        <pt x="314" y="381" on="0"/>
        <pt x="364" y="258" on="0"/>
        <pt x="402" y="214" on="1"/>
        <pt x="487" y="117" on="0"/>
        <pt x="642" y="117" on="1"/>
        <pt x="866" y="116" on="0"/>
        <pt x="946" y="318" on="1"/>
        <pt x="990" y="430" on="0"/>
        <pt x="990" y="582" on="1"/>
        <pt x="990" y="932" on="0"/>
        <pt x="782" y="1024" on="1"/>
        <pt x="721" y="1051" on="0"/>
        <pt x="563" y="1051" on="0"/>
        <pt x="441" y="997" on="0"/>
        <pt x="364" y="908" on="0"/>
        <pt x="314" y="784" on="0"/>
      </contour>
      <contour>
        <pt x="112" y="455" on="0"/>
        <pt x="112" y="709" on="0"/>
        <pt x="178" y="926" on="0"/>
        <pt x="306" y="1094" on="0"/>
        <pt x="511" y="1190" on="0"/>
        <pt x="773" y="1190" on="0"/>
        <pt x="979" y="1094" on="0"/>
        <pt x="1107" y="927" on="0"/>
        <pt x="1173" y="709" on="0"/>
        <pt x="1173" y="455" on="0"/>
        <pt x="1107" y="239" on="0"/>
        <pt x="979" y="74" on="0"/>
        <pt x="773" y="-20" on="0"/>
        <pt x="511" y="-20" on="0"/>
        <pt x="306" y="74" on="0"/>
        <pt x="178" y="239" on="0"/>
      </contour>
    </TTGlyph>
    <TTGlyph name="oacute" xMin="112" yMin="-20" xMax="1173" yMax="1929">
      <component glyphName=".ttfautohint" x="112" y="0" flags="0x0"/>
      <component glyphName="acutecomb" x="125" y="-347" flags="0x1004"/>
      <component glyphName="o" x="0" y="0" flags="0x1204"/>
    </TTGlyph>
    <TTGlyph name="ocircumflex" xMin="112" yMin="-20" xMax="1173" yMax="1871">
      <component glyphName=".ttfautohint" x="112" y="0" flags="0x0"/>
      <component glyphName="circumflex" x="-72" y="860" flags="0x1004"/>
      <component glyphName="o" x="0" y="0" flags="0x1204"/>
    </TTGlyph>
    <TTGlyph name="odieresis" xMin="112" yMin="-20" xMax="1173" yMax="1522">
      <component glyphName=".ttfautohint" x="112" y="0" flags="0x0"/>
      <component glyphName="dieresis" x="226" y="911" flags="0x1004"/>
      <component glyphName="o" x="0" y="0" flags="0x1204"/>
    </TTGlyph>
    <TTGlyph name="oe" xMin="126" yMin="-23" xMax="1962" yMax="1190">
      <contour>
        <pt x="1095" y="961" on="1"/>
        <pt x="1230" y="1190" on="0"/>
        <pt x="1519" y="1190" on="1"/>
        <pt x="1734" y="1190" on="0"/>
        <pt x="1962" y="909" on="0"/>
        <pt x="1962" y="676" on="1"/>
        <pt x="1962" y="633" on="0"/>
        <pt x="1954" y="567" on="1"/>
        <pt x="1194" y="567" on="1"/>
        <pt x="1194" y="238" on="0"/>
        <pt x="1374" y="158" on="1"/>
        <pt x="1442" y="128" on="0"/>
        <pt x="1540" y="127" on="1"/>
        <pt x="1710" y="127" on="0"/>
        <pt x="1846" y="244" on="1"/>
        <pt x="1908" y="99" on="1"/>
        <pt x="1844" y="52" on="0"/>
        <pt x="1620" y="-23" on="0"/>
        <pt x="1528" y="-23" on="1"/>
        <pt x="1230" y="-23" on="0"/>
        <pt x="1094" y="204" on="1"/>
        <pt x="956" y="-20" on="0"/>
        <pt x="656" y="-20" on="1"/>
        <pt x="483" y="-20" on="0"/>
        <pt x="362" y="58" on="1"/>
        <pt x="126" y="209" on="0"/>
        <pt x="126" y="582" on="1"/>
        <pt x="126" y="956" on="0"/>
        <pt x="363" y="1111" on="1"/>
        <pt x="484" y="1190" on="0"/>
        <pt x="656" y="1190" on="1"/>
        <pt x="957" y="1190" on="0"/>
      </contour>
      <contour>
        <pt x="656" y="117" on="1"/>
        <pt x="750" y="117" on="0"/>
        <pt x="888" y="188" on="0"/>
        <pt x="928" y="252" on="1"/>
        <pt x="1004" y="377" on="0"/>
        <pt x="1004" y="582" on="1"/>
        <pt x="1004" y="941" on="0"/>
        <pt x="792" y="1027" on="1"/>
        <pt x="732" y="1051" on="0"/>
        <pt x="562" y="1051" on="0"/>
        <pt x="424" y="979" on="0"/>
        <pt x="384" y="913" on="1"/>
        <pt x="308" y="785" on="0"/>
        <pt x="308" y="582" on="1"/>
        <pt x="308" y="248" on="0"/>
        <pt x="493" y="152" on="1"/>
        <pt x="562" y="116" on="0"/>
      </contour>
      <contour>
        <pt x="1794" y="717" on="1"/>
        <pt x="1794" y="1057" on="0"/>
        <pt x="1520" y="1057" on="1"/>
        <pt x="1359" y="1057" on="0"/>
        <pt x="1194" y="857" on="0"/>
        <pt x="1194" y="682" on="1"/>
        <pt x="1794" y="682" on="1"/>
      </contour>
    </TTGlyph>
    <TTGlyph name="ograve" xMin="112" yMin="-20" xMax="1173" yMax="1936">
      <component glyphName=".ttfautohint" x="112" y="0" flags="0x0"/>
      <component glyphName="grave" x="252" y="962" flags="0x1004"/>
      <component glyphName="o" x="0" y="0" flags="0x1204"/>
    </TTGlyph>
    <TTGlyph name="one" xMin="88" yMin="0" xMax="535" yMax="1202">
      <contour>
        <pt x="348" y="0" on="1"/>
        <pt x="348" y="1057" on="1"/>
        <pt x="141" y="957" on="1"/>
        <pt x="88" y="1083" on="1"/>
        <pt x="345" y="1202" on="1"/>
        <pt x="535" y="1202" on="1"/>
        <pt x="535" y="0" on="1"/>
      </contour>
    </TTGlyph>
    <TTGlyph name="onehalf" xMin="-50" yMin="-172" xMax="1626" yMax="1529">
      <contour>
        <pt x="1192" y="-20" on="1"/>
        <pt x="1598" y="-20" on="1"/>
        <pt x="1598" y="-172" on="1"/>
        <pt x="960" y="-172" on="1"/>
        <pt x="960" y="-35" on="1"/>
        <pt x="977" y="-20" on="0"/>
        <pt x="1084" y="67" on="0"/>
        <pt x="1183" y="149" on="0"/>
        <pt x="1305" y="263" on="0"/>
        <pt x="1349" y="313" on="1"/>
        <pt x="1454" y="432" on="0"/>
        <pt x="1454" y="587" on="0"/>
        <pt x="1343" y="655" on="0"/>
        <pt x="1168" y="655" on="0"/>
        <pt x="977" y="603" on="1"/>
        <pt x="977" y="748" on="1"/>
        <pt x="1108" y="798" on="0"/>
        <pt x="1283" y="798" on="1"/>
        <pt x="1421" y="798" on="0"/>
        <pt x="1520" y="730" on="1"/>
        <pt x="1626" y="658" on="0"/>
        <pt x="1626" y="517" on="1"/>
        <pt x="1626" y="370" on="0"/>
        <pt x="1464" y="210" on="1"/>
        <pt x="1410" y="157" on="0"/>
        <pt x="1216" y="0" on="0"/>
      </contour>
      <contour>
        <pt x="20" y="-30" on="1"/>
        <pt x="1059" y="1365" on="1"/>
        <pt x="1181" y="1272" on="1"/>
        <pt x="140" y="-123" on="1"/>
      </contour>
      <contour>
        <pt x="158" y="568" on="1"/>
        <pt x="158" y="1413" on="1"/>
        <pt x="-12" y="1341" on="1"/>
        <pt x="-50" y="1434" on="1"/>
        <pt x="188" y="1529" on="1"/>
        <pt x="318" y="1503" on="1"/>
        <pt x="318" y="568" on="1"/>
      </contour>
    </TTGlyph>
    <TTGlyph name="onequarter" xMin="-50" yMin="-250" xMax="1468" yMax="1529">
      <contour>
        <pt x="1189" y="946" on="1"/>
        <pt x="1317" y="915" on="1"/>
        <pt x="1317" y="145" on="1"/>
        <pt x="1468" y="145" on="1"/>
        <pt x="1468" y="34" on="1"/>
        <pt x="1317" y="34" on="1"/>
        <pt x="1317" y="-227" on="1"/>
        <pt x="1172" y="-250" on="1"/>
        <pt x="1172" y="34" on="1"/>
        <pt x="647" y="34" on="1"/>
        <pt x="625" y="144" on="1"/>
      </contour>
      <contour>
        <pt x="784" y="144" on="1"/>
        <pt x="1172" y="144" on="1"/>
        <pt x="1172" y="703" on="1"/>
        <pt x="989" y="421" on="0"/>
      </contour>
      <contour>
        <pt x="158" y="568" on="1"/>
        <pt x="158" y="1413" on="1"/>
        <pt x="-12" y="1341" on="1"/>
        <pt x="-50" y="1434" on="1"/>
        <pt x="188" y="1529" on="1"/>
        <pt x="318" y="1503" on="1"/>
        <pt x="318" y="568" on="1"/>
      </contour>
      <contour>
        <pt x="20" y="-30" on="1"/>
        <pt x="1059" y="1365" on="1"/>
        <pt x="1181" y="1272" on="1"/>
        <pt x="140" y="-123" on="1"/>
      </contour>
    </TTGlyph>
    <TTGlyph name="ordfeminine" xMin="57" yMin="446" xMax="811" yMax="1638">
      <contour>
        <pt x="121" y="575" on="1"/>
        <pt x="805" y="575" on="1"/>
        <pt x="805" y="446" on="1"/>
        <pt x="121" y="446" on="1"/>
      </contour>
      <contour>
        <pt x="218" y="865" on="0"/>
        <pt x="305" y="781" on="0"/>
        <pt x="478" y="781" on="0"/>
        <pt x="611" y="849" on="0"/>
        <pt x="650" y="903" on="1"/>
        <pt x="650" y="1141" on="1"/>
        <pt x="540" y="1158" on="0"/>
        <pt x="474" y="1158" on="1"/>
        <pt x="218" y="1158" on="0"/>
        <pt x="218" y="971" on="1"/>
      </contour>
      <contour>
        <pt x="458" y="1513" on="1"/>
        <pt x="296" y="1513" on="0"/>
        <pt x="167" y="1443" on="1"/>
        <pt x="114" y="1552" on="1"/>
        <pt x="183" y="1592" on="0"/>
        <pt x="367" y="1638" on="0"/>
        <pt x="557" y="1638" on="0"/>
        <pt x="698" y="1590" on="0"/>
        <pt x="738" y="1538" on="1"/>
        <pt x="810" y="1444" on="0"/>
        <pt x="811" y="1235" on="1"/>
        <pt x="811" y="686" on="1"/>
        <pt x="695" y="686" on="1"/>
        <pt x="668" y="828" on="1"/>
        <pt x="634" y="752" on="0"/>
        <pt x="464" y="668" on="0"/>
        <pt x="374" y="668" on="1"/>
        <pt x="230" y="668" on="0"/>
        <pt x="57" y="819" on="0"/>
        <pt x="57" y="960" on="1"/>
        <pt x="57" y="1178" on="0"/>
        <pt x="280" y="1240" on="1"/>
        <pt x="343" y="1258" on="0"/>
        <pt x="532" y="1258" on="0"/>
        <pt x="650" y="1218" on="1"/>
        <pt x="650" y="1276" on="1"/>
        <pt x="650" y="1393" on="0"/>
        <pt x="599" y="1483" on="0"/>
        <pt x="520" y="1513" on="0"/>
      </contour>
    </TTGlyph>
    <TTGlyph name="ordmasculine" xMin="55" yMin="446" xMax="904" yMax="1638">
      <contour>
        <pt x="141" y="575" on="1"/>
        <pt x="825" y="575" on="1"/>
        <pt x="825" y="446" on="1"/>
        <pt x="141" y="446" on="1"/>
      </contour>
      <contour>
        <pt x="227" y="1309" on="0"/>
        <pt x="212" y="1210" on="0"/>
        <pt x="212" y="1083" on="0"/>
        <pt x="238" y="963" on="0"/>
        <pt x="267" y="910" on="1"/>
        <pt x="329" y="797" on="0"/>
        <pt x="479" y="797" on="1"/>
        <pt x="649" y="797" on="0"/>
        <pt x="712" y="952" on="1"/>
        <pt x="746" y="1036" on="0"/>
        <pt x="746" y="1210" on="0"/>
        <pt x="731" y="1308" on="0"/>
        <pt x="692" y="1403" on="0"/>
        <pt x="633" y="1471" on="0"/>
        <pt x="539" y="1512" on="0"/>
        <pt x="419" y="1512" on="0"/>
        <pt x="324" y="1471" on="0"/>
        <pt x="265" y="1404" on="0"/>
      </contour>
      <contour>
        <pt x="145" y="802" on="0"/>
        <pt x="55" y="1015" on="0"/>
        <pt x="55" y="1253" on="0"/>
        <pt x="108" y="1427" on="0"/>
        <pt x="159" y="1494" on="1"/>
        <pt x="269" y="1638" on="0"/>
        <pt x="479" y="1638" on="1"/>
        <pt x="690" y="1638" on="0"/>
        <pt x="800" y="1494" on="1"/>
        <pt x="904" y="1358" on="0"/>
        <pt x="904" y="946" on="0"/>
        <pt x="800" y="811" on="1"/>
        <pt x="691" y="670" on="0"/>
        <pt x="479" y="670" on="1"/>
        <pt x="340" y="670" on="0"/>
      </contour>
    </TTGlyph>
    <TTGlyph name="oslash" xMin="35" yMin="-198" xMax="1096" yMax="1365">
      <contour>
        <pt x="261" y="-168" on="1"/>
        <pt x="328" y="28" on="1"/>
        <pt x="176" y="101" on="0"/>
        <pt x="35" y="397" on="0"/>
        <pt x="35" y="709" on="0"/>
        <pt x="101" y="926" on="0"/>
        <pt x="228" y="1094" on="0"/>
        <pt x="434" y="1190" on="0"/>
        <pt x="650" y="1190" on="0"/>
        <pt x="723" y="1170" on="1"/>
        <pt x="790" y="1365" on="1"/>
        <pt x="871" y="1335" on="1"/>
        <pt x="804" y="1140" on="1"/>
        <pt x="955" y="1063" on="0"/>
        <pt x="1096" y="766" on="0"/>
        <pt x="1096" y="582" on="1"/>
        <pt x="1096" y="262" on="0"/>
        <pt x="908" y="96" on="1"/>
        <pt x="777" y="-20" on="0"/>
        <pt x="565" y="-20" on="1"/>
        <pt x="483" y="-20" on="0"/>
        <pt x="415" y="-2" on="1"/>
        <pt x="349" y="-198" on="1"/>
      </contour>
      <contour>
        <pt x="217" y="582" on="1"/>
        <pt x="217" y="279" on="0"/>
        <pt x="377" y="169" on="1"/>
        <pt x="676" y="1035" on="1"/>
        <pt x="628" y="1051" on="0"/>
        <pt x="486" y="1051" on="0"/>
        <pt x="364" y="997" on="0"/>
        <pt x="287" y="908" on="0"/>
        <pt x="262" y="846" on="1"/>
        <pt x="217" y="734" on="0"/>
      </contour>
      <contour>
        <pt x="460" y="130" on="1"/>
        <pt x="504" y="117" on="0"/>
        <pt x="644" y="117" on="0"/>
        <pt x="767" y="170" on="0"/>
        <pt x="806" y="214" on="1"/>
        <pt x="844" y="256" on="0"/>
        <pt x="868" y="318" on="1"/>
        <pt x="912" y="430" on="0"/>
        <pt x="913" y="582" on="1"/>
        <pt x="913" y="885" on="0"/>
        <pt x="755" y="996" on="1"/>
      </contour>
    </TTGlyph>
    <TTGlyph name="otilde" xMin="112" yMin="-20" xMax="1173" yMax="1556">
      <component glyphName=".ttfautohint" x="112" y="0" flags="0x0"/>
      <component glyphName="tilde" x="-208" y="257" flags="0x1004"/>
      <component glyphName="o" x="0" y="0" flags="0x1204"/>
    </TTGlyph>
    <TTGlyph name="p" xMin="126" yMin="-487" xMax="1144" yMax="1190">
      <contour>
        <pt x="674" y="-20" on="1"/>
        <pt x="574" y="-20" on="0"/>
        <pt x="384" y="81" on="0"/>
        <pt x="316" y="164" on="1"/>
        <pt x="316" y="-465" on="1"/>
        <pt x="126" y="-487" on="1"/>
        <pt x="126" y="1169" on="1"/>
        <pt x="267" y="1169" on="1"/>
        <pt x="300" y="971" on="1"/>
        <pt x="371" y="1066" on="0"/>
        <pt x="567" y="1190" on="0"/>
        <pt x="774" y="1190" on="0"/>
        <pt x="935" y="1121" on="0"/>
        <pt x="1041" y="1005" on="0"/>
        <pt x="1077" y="926" on="1"/>
        <pt x="1144" y="779" on="0"/>
        <pt x="1144" y="584" on="1"/>
        <pt x="1144" y="281" on="0"/>
        <pt x="986" y="108" on="1"/>
        <pt x="870" y="-20" on="0"/>
      </contour>
      <contour>
        <pt x="945" y="358" on="0"/>
        <pt x="962" y="475" on="0"/>
        <pt x="962" y="598" on="0"/>
        <pt x="955" y="697" on="0"/>
        <pt x="935" y="819" on="0"/>
        <pt x="894" y="916" on="0"/>
        <pt x="864" y="958" on="1"/>
        <pt x="799" y="1047" on="0"/>
        <pt x="675" y="1047" on="1"/>
        <pt x="592" y="1047" on="0"/>
        <pt x="374" y="951" on="0"/>
        <pt x="316" y="890" on="1"/>
        <pt x="316" y="285" on="1"/>
        <pt x="365" y="223" on="0"/>
        <pt x="580" y="117" on="0"/>
        <pt x="726" y="117" on="0"/>
        <pt x="835" y="166" on="0"/>
        <pt x="902" y="245" on="0"/>
      </contour>
    </TTGlyph>
    <TTGlyph name="paragraph" xMin="-33" yMin="0" xMax="967" yMax="1578">
      <contour>
        <pt x="501" y="1578" on="1"/>
        <pt x="501" y="1578" on="0"/>
        <pt x="967" y="1578" on="1"/>
        <pt x="967" y="0" on="1"/>
        <pt x="781" y="0" on="1"/>
        <pt x="781" y="1428" on="1"/>
        <pt x="646" y="1428" on="1"/>
        <pt x="646" y="0" on="1"/>
        <pt x="456" y="0" on="1"/>
        <pt x="456" y="905" on="1"/>
        <pt x="302" y="904" on="0"/>
        <pt x="185" y="946" on="1"/>
        <pt x="119" y="970" on="0"/>
        <pt x="26" y="1045" on="0"/>
        <pt x="-33" y="1169" on="0"/>
        <pt x="-33" y="1270" on="1"/>
        <pt x="-32" y="1370" on="0"/>
        <pt x="32" y="1447" on="1"/>
        <pt x="142" y="1578" on="0"/>
      </contour>
    </TTGlyph>
    <TTGlyph name="parenleft" xMin="3" yMin="-205" xMax="491" yMax="1595">
      <contour>
        <pt x="491" y="1493" on="1"/>
        <pt x="390" y="1404" on="0"/>
        <pt x="320" y="1264" on="1"/>
        <pt x="189" y="1001" on="0"/>
        <pt x="189" y="694" on="1"/>
        <pt x="190" y="490" on="0"/>
        <pt x="254" y="268" on="1"/>
        <pt x="286" y="156" on="0"/>
        <pt x="401" y="-40" on="0"/>
        <pt x="475" y="-97" on="1"/>
        <pt x="392" y="-205" on="1"/>
        <pt x="293" y="-142" on="0"/>
        <pt x="139" y="73" on="0"/>
        <pt x="49" y="324" on="0"/>
        <pt x="3" y="577" on="0"/>
        <pt x="3" y="815" on="0"/>
        <pt x="48" y="1066" on="0"/>
        <pt x="136" y="1311" on="0"/>
        <pt x="285" y="1527" on="0"/>
        <pt x="380" y="1595" on="1"/>
      </contour>
    </TTGlyph>
    <TTGlyph name="parenright" xMin="-21" yMin="-205" xMax="468" yMax="1599">
      <contour>
        <pt x="281" y="694" on="1"/>
        <pt x="281" y="1002" on="0"/>
        <pt x="160" y="1264" on="1"/>
        <pt x="93" y="1410" on="0"/>
        <pt x="-4" y="1491" on="1"/>
        <pt x="79" y="1599" on="1"/>
        <pt x="177" y="1532" on="0"/>
        <pt x="254" y="1426" on="1"/>
        <pt x="330" y="1320" on="0"/>
        <pt x="376" y="1200" on="1"/>
        <pt x="468" y="955" on="0"/>
        <pt x="468" y="710" on="1"/>
        <pt x="468" y="448" on="0"/>
        <pt x="380" y="206" on="1"/>
        <pt x="283" y="-64" on="0"/>
        <pt x="79" y="-205" on="1"/>
        <pt x="-21" y="-99" on="1"/>
        <pt x="126" y="28" on="0"/>
        <pt x="281" y="476" on="0"/>
      </contour>
    </TTGlyph>
    <TTGlyph name="percent" xMin="59" yMin="-22" xMax="1612" yMax="1497">
      <contour>
        <pt x="1103" y="89" on="0"/>
        <pt x="1479" y="89" on="0"/>
        <pt x="1479" y="692" on="0"/>
        <pt x="1103" y="692" on="0"/>
      </contour>
      <contour>
        <pt x="970" y="459" on="0"/>
        <pt x="1001" y="602" on="0"/>
        <pt x="1071" y="726" on="0"/>
        <pt x="1201" y="796" on="0"/>
        <pt x="1381" y="796" on="0"/>
        <pt x="1511" y="726" on="0"/>
        <pt x="1581" y="602" on="0"/>
        <pt x="1612" y="459" on="0"/>
        <pt x="1612" y="351" on="1"/>
        <pt x="1612" y="242" on="0"/>
        <pt x="1564" y="146" on="1"/>
        <pt x="1481" y="-22" on="0"/>
        <pt x="1291" y="-21" on="1"/>
        <pt x="1128" y="-21" on="0"/>
        <pt x="1046" y="101" on="1"/>
        <pt x="1008" y="157" on="0"/>
        <pt x="970" y="295" on="0"/>
      </contour>
      <contour>
        <pt x="192" y="788" on="0"/>
        <pt x="568" y="788" on="0"/>
        <pt x="568" y="1391" on="0"/>
        <pt x="192" y="1391" on="0"/>
      </contour>
      <contour>
        <pt x="59" y="1158" on="0"/>
        <pt x="90" y="1301" on="0"/>
        <pt x="160" y="1425" on="0"/>
        <pt x="290" y="1495" on="0"/>
        <pt x="470" y="1495" on="0"/>
        <pt x="600" y="1425" on="0"/>
        <pt x="670" y="1301" on="0"/>
        <pt x="701" y="1158" on="0"/>
        <pt x="701" y="942" on="0"/>
        <pt x="653" y="846" on="1"/>
        <pt x="570" y="678" on="0"/>
        <pt x="380" y="678" on="1"/>
        <pt x="216" y="678" on="0"/>
        <pt x="134" y="800" on="1"/>
        <pt x="96" y="856" on="0"/>
        <pt x="59" y="994" on="0"/>
      </contour>
      <contour>
        <pt x="425" y="37" on="1"/>
        <pt x="1107" y="1497" on="1"/>
        <pt x="1236" y="1430" on="1"/>
        <pt x="555" y="-22" on="1"/>
      </contour>
    </TTGlyph>
    <TTGlyph name="period" xMin="118" yMin="-17" xMax="338" yMax="213">
      <contour>
        <pt x="118" y="145" on="0"/>
        <pt x="183" y="213" on="0"/>
        <pt x="278" y="213" on="0"/>
        <pt x="338" y="146" on="0"/>
        <pt x="338" y="50" on="0"/>
        <pt x="278" y="-17" on="0"/>
        <pt x="182" y="-17" on="0"/>
        <pt x="118" y="50" on="0"/>
      </contour>
    </TTGlyph>
    <TTGlyph name="periodcentered" xMin="61" yMin="535" xMax="281" yMax="765">
      <contour>
        <pt x="61" y="697" on="0"/>
        <pt x="126" y="765" on="0"/>
        <pt x="221" y="765" on="0"/>
        <pt x="281" y="698" on="0"/>
        <pt x="281" y="602" on="0"/>
        <pt x="221" y="535" on="0"/>
        <pt x="125" y="535" on="0"/>
        <pt x="61" y="602" on="0"/>
      </contour>
    </TTGlyph>
    <TTGlyph name="plus" xMin="118" yMin="174" xMax="886" yMax="995">
      <contour>
        <pt x="886" y="518" on="1"/>
        <pt x="572" y="518" on="1"/>
        <pt x="572" y="174" on="1"/>
        <pt x="431" y="174" on="1"/>
        <pt x="431" y="518" on="1"/>
        <pt x="118" y="518" on="1"/>
        <pt x="118" y="651" on="1"/>
        <pt x="431" y="651" on="1"/>
        <pt x="431" y="995" on="1"/>
        <pt x="572" y="995" on="1"/>
        <pt x="572" y="651" on="1"/>
        <pt x="886" y="651" on="1"/>
      </contour>
    </TTGlyph>
    <TTGlyph name="plusminus" xMin="51" yMin="-55" xMax="819" yMax="995">
      <contour>
        <pt x="819" y="518" on="1"/>
        <pt x="505" y="518" on="1"/>
        <pt x="505" y="174" on="1"/>
        <pt x="364" y="174" on="1"/>
        <pt x="364" y="518" on="1"/>
        <pt x="51" y="518" on="1"/>
        <pt x="51" y="651" on="1"/>
        <pt x="364" y="651" on="1"/>
        <pt x="364" y="995" on="1"/>
        <pt x="505" y="995" on="1"/>
        <pt x="505" y="651" on="1"/>
        <pt x="819" y="651" on="1"/>
      </contour>
      <contour>
        <pt x="786" y="-55" on="1"/>
        <pt x="85" y="-55" on="1"/>
        <pt x="85" y="88" on="1"/>
        <pt x="786" y="88" on="1"/>
      </contour>
    </TTGlyph>
    <TTGlyph name="q" xMin="109" yMin="-502" xMax="1126" yMax="1190">
      <contour>
        <pt x="311" y="1120" on="0"/>
        <pt x="471" y="1190" on="0"/>
        <pt x="679" y="1190" on="0"/>
        <pt x="890" y="1065" on="0"/>
        <pt x="953" y="971" on="1"/>
        <pt x="987" y="1169" on="1"/>
        <pt x="1126" y="1169" on="1"/>
        <pt x="1126" y="-479" on="1"/>
        <pt x="936" y="-502" on="1"/>
        <pt x="936" y="164" on="1"/>
        <pt x="871" y="81" on="0"/>
        <pt x="681" y="-20" on="0"/>
        <pt x="481" y="-20" on="0"/>
        <pt x="320" y="49" on="0"/>
        <pt x="214" y="165" on="0"/>
        <pt x="141" y="322" on="0"/>
        <pt x="109" y="492" on="0"/>
        <pt x="109" y="676" on="0"/>
        <pt x="138" y="845" on="0"/>
        <pt x="208" y="1003" on="0"/>
      </contour>
      <contour>
        <pt x="291" y="584" on="1"/>
        <pt x="292" y="239" on="0"/>
        <pt x="456" y="147" on="1"/>
        <pt x="510" y="117" on="0"/>
        <pt x="666" y="117" on="0"/>
        <pt x="875" y="205" on="0"/>
        <pt x="936" y="268" on="1"/>
        <pt x="936" y="891" on="1"/>
        <pt x="872" y="955" on="0"/>
        <pt x="659" y="1047" on="0"/>
        <pt x="570" y="1047" on="1"/>
        <pt x="291" y="1047" on="0"/>
      </contour>
    </TTGlyph>
    <TTGlyph name="question" xMin="31" yMin="-40" xMax="920" yMax="1579">
      <contour>
        <pt x="386" y="675" on="1"/>
        <pt x="386" y="292" on="1"/>
        <pt x="206" y="292" on="1"/>
        <pt x="206" y="777" on="1"/>
        <pt x="404" y="844" on="0"/>
        <pt x="495" y="892" on="1"/>
        <pt x="728" y="1018" on="0"/>
        <pt x="729" y="1197" on="1"/>
        <pt x="729" y="1354" on="0"/>
        <pt x="597" y="1396" on="1"/>
        <pt x="529" y="1418" on="0"/>
        <pt x="433" y="1418" on="1"/>
        <pt x="228" y="1418" on="0"/>
        <pt x="90" y="1332" on="1"/>
        <pt x="31" y="1475" on="1"/>
        <pt x="114" y="1523" on="0"/>
        <pt x="339" y="1579" on="0"/>
        <pt x="513" y="1579" on="0"/>
        <pt x="647" y="1558" on="0"/>
        <pt x="775" y="1506" on="0"/>
        <pt x="820" y="1466" on="1"/>
        <pt x="920" y="1377" on="0"/>
        <pt x="920" y="1216" on="1"/>
        <pt x="920" y="887" on="0"/>
        <pt x="498" y="717" on="1"/>
        <pt x="448" y="697" on="0"/>
      </contour>
      <contour>
        <pt x="392" y="21" on="0"/>
        <pt x="330" y="-40" on="0"/>
        <pt x="243" y="-40" on="0"/>
        <pt x="183" y="26" on="0"/>
        <pt x="183" y="112" on="0"/>
        <pt x="249" y="169" on="0"/>
        <pt x="332" y="169" on="0"/>
        <pt x="392" y="105" on="0"/>
      </contour>
    </TTGlyph>
    <TTGlyph name="questiondown" xMin="17" yMin="-114" xMax="906" yMax="1505">
      <contour>
        <pt x="551" y="790" on="1"/>
        <pt x="551" y="1173" on="1"/>
        <pt x="731" y="1173" on="1"/>
        <pt x="731" y="688" on="1"/>
        <pt x="543" y="623" on="0"/>
        <pt x="464" y="583" on="1"/>
        <pt x="208" y="455" on="0"/>
        <pt x="208" y="268" on="1"/>
        <pt x="208" y="110" on="0"/>
        <pt x="339" y="68" on="1"/>
        <pt x="407" y="46" on="0"/>
        <pt x="504" y="47" on="1"/>
        <pt x="710" y="47" on="0"/>
        <pt x="847" y="133" on="1"/>
        <pt x="906" y="-10" on="1"/>
        <pt x="827" y="-58" on="0"/>
        <pt x="599" y="-114" on="0"/>
        <pt x="424" y="-114" on="0"/>
        <pt x="290" y="-93" on="0"/>
        <pt x="162" y="-41" on="0"/>
        <pt x="117" y="-1" on="1"/>
        <pt x="17" y="88" on="0"/>
        <pt x="17" y="249" on="1"/>
        <pt x="18" y="442" on="0"/>
        <pt x="146" y="568" on="1"/>
        <pt x="226" y="646" on="0"/>
        <pt x="308" y="687" on="1"/>
        <pt x="420" y="743" on="0"/>
      </contour>
      <contour>
        <pt x="545" y="1444" on="0"/>
        <pt x="607" y="1505" on="0"/>
        <pt x="694" y="1505" on="0"/>
        <pt x="754" y="1439" on="0"/>
        <pt x="754" y="1354" on="0"/>
        <pt x="688" y="1296" on="0"/>
        <pt x="605" y="1296" on="0"/>
        <pt x="545" y="1359" on="0"/>
      </contour>
    </TTGlyph>
    <TTGlyph name="quotedbl" xMin="114" yMin="1058" xMax="682" yMax="1579">
      <contour>
        <pt x="681" y="1579" on="1"/>
        <pt x="682" y="1531" on="1"/>
        <pt x="682" y="1515" on="0"/>
        <pt x="681" y="1508" on="1"/>
        <pt x="621" y="1058" on="1"/>
        <pt x="513" y="1058" on="1"/>
        <pt x="453" y="1508" on="1"/>
        <pt x="452" y="1515" on="0"/>
        <pt x="452" y="1531" on="1"/>
        <pt x="453" y="1579" on="1"/>
      </contour>
      <contour>
        <pt x="343" y="1579" on="1"/>
        <pt x="344" y="1531" on="1"/>
        <pt x="344" y="1515" on="0"/>
        <pt x="343" y="1508" on="1"/>
        <pt x="283" y="1058" on="1"/>
        <pt x="175" y="1058" on="1"/>
        <pt x="115" y="1508" on="1"/>
        <pt x="114" y="1515" on="0"/>
        <pt x="114" y="1531" on="1"/>
        <pt x="115" y="1579" on="1"/>
      </contour>
    </TTGlyph>
    <TTGlyph name="quotedblbase" xMin="319" yMin="-273" xMax="1021" yMax="316">
      <contour>
        <pt x="718" y="0" on="1"/>
        <pt x="718" y="316" on="1"/>
        <pt x="1021" y="316" on="1"/>
        <pt x="1021" y="48" on="1"/>
        <pt x="1021" y="-202" on="0"/>
        <pt x="774" y="-273" on="1"/>
        <pt x="719" y="-172" on="1"/>
        <pt x="791" y="-147" on="0"/>
        <pt x="859" y="-76" on="0"/>
        <pt x="859" y="0" on="1"/>
      </contour>
      <contour>
        <pt x="319" y="0" on="1"/>
        <pt x="319" y="316" on="1"/>
        <pt x="623" y="316" on="1"/>
        <pt x="623" y="48" on="1"/>
        <pt x="623" y="-202" on="0"/>
        <pt x="375" y="-273" on="1"/>
        <pt x="320" y="-172" on="1"/>
        <pt x="392" y="-147" on="0"/>
        <pt x="461" y="-76" on="0"/>
        <pt x="461" y="0" on="1"/>
      </contour>
    </TTGlyph>
    <TTGlyph name="quotedblleft" xMin="155" yMin="1148" xMax="857" yMax="1738">
      <contour>
        <pt x="857" y="1464" on="1"/>
        <pt x="857" y="1148" on="1"/>
        <pt x="554" y="1148" on="1"/>
        <pt x="554" y="1417" on="1"/>
        <pt x="554" y="1667" on="0"/>
        <pt x="801" y="1738" on="1"/>
        <pt x="856" y="1636" on="1"/>
        <pt x="783" y="1611" on="0"/>
        <pt x="716" y="1541" on="0"/>
        <pt x="716" y="1464" on="1"/>
      </contour>
      <contour>
        <pt x="459" y="1464" on="1"/>
        <pt x="459" y="1148" on="1"/>
        <pt x="155" y="1148" on="1"/>
        <pt x="155" y="1417" on="1"/>
        <pt x="155" y="1667" on="0"/>
        <pt x="403" y="1738" on="1"/>
        <pt x="458" y="1636" on="1"/>
        <pt x="409" y="1619" on="0"/>
        <pt x="382" y="1603" on="1"/>
        <pt x="317" y="1564" on="0"/>
        <pt x="317" y="1464" on="1"/>
      </contour>
    </TTGlyph>
    <TTGlyph name="quotedblright" xMin="123" yMin="1116" xMax="825" yMax="1705">
      <contour>
        <pt x="521" y="1389" on="1"/>
        <pt x="521" y="1705" on="1"/>
        <pt x="825" y="1705" on="1"/>
        <pt x="825" y="1436" on="1"/>
        <pt x="825" y="1187" on="0"/>
        <pt x="578" y="1116" on="1"/>
        <pt x="523" y="1217" on="1"/>
        <pt x="595" y="1242" on="0"/>
        <pt x="663" y="1313" on="0"/>
        <pt x="663" y="1389" on="1"/>
      </contour>
      <contour>
        <pt x="123" y="1389" on="1"/>
        <pt x="123" y="1705" on="1"/>
        <pt x="426" y="1705" on="1"/>
        <pt x="426" y="1436" on="1"/>
        <pt x="426" y="1187" on="0"/>
        <pt x="179" y="1116" on="1"/>
        <pt x="124" y="1217" on="1"/>
        <pt x="196" y="1242" on="0"/>
        <pt x="264" y="1313" on="0"/>
        <pt x="264" y="1389" on="1"/>
      </contour>
    </TTGlyph>
    <TTGlyph name="quoteleft" xMin="74" yMin="356" xMax="501" yMax="1052">
      <contour>
        <pt x="501" y="384" on="1"/>
        <pt x="429" y="356" on="1"/>
        <pt x="74" y="956" on="1"/>
        <pt x="336" y="1052" on="1"/>
      </contour>
    </TTGlyph>
    <TTGlyph name="quoteright" xMin="125" yMin="1116" xMax="429" yMax="1705">
      <contour>
        <pt x="125" y="1389" on="1"/>
        <pt x="125" y="1705" on="1"/>
        <pt x="429" y="1705" on="1"/>
        <pt x="429" y="1436" on="1"/>
        <pt x="429" y="1187" on="0"/>
        <pt x="181" y="1116" on="1"/>
        <pt x="126" y="1217" on="1"/>
        <pt x="198" y="1242" on="0"/>
        <pt x="267" y="1313" on="0"/>
        <pt x="267" y="1389" on="1"/>
      </contour>
    </TTGlyph>
    <TTGlyph name="quotesinglbase" xMin="247" yMin="-273" xMax="550" yMax="316">
      <contour>
        <pt x="247" y="0" on="1"/>
        <pt x="247" y="316" on="1"/>
        <pt x="550" y="316" on="1"/>
        <pt x="550" y="48" on="1"/>
        <pt x="550" y="-202" on="0"/>
        <pt x="303" y="-273" on="1"/>
        <pt x="248" y="-172" on="1"/>
        <pt x="320" y="-147" on="0"/>
        <pt x="388" y="-76" on="0"/>
        <pt x="388" y="0" on="1"/>
      </contour>
    </TTGlyph>
    <TTGlyph name="quotesingle" xMin="60" yMin="1058" xMax="290" yMax="1579">
      <contour>
        <pt x="289" y="1579" on="1"/>
        <pt x="290" y="1531" on="1"/>
        <pt x="290" y="1515" on="0"/>
        <pt x="289" y="1508" on="1"/>
        <pt x="229" y="1058" on="1"/>
        <pt x="121" y="1058" on="1"/>
        <pt x="61" y="1508" on="1"/>
        <pt x="60" y="1515" on="0"/>
        <pt x="60" y="1531" on="1"/>
        <pt x="61" y="1579" on="1"/>
      </contour>
    </TTGlyph>
    <TTGlyph name="r" xMin="123" yMin="0" xMax="718" yMax="1190">
      <contour>
        <pt x="618" y="1190" on="1"/>
        <pt x="675" y="1190" on="0"/>
        <pt x="718" y="1178" on="1"/>
        <pt x="718" y="1026" on="1"/>
        <pt x="698" y="1030" on="0"/>
        <pt x="578" y="1030" on="0"/>
        <pt x="369" y="947" on="0"/>
        <pt x="313" y="894" on="1"/>
        <pt x="313" y="0" on="1"/>
        <pt x="123" y="0" on="1"/>
        <pt x="123" y="1169" on="1"/>
        <pt x="266" y="1169" on="1"/>
        <pt x="296" y="977" on="1"/>
        <pt x="460" y="1190" on="0"/>
      </contour>
    </TTGlyph>
    <TTGlyph name="rcaron" xMin="80" yMin="0" xMax="760" yMax="1871">
      <component glyphName=".ttfautohint" x="80" y="0" flags="0x0"/>
      <component glyphName="caron" x="-294" y="861" flags="0x1004"/>
      <component glyphName="r" x="0" y="0" flags="0x1204"/>
    </TTGlyph>
    <TTGlyph name="rcommaaccent" xMin="123" yMin="-648" xMax="718" yMax="1190">
      <component glyphName=".ttfautohint" x="123" y="0" flags="0x0"/>
      <component glyphName="comma" x="159" y="-395" flags="0x1004"/>
      <component glyphName="r" x="0" y="0" flags="0x1204"/>
    </TTGlyph>
    <TTGlyph name="registered" xMin="28" yMin="542" xMax="1207" yMax="1674">
      <contour>
        <pt x="594" y="1150" on="1"/>
        <pt x="704" y="1150" on="0"/>
        <pt x="730" y="1201" on="1"/>
        <pt x="742" y="1223" on="0"/>
        <pt x="742" y="1256" on="1"/>
        <pt x="742" y="1326" on="0"/>
        <pt x="579" y="1326" on="1"/>
        <pt x="546" y="1326" on="1"/>
        <pt x="546" y="1150" on="1"/>
      </contour>
      <contour>
        <pt x="816" y="1340" on="1"/>
        <pt x="846" y="1308" on="0"/>
        <pt x="846" y="1180" on="0"/>
        <pt x="766" y="1107" on="0"/>
        <pt x="680" y="1086" on="1"/>
        <pt x="860" y="836" on="1"/>
        <pt x="846" y="831" on="0"/>
        <pt x="760" y="785" on="1"/>
        <pt x="586" y="1068" on="1"/>
        <pt x="543" y="1068" on="1"/>
        <pt x="543" y="807" on="1"/>
        <pt x="437" y="807" on="1"/>
        <pt x="437" y="1408" on="1"/>
        <pt x="557" y="1408" on="1"/>
        <pt x="750" y="1408" on="0"/>
      </contour>
      <contour>
        <pt x="1045" y="687" on="0"/>
        <pt x="775" y="542" on="0"/>
        <pt x="458" y="542" on="0"/>
        <pt x="189" y="687" on="0"/>
        <pt x="28" y="948" on="0"/>
        <pt x="28" y="1267" on="0"/>
        <pt x="190" y="1528" on="0"/>
        <pt x="460" y="1674" on="0"/>
        <pt x="775" y="1674" on="0"/>
        <pt x="1045" y="1529" on="0"/>
        <pt x="1207" y="1267" on="0"/>
        <pt x="1207" y="948" on="0"/>
      </contour>
      <contour>
        <pt x="265" y="759" on="0"/>
        <pt x="484" y="641" on="0"/>
        <pt x="747" y="641" on="0"/>
        <pt x="968" y="760" on="0"/>
        <pt x="1099" y="974" on="0"/>
        <pt x="1099" y="1106" on="1"/>
        <pt x="1099" y="1306" on="0"/>
        <pt x="817" y="1572" on="0"/>
        <pt x="616" y="1572" on="1"/>
        <pt x="484" y="1572" on="0"/>
        <pt x="265" y="1452" on="0"/>
        <pt x="136" y="1237" on="0"/>
        <pt x="136" y="972" on="0"/>
      </contour>
    </TTGlyph>
    <TTGlyph name="ring" xMin="612" yMin="1035" xMax="1096" yMax="1515">
      <contour>
        <pt x="854" y="1035" on="1"/>
        <pt x="746" y="1035" on="0"/>
        <pt x="612" y="1167" on="0"/>
        <pt x="612" y="1383" on="0"/>
        <pt x="746" y="1515" on="0"/>
        <pt x="962" y="1515" on="0"/>
        <pt x="1096" y="1383" on="0"/>
        <pt x="1096" y="1167" on="0"/>
        <pt x="962" y="1035" on="0"/>
      </contour>
      <contour>
        <pt x="709" y="1211" on="0"/>
        <pt x="790" y="1126" on="0"/>
        <pt x="917" y="1126" on="0"/>
        <pt x="999" y="1211" on="0"/>
        <pt x="999" y="1339" on="0"/>
        <pt x="917" y="1424" on="0"/>
        <pt x="790" y="1424" on="0"/>
        <pt x="709" y="1339" on="0"/>
      </contour>
    </TTGlyph>
    <TTGlyph name="s" xMin="89" yMin="-20" xMax="921" yMax="1190">
      <contour>
        <pt x="99" y="100" on="1"/>
        <pt x="163" y="245" on="1"/>
        <pt x="227" y="190" on="0"/>
        <pt x="410" y="117" on="0"/>
        <pt x="536" y="117" on="0"/>
        <pt x="578" y="126" on="1"/>
        <pt x="620" y="136" on="0"/>
        <pt x="660" y="156" on="1"/>
        <pt x="748" y="201" on="0"/>
        <pt x="749" y="314" on="1"/>
        <pt x="749" y="431" on="0"/>
        <pt x="618" y="485" on="1"/>
        <pt x="560" y="509" on="0"/>
        <pt x="419" y="548" on="0"/>
        <pt x="278" y="598" on="0"/>
        <pt x="162" y="669" on="0"/>
        <pt x="89" y="800" on="0"/>
        <pt x="89" y="967" on="0"/>
        <pt x="161" y="1086" on="0"/>
        <pt x="220" y="1120" on="1"/>
        <pt x="339" y="1190" on="0"/>
        <pt x="486" y="1190" on="1"/>
        <pt x="569" y="1190" on="0"/>
        <pt x="810" y="1116" on="0"/>
        <pt x="868" y="1067" on="1"/>
        <pt x="806" y="924" on="1"/>
        <pt x="660" y="1042" on="0"/>
        <pt x="497" y="1042" on="1"/>
        <pt x="249" y="1042" on="0"/>
        <pt x="249" y="880" on="1"/>
        <pt x="248" y="794" on="0"/>
        <pt x="382" y="745" on="1"/>
        <pt x="442" y="723" on="0"/>
        <pt x="585" y="680" on="0"/>
        <pt x="728" y="620" on="0"/>
        <pt x="847" y="539" on="0"/>
        <pt x="921" y="400" on="0"/>
        <pt x="921" y="221" on="0"/>
        <pt x="883" y="155" on="1"/>
        <pt x="844" y="89" on="0"/>
        <pt x="780" y="52" on="1"/>
        <pt x="654" y="-20" on="0"/>
        <pt x="483" y="-20" on="1"/>
        <pt x="397" y="-20" on="0"/>
        <pt x="160" y="51" on="0"/>
      </contour>
    </TTGlyph>
    <TTGlyph name="sacute" xMin="89" yMin="-20" xMax="921" yMax="1929">
      <component glyphName=".ttfautohint" x="89" y="0" flags="0x0"/>
      <component glyphName="acutecomb" x="-12" y="-347" flags="0x1004"/>
      <component glyphName="s" x="0" y="0" flags="0x1204"/>
    </TTGlyph>
    <TTGlyph name="scaron" xMin="89" yMin="-20" xMax="921" yMax="1871">
      <component glyphName=".ttfautohint" x="89" y="0" flags="0x0"/>
      <component glyphName="caron" x="-209" y="861" flags="0x1004"/>
      <component glyphName="s" x="0" y="0" flags="0x1204"/>
    </TTGlyph>
    <TTGlyph name="section" xMin="79" yMin="-96" xMax="869" yMax="1569">
      <contour>
        <pt x="89" y="20" on="1"/>
        <pt x="150" y="158" on="1"/>
        <pt x="204" y="110" on="0"/>
        <pt x="367" y="50" on="0"/>
        <pt x="489" y="50" on="0"/>
        <pt x="572" y="65" on="0"/>
        <pt x="612" y="83" on="1"/>
        <pt x="700" y="122" on="0"/>
        <pt x="700" y="223" on="1"/>
        <pt x="700" y="313" on="0"/>
        <pt x="622" y="361" on="1"/>
        <pt x="565" y="396" on="0"/>
        <pt x="389" y="447" on="0"/>
        <pt x="287" y="481" on="0"/>
        <pt x="240" y="506" on="1"/>
        <pt x="193" y="530" on="0"/>
        <pt x="157" y="564" on="1"/>
        <pt x="79" y="637" on="0"/>
        <pt x="79" y="771" on="1"/>
        <pt x="79" y="838" on="0"/>
        <pt x="118" y="888" on="1"/>
        <pt x="188" y="978" on="0"/>
        <pt x="334" y="995" on="1"/>
        <pt x="214" y="1041" on="0"/>
        <pt x="115" y="1130" on="0"/>
        <pt x="79" y="1223" on="0"/>
        <pt x="79" y="1357" on="0"/>
        <pt x="113" y="1414" on="1"/>
        <pt x="147" y="1472" on="0"/>
        <pt x="203" y="1504" on="1"/>
        <pt x="316" y="1570" on="0"/>
        <pt x="456" y="1569" on="1"/>
        <pt x="533" y="1569" on="0"/>
        <pt x="766" y="1498" on="0"/>
        <pt x="818" y="1452" on="1"/>
        <pt x="760" y="1316" on="1"/>
        <pt x="620" y="1424" on="0"/>
        <pt x="466" y="1424" on="1"/>
        <pt x="235" y="1424" on="0"/>
        <pt x="235" y="1275" on="1"/>
        <pt x="236" y="1200" on="0"/>
        <pt x="334" y="1160" on="1"/>
        <pt x="439" y="1116" on="0"/>
        <pt x="610" y="1065" on="0"/>
        <pt x="667" y="1035" on="1"/>
        <pt x="724" y="1006" on="0"/>
        <pt x="768" y="970" on="1"/>
        <pt x="866" y="891" on="0"/>
        <pt x="867" y="746" on="1"/>
        <pt x="867" y="650" on="0"/>
        <pt x="718" y="529" on="0"/>
        <pt x="618" y="522" on="1"/>
        <pt x="740" y="480" on="0"/>
        <pt x="869" y="338" on="0"/>
        <pt x="869" y="135" on="0"/>
        <pt x="797" y="8" on="0"/>
        <pt x="674" y="-62" on="0"/>
        <pt x="533" y="-96" on="0"/>
        <pt x="373" y="-96" on="0"/>
        <pt x="146" y="-27" on="0"/>
      </contour>
      <contour>
        <pt x="707" y="751" on="1"/>
        <pt x="706" y="890" on="0"/>
        <pt x="534" y="904" on="1"/>
        <pt x="504" y="906" on="0"/>
        <pt x="468" y="906" on="1"/>
        <pt x="233" y="906" on="0"/>
        <pt x="233" y="600" on="0"/>
        <pt x="707" y="600" on="0"/>
      </contour>
    </TTGlyph>
    <TTGlyph name="semicolon" xMin="127" yMin="-253" xMax="408" yMax="864">
      <contour>
        <pt x="128" y="864" on="1"/>
        <pt x="408" y="864" on="1"/>
        <pt x="408" y="583" on="1"/>
        <pt x="128" y="583" on="1"/>
      </contour>
      <contour>
        <pt x="127" y="0" on="1"/>
        <pt x="127" y="293" on="1"/>
        <pt x="408" y="293" on="1"/>
        <pt x="408" y="44" on="1"/>
        <pt x="408" y="-70" on="0"/>
        <pt x="290" y="-221" on="0"/>
        <pt x="179" y="-253" on="1"/>
        <pt x="128" y="-159" on="1"/>
        <pt x="197" y="-135" on="0"/>
        <pt x="259" y="-67" on="0"/>
        <pt x="258" y="0" on="1"/>
      </contour>
    </TTGlyph>
    <TTGlyph name="seven" xMin="116" yMin="-176" xMax="1009" yMax="1229">
      <contour>
        <pt x="952" y="1229" on="1"/>
        <pt x="1009" y="1107" on="1"/>
        <pt x="437" y="-176" on="1"/>
        <pt x="269" y="-100" on="1"/>
        <pt x="794" y="1074" on="1"/>
        <pt x="116" y="1074" on="1"/>
        <pt x="116" y="1229" on="1"/>
      </contour>
    </TTGlyph>
    <TTGlyph name="six" xMin="116" yMin="-156" xMax="1121" yMax="1319">
      <contour>
        <pt x="945" y="477" on="0"/>
        <pt x="793" y="657" on="0"/>
        <pt x="655" y="657" on="1"/>
        <pt x="574" y="657" on="0"/>
        <pt x="349" y="578" on="0"/>
        <pt x="300" y="523" on="1"/>
        <pt x="294" y="483" on="0"/>
        <pt x="294" y="262" on="0"/>
        <pt x="338" y="162" on="1"/>
        <pt x="414" y="-14" on="0"/>
        <pt x="621" y="-14" on="1"/>
        <pt x="772" y="-14" on="0"/>
        <pt x="945" y="182" on="0"/>
      </contour>
      <contour>
        <pt x="116" y="425" on="1"/>
        <pt x="116" y="763" on="0"/>
        <pt x="501" y="1241" on="0"/>
        <pt x="831" y="1319" on="1"/>
        <pt x="874" y="1174" on="1"/>
        <pt x="662" y="1129" on="0"/>
        <pt x="352" y="853" on="0"/>
        <pt x="314" y="649" on="1"/>
        <pt x="434" y="793" on="0"/>
        <pt x="862" y="793" on="0"/>
        <pt x="1121" y="542" on="0"/>
        <pt x="1121" y="114" on="0"/>
        <pt x="844" y="-156" on="0"/>
        <pt x="621" y="-156" on="1"/>
        <pt x="362" y="-156" on="0"/>
        <pt x="236" y="12" on="1"/>
        <pt x="116" y="172" on="0"/>
      </contour>
    </TTGlyph>
    <TTGlyph name="slash" xMin="-33" yMin="-179" xMax="761" yMax="1731">
      <contour>
        <pt x="-33" y="-117" on="1"/>
        <pt x="592" y="1731" on="1"/>
        <pt x="761" y="1669" on="1"/>
        <pt x="137" y="-179" on="1"/>
      </contour>
    </TTGlyph>
    <TTGlyph name="sterling" xMin="61" yMin="0" xMax="948" yMax="1322">
      <contour>
        <pt x="116" y="126" on="1"/>
        <pt x="184" y="202" on="0"/>
        <pt x="258" y="482" on="0"/>
        <pt x="258" y="603" on="1"/>
        <pt x="61" y="603" on="1"/>
        <pt x="61" y="706" on="1"/>
        <pt x="233" y="706" on="1"/>
        <pt x="185" y="743" on="0"/>
        <pt x="118" y="893" on="0"/>
        <pt x="118" y="1058" on="0"/>
        <pt x="228" y="1228" on="0"/>
        <pt x="407" y="1322" on="0"/>
        <pt x="623" y="1322" on="0"/>
        <pt x="866" y="1271" on="0"/>
        <pt x="948" y="1219" on="1"/>
        <pt x="898" y="1088" on="1"/>
        <pt x="709" y="1180" on="0"/>
        <pt x="568" y="1180" on="1"/>
        <pt x="300" y="1180" on="0"/>
        <pt x="300" y="959" on="1"/>
        <pt x="300" y="829" on="0"/>
        <pt x="416" y="706" on="1"/>
        <pt x="844" y="706" on="1"/>
        <pt x="844" y="603" on="1"/>
        <pt x="416" y="603" on="1"/>
        <pt x="416" y="482" on="0"/>
        <pt x="356" y="213" on="0"/>
        <pt x="297" y="132" on="1"/>
        <pt x="913" y="132" on="1"/>
        <pt x="913" y="0" on="1"/>
        <pt x="116" y="0" on="1"/>
      </contour>
    </TTGlyph>
    <TTGlyph name="t" xMin="96" yMin="-14" xMax="815" yMax="1576">
      <contour>
        <pt x="815" y="40" on="1"/>
        <pt x="701" y="-14" on="0"/>
        <pt x="439" y="-14" on="0"/>
        <pt x="279" y="159" on="0"/>
        <pt x="279" y="300" on="1"/>
        <pt x="279" y="1065" on="1"/>
        <pt x="96" y="1065" on="1"/>
        <pt x="96" y="1169" on="1"/>
        <pt x="307" y="1169" on="1"/>
        <pt x="307" y="1530" on="1"/>
        <pt x="469" y="1576" on="1"/>
        <pt x="469" y="1169" on="1"/>
        <pt x="802" y="1169" on="1"/>
        <pt x="802" y="1065" on="1"/>
        <pt x="469" y="1065" on="1"/>
        <pt x="469" y="298" on="1"/>
        <pt x="469" y="224" on="0"/>
        <pt x="540" y="125" on="0"/>
        <pt x="688" y="125" on="0"/>
        <pt x="779" y="169" on="1"/>
      </contour>
    </TTGlyph>
    <TTGlyph name="thorn" xMin="129" yMin="-487" xMax="1143" yMax="1565">
      <contour>
        <pt x="1088" y="926" on="0"/>
        <pt x="1143" y="711" on="0"/>
        <pt x="1143" y="458" on="0"/>
        <pt x="1087" y="244" on="0"/>
        <pt x="976" y="76" on="0"/>
        <pt x="793" y="-20" on="0"/>
        <pt x="674" y="-20" on="1"/>
        <pt x="425" y="-20" on="0"/>
        <pt x="315" y="117" on="1"/>
        <pt x="315" y="-465" on="1"/>
        <pt x="129" y="-487" on="1"/>
        <pt x="129" y="1565" on="1"/>
        <pt x="313" y="1565" on="1"/>
        <pt x="313" y="1004" on="1"/>
        <pt x="377" y="1083" on="0"/>
        <pt x="563" y="1190" on="0"/>
        <pt x="794" y="1190" on="0"/>
        <pt x="978" y="1095" on="0"/>
      </contour>
      <contour>
        <pt x="930" y="319" on="0"/>
        <pt x="961" y="463" on="0"/>
        <pt x="961" y="609" on="0"/>
        <pt x="952" y="722" on="0"/>
        <pt x="929" y="841" on="0"/>
        <pt x="908" y="887" on="1"/>
        <pt x="886" y="933" on="0"/>
        <pt x="856" y="970" on="1"/>
        <pt x="793" y="1047" on="0"/>
        <pt x="674" y="1047" on="1"/>
        <pt x="495" y="1047" on="0"/>
        <pt x="338" y="890" on="1"/>
        <pt x="322" y="244" on="1"/>
        <pt x="381" y="194" on="0"/>
        <pt x="583" y="123" on="0"/>
        <pt x="756" y="123" on="0"/>
        <pt x="867" y="196" on="0"/>
      </contour>
    </TTGlyph>
    <TTGlyph name="three" xMin="55" yMin="-198" xMax="928" yMax="1206">
      <contour>
        <pt x="724" y="844" on="1"/>
        <pt x="724" y="908" on="0"/>
        <pt x="702" y="952" on="1"/>
        <pt x="679" y="996" on="0"/>
        <pt x="637" y="1020" on="1"/>
        <pt x="561" y="1062" on="0"/>
        <pt x="285" y="1063" on="0"/>
        <pt x="138" y="992" on="1"/>
        <pt x="88" y="1125" on="1"/>
        <pt x="269" y="1206" on="0"/>
        <pt x="441" y="1206" on="1"/>
        <pt x="617" y="1206" on="0"/>
        <pt x="746" y="1132" on="1"/>
        <pt x="812" y="1094" on="0"/>
        <pt x="889" y="958" on="0"/>
        <pt x="889" y="740" on="0"/>
        <pt x="725" y="546" on="0"/>
        <pt x="600" y="545" on="1"/>
        <pt x="753" y="513" on="0"/>
        <pt x="928" y="320" on="0"/>
        <pt x="928" y="166" on="1"/>
        <pt x="928" y="75" on="0"/>
        <pt x="886" y="3" on="1"/>
        <pt x="844" y="-70" on="0"/>
        <pt x="776" y="-112" on="1"/>
        <pt x="637" y="-198" on="0"/>
        <pt x="252" y="-198" on="0"/>
        <pt x="55" y="-102" on="1"/>
        <pt x="109" y="31" on="1"/>
        <pt x="185" y="-10" on="0"/>
        <pt x="379" y="-59" on="0"/>
        <pt x="595" y="-59" on="0"/>
        <pt x="748" y="59" on="0"/>
        <pt x="748" y="186" on="1"/>
        <pt x="748" y="434" on="0"/>
        <pt x="412" y="471" on="1"/>
        <pt x="412" y="614" on="1"/>
        <pt x="536" y="614" on="0"/>
        <pt x="624" y="661" on="1"/>
        <pt x="724" y="716" on="0"/>
      </contour>
    </TTGlyph>
    <TTGlyph name="threequarters" xMin="-11" yMin="-250" xMax="1785" yMax="1677">
      <contour>
        <pt x="1506" y="946" on="1"/>
        <pt x="1634" y="915" on="1"/>
        <pt x="1634" y="145" on="1"/>
        <pt x="1785" y="145" on="1"/>
        <pt x="1785" y="34" on="1"/>
        <pt x="1634" y="34" on="1"/>
        <pt x="1634" y="-227" on="1"/>
        <pt x="1489" y="-250" on="1"/>
        <pt x="1489" y="34" on="1"/>
        <pt x="964" y="34" on="1"/>
        <pt x="942" y="144" on="1"/>
      </contour>
      <contour>
        <pt x="521" y="1383" on="1"/>
        <pt x="521" y="1541" on="0"/>
        <pt x="297" y="1541" on="1"/>
        <pt x="177" y="1541" on="0"/>
        <pt x="63" y="1484" on="1"/>
        <pt x="16" y="1611" on="1"/>
        <pt x="150" y="1677" on="0"/>
        <pt x="302" y="1677" on="1"/>
        <pt x="446" y="1677" on="0"/>
        <pt x="554" y="1614" on="1"/>
        <pt x="609" y="1582" on="0"/>
        <pt x="675" y="1468" on="0"/>
        <pt x="675" y="1295" on="0"/>
        <pt x="530" y="1143" on="0"/>
        <pt x="430" y="1142" on="1"/>
        <pt x="554" y="1118" on="0"/>
        <pt x="706" y="959" on="0"/>
        <pt x="706" y="835" on="1"/>
        <pt x="706" y="761" on="0"/>
        <pt x="670" y="702" on="1"/>
        <pt x="636" y="644" on="0"/>
        <pt x="578" y="610" on="1"/>
        <pt x="462" y="540" on="0"/>
        <pt x="140" y="540" on="0"/>
        <pt x="-11" y="618" on="1"/>
        <pt x="40" y="745" on="1"/>
        <pt x="184" y="672" on="0"/>
        <pt x="408" y="672" on="0"/>
        <pt x="540" y="768" on="0"/>
        <pt x="540" y="853" on="1"/>
        <pt x="540" y="1042" on="0"/>
        <pt x="278" y="1072" on="1"/>
        <pt x="278" y="1207" on="1"/>
        <pt x="412" y="1208" on="0"/>
        <pt x="482" y="1282" on="1"/>
        <pt x="522" y="1324" on="0"/>
      </contour>
      <contour>
        <pt x="337" y="-30" on="1"/>
        <pt x="1367" y="1365" on="1"/>
        <pt x="1498" y="1272" on="1"/>
        <pt x="457" y="-123" on="1"/>
      </contour>
      <contour>
        <pt x="1101" y="144" on="1"/>
        <pt x="1489" y="144" on="1"/>
        <pt x="1489" y="703" on="1"/>
        <pt x="1392" y="541" on="0"/>
        <pt x="1197" y="274" on="0"/>
      </contour>
    </TTGlyph>
    <TTGlyph name="tilde" xMin="471" yMin="1035" xMax="1231" yMax="1299">
      <contour>
        <pt x="1231" y="1285" on="1"/>
        <pt x="1231" y="1176" on="0"/>
        <pt x="1134" y="1035" on="0"/>
        <pt x="1039" y="1035" on="1"/>
        <pt x="946" y="1034" on="0"/>
        <pt x="852" y="1094" on="1"/>
        <pt x="733" y="1149" on="0"/>
        <pt x="686" y="1154" on="1"/>
        <pt x="650" y="1154" on="0"/>
        <pt x="627" y="1096" on="0"/>
        <pt x="627" y="1039" on="1"/>
        <pt x="471" y="1039" on="1"/>
        <pt x="471" y="1299" on="0"/>
        <pt x="672" y="1299" on="1"/>
        <pt x="766" y="1299" on="0"/>
        <pt x="936" y="1174" on="0"/>
        <pt x="1016" y="1174" on="1"/>
        <pt x="1075" y="1174" on="0"/>
        <pt x="1075" y="1285" on="1"/>
      </contour>
    </TTGlyph>
    <TTGlyph name="trademark" xMin="80" yMin="674" xMax="1689" yMax="1526">
      <contour>
        <pt x="1243" y="819" on="1"/>
        <pt x="1442" y="1526" on="1"/>
        <pt x="1689" y="1526" on="1"/>
        <pt x="1689" y="674" on="1"/>
        <pt x="1552" y="674" on="1"/>
        <pt x="1552" y="1391" on="1"/>
        <pt x="1339" y="674" on="1"/>
        <pt x="1147" y="674" on="1"/>
        <pt x="935" y="1391" on="1"/>
        <pt x="935" y="674" on="1"/>
        <pt x="797" y="674" on="1"/>
        <pt x="797" y="1526" on="1"/>
        <pt x="1044" y="1526" on="1"/>
      </contour>
      <contour>
        <pt x="678" y="1415" on="1"/>
        <pt x="452" y="1415" on="1"/>
        <pt x="452" y="674" on="1"/>
        <pt x="307" y="674" on="1"/>
        <pt x="307" y="1415" on="1"/>
        <pt x="80" y="1415" on="1"/>
        <pt x="80" y="1526" on="1"/>
        <pt x="678" y="1526" on="1"/>
      </contour>
    </TTGlyph>
    <TTGlyph name="two" xMin="118" yMin="0" xMax="933" yMax="1198">
      <contour>
        <pt x="337" y="152" on="1"/>
        <pt x="933" y="152" on="1"/>
        <pt x="933" y="0" on="1"/>
        <pt x="118" y="0" on="1"/>
        <pt x="118" y="146" on="1"/>
        <pt x="526" y="480" on="1"/>
        <pt x="677" y="606" on="0"/>
        <pt x="720" y="676" on="1"/>
        <pt x="771" y="759" on="0"/>
        <pt x="771" y="904" on="0"/>
        <pt x="725" y="990" on="0"/>
        <pt x="685" y="1014" on="1"/>
        <pt x="608" y="1060" on="0"/>
        <pt x="368" y="1059" on="0"/>
        <pt x="230" y="992" on="1"/>
        <pt x="177" y="1108" on="1"/>
        <pt x="306" y="1198" on="0"/>
        <pt x="517" y="1198" on="1"/>
        <pt x="698" y="1198" on="0"/>
        <pt x="812" y="1117" on="1"/>
        <pt x="932" y="1031" on="0"/>
        <pt x="933" y="845" on="1"/>
        <pt x="933" y="654" on="0"/>
        <pt x="707" y="446" on="1"/>
        <pt x="635" y="380" on="0"/>
        <pt x="525" y="295" on="0"/>
        <pt x="370" y="178" on="0"/>
      </contour>
    </TTGlyph>
    <TTGlyph name="u" xMin="121" yMin="-20" xMax="1087" yMax="1169">
      <contour>
        <pt x="543" y="117" on="1"/>
        <pt x="737" y="117" on="0"/>
        <pt x="897" y="274" on="1"/>
        <pt x="897" y="1169" on="1"/>
        <pt x="1087" y="1169" on="1"/>
        <pt x="1087" y="0" on="1"/>
        <pt x="946" y="0" on="1"/>
        <pt x="919" y="176" on="1"/>
        <pt x="745" y="-20" on="0"/>
        <pt x="320" y="-20" on="0"/>
        <pt x="121" y="223" on="0"/>
        <pt x="121" y="442" on="1"/>
        <pt x="121" y="1169" on="1"/>
        <pt x="311" y="1169" on="1"/>
        <pt x="311" y="442" on="1"/>
        <pt x="312" y="208" on="0"/>
        <pt x="426" y="144" on="1"/>
        <pt x="474" y="118" on="0"/>
      </contour>
    </TTGlyph>
    <TTGlyph name="uacute" xMin="121" yMin="-20" xMax="1087" yMax="1929">
      <component glyphName=".ttfautohint" x="121" y="0" flags="0x0"/>
      <component glyphName="acutecomb" x="86" y="-347" flags="0x1004"/>
      <component glyphName="u" x="0" y="0" flags="0x1204"/>
    </TTGlyph>
    <TTGlyph name="ucircumflex" xMin="121" yMin="-20" xMax="1087" yMax="1871">
      <component glyphName=".ttfautohint" x="121" y="0" flags="0x0"/>
      <component glyphName="circumflex" x="-110" y="860" flags="0x1004"/>
      <component glyphName="u" x="0" y="0" flags="0x1204"/>
    </TTGlyph>
    <TTGlyph name="udieresis" xMin="121" yMin="-20" xMax="1087" yMax="1522">
      <component glyphName=".ttfautohint" x="121" y="0" flags="0x0"/>
      <component glyphName="dieresis" x="188" y="911" flags="0x1004"/>
      <component glyphName="u" x="0" y="0" flags="0x1204"/>
    </TTGlyph>
    <TTGlyph name="ugrave" xMin="121" yMin="-20" xMax="1087" yMax="1936">
      <component glyphName=".ttfautohint" x="121" y="0" flags="0x0"/>
      <component glyphName="grave" x="214" y="962" flags="0x1004"/>
      <component glyphName="u" x="0" y="0" flags="0x1204"/>
    </TTGlyph>
    <TTGlyph name="umacron" xMin="121" yMin="-20" xMax="1087" yMax="1409">
      <component glyphName=".ttfautohint" x="121" y="0" flags="0x0"/>
      <component glyphName="glyph113" x="175" y="1194" flags="0x1004"/>
      <component glyphName="u" x="0" y="0" flags="0x1204"/>
    </TTGlyph>
    <TTGlyph name="underscore" xMin="123" yMin="-111" xMax="1063" yMax="33">
      <contour>
        <pt x="1063" y="-111" on="1"/>
        <pt x="123" y="-111" on="1"/>
        <pt x="123" y="33" on="1"/>
        <pt x="1063" y="33" on="1"/>
      </contour>
    </TTGlyph>
    <TTGlyph name="uni00AD" xMin="68" yMin="508" xMax="536" yMax="639">
      <contour>
        <pt x="536" y="508" on="1"/>
        <pt x="68" y="508" on="1"/>
        <pt x="68" y="639" on="1"/>
        <pt x="536" y="639" on="1"/>
      </contour>
    </TTGlyph>
    <TTGlyph name="uni00B2" xMin="51" yMin="668" xMax="717" yMax="1638">
      <contour>
        <pt x="283" y="820" on="1"/>
        <pt x="689" y="820" on="1"/>
        <pt x="689" y="668" on="1"/>
        <pt x="51" y="668" on="1"/>
        <pt x="51" y="805" on="1"/>
        <pt x="68" y="820" on="0"/>
        <pt x="175" y="907" on="0"/>
        <pt x="274" y="989" on="0"/>
        <pt x="396" y="1103" on="0"/>
        <pt x="440" y="1153" on="1"/>
        <pt x="545" y="1272" on="0"/>
        <pt x="545" y="1427" on="0"/>
        <pt x="434" y="1495" on="0"/>
        <pt x="259" y="1495" on="0"/>
        <pt x="68" y="1443" on="1"/>
        <pt x="68" y="1588" on="1"/>
        <pt x="199" y="1638" on="0"/>
        <pt x="374" y="1638" on="1"/>
        <pt x="512" y="1638" on="0"/>
        <pt x="611" y="1570" on="1"/>
        <pt x="717" y="1498" on="0"/>
        <pt x="717" y="1357" on="1"/>
        <pt x="718" y="1210" on="0"/>
        <pt x="556" y="1050" on="1"/>
        <pt x="502" y="997" on="0"/>
        <pt x="307" y="840" on="0"/>
      </contour>
    </TTGlyph>
    <TTGlyph name="uni00B3" xMin="27" yMin="540" xMax="744" yMax="1677">
      <contour>
        <pt x="559" y="1383" on="1"/>
        <pt x="559" y="1541" on="0"/>
        <pt x="335" y="1541" on="1"/>
        <pt x="215" y="1541" on="0"/>
        <pt x="101" y="1484" on="1"/>
        <pt x="54" y="1611" on="1"/>
        <pt x="188" y="1677" on="0"/>
        <pt x="340" y="1677" on="1"/>
        <pt x="484" y="1677" on="0"/>
        <pt x="592" y="1614" on="1"/>
        <pt x="647" y="1582" on="0"/>
        <pt x="713" y="1468" on="0"/>
        <pt x="713" y="1295" on="0"/>
        <pt x="568" y="1143" on="0"/>
        <pt x="468" y="1142" on="1"/>
        <pt x="592" y="1118" on="0"/>
        <pt x="744" y="959" on="0"/>
        <pt x="744" y="835" on="1"/>
        <pt x="744" y="761" on="0"/>
        <pt x="708" y="702" on="1"/>
        <pt x="674" y="644" on="0"/>
        <pt x="616" y="610" on="1"/>
        <pt x="500" y="540" on="0"/>
        <pt x="355" y="540" on="1"/>
        <pt x="273" y="540" on="0"/>
        <pt x="85" y="580" on="0"/>
        <pt x="27" y="618" on="1"/>
        <pt x="78" y="745" on="1"/>
        <pt x="222" y="672" on="0"/>
        <pt x="446" y="672" on="0"/>
        <pt x="578" y="768" on="0"/>
        <pt x="578" y="853" on="1"/>
        <pt x="578" y="1042" on="0"/>
        <pt x="316" y="1072" on="1"/>
        <pt x="316" y="1207" on="1"/>
        <pt x="450" y="1208" on="0"/>
        <pt x="520" y="1282" on="1"/>
        <pt x="560" y="1324" on="0"/>
      </contour>
    </TTGlyph>
    <TTGlyph name="uni00B5" xMin="185" yMin="-291" xMax="1166" yMax="1169">
      <contour>
        <pt x="611" y="123" on="1"/>
        <pt x="717" y="123" on="0"/>
        <pt x="905" y="210" on="0"/>
        <pt x="958" y="274" on="1"/>
        <pt x="958" y="1169" on="1"/>
        <pt x="1166" y="1169" on="1"/>
        <pt x="1166" y="16" on="1"/>
        <pt x="1020" y="16" on="1"/>
        <pt x="996" y="170" on="1"/>
        <pt x="825" y="-20" on="0"/>
        <pt x="599" y="-20" on="1"/>
        <pt x="462" y="-20" on="0"/>
        <pt x="359" y="113" on="1"/>
        <pt x="359" y="-291" on="1"/>
        <pt x="185" y="-291" on="1"/>
        <pt x="185" y="1169" on="1"/>
        <pt x="359" y="1169" on="1"/>
        <pt x="359" y="442" on="1"/>
        <pt x="359" y="123" on="0"/>
      </contour>
    </TTGlyph>
    <TTGlyph name="uni00B9" xMin="-29" yMin="478" xMax="348" yMax="1440">
      <contour>
        <pt x="179" y="478" on="1"/>
        <pt x="179" y="1304" on="1"/>
        <pt x="8" y="1232" on="1"/>
        <pt x="-29" y="1345" on="1"/>
        <pt x="208" y="1440" on="1"/>
        <pt x="348" y="1414" on="1"/>
        <pt x="348" y="478" on="1"/>
      </contour>
    </TTGlyph>
    <TTGlyph name="uni0306" xMin="123" yMin="1399" xMax="643" yMax="1638">
      <contour>
        <pt x="385" y="1509" on="1"/>
        <pt x="450" y="1509" on="0"/>
        <pt x="526" y="1577" on="0"/>
        <pt x="526" y="1638" on="1"/>
        <pt x="643" y="1638" on="1"/>
        <pt x="643" y="1399" on="0"/>
        <pt x="385" y="1399" on="1"/>
        <pt x="259" y="1399" on="0"/>
        <pt x="123" y="1519" on="0"/>
        <pt x="123" y="1638" on="1"/>
        <pt x="240" y="1638" on="1"/>
        <pt x="240" y="1577" on="0"/>
        <pt x="320" y="1509" on="0"/>
      </contour>
    </TTGlyph>
    <TTGlyph name="uni0E81" xMin="80" yMin="0" xMax="1386" yMax="1192">
      <contour>
        <pt x="292" y="396" on="1"/>
        <pt x="411" y="380" on="1"/>
        <pt x="411" y="827" on="1"/>
        <pt x="356" y="808" on="0"/>
        <pt x="311" y="808" on="1"/>
        <pt x="204" y="808" on="0"/>
        <pt x="80" y="902" on="0"/>
        <pt x="80" y="1094" on="0"/>
        <pt x="206" y="1192" on="0"/>
        <pt x="307" y="1192" on="1"/>
        <pt x="500" y="1192" on="0"/>
        <pt x="559" y="1028" on="1"/>
        <pt x="567" y="1033" on="0"/>
        <pt x="643" y="1085" on="0"/>
        <pt x="670" y="1101" on="0"/>
        <pt x="741" y="1143" on="0"/>
        <pt x="786" y="1159" on="0"/>
        <pt x="820" y="1171" on="1"/>
        <pt x="880" y="1192" on="0"/>
        <pt x="1080" y="1192" on="0"/>
        <pt x="1162" y="1163" on="1"/>
        <pt x="1244" y="1134" on="0"/>
        <pt x="1294" y="1072" on="1"/>
        <pt x="1386" y="958" on="0"/>
        <pt x="1386" y="711" on="1"/>
        <pt x="1386" y="0" on="1"/>
        <pt x="1215" y="0" on="1"/>
        <pt x="1215" y="768" on="1"/>
        <pt x="1216" y="934" on="0"/>
        <pt x="1166" y="1007" on="1"/>
        <pt x="1112" y="1086" on="0"/>
        <pt x="953" y="1086" on="1"/>
        <pt x="805" y="1086" on="0"/>
        <pt x="644" y="962" on="1"/>
        <pt x="629" y="950" on="0"/>
        <pt x="582" y="916" on="1"/>
        <pt x="582" y="361" on="1"/>
        <pt x="582" y="0" on="0"/>
        <pt x="314" y="0" on="1"/>
        <pt x="81" y="0" on="0"/>
        <pt x="81" y="197" on="1"/>
        <pt x="81" y="286" on="0"/>
        <pt x="200" y="394" on="0"/>
      </contour>
      <contour>
        <pt x="411" y="936" on="1"/>
        <pt x="411" y="1090" on="0"/>
        <pt x="315" y="1090" on="1"/>
        <pt x="268" y="1090" on="0"/>
        <pt x="212" y="1047" on="0"/>
        <pt x="212" y="1005" on="1"/>
        <pt x="212" y="908" on="0"/>
        <pt x="307" y="908" on="1"/>
        <pt x="353" y="908" on="0"/>
      </contour>
      <contour>
        <pt x="214" y="197" on="1"/>
        <pt x="214" y="153" on="0"/>
        <pt x="264" y="102" on="0"/>
        <pt x="334" y="102" on="0"/>
        <pt x="372" y="121" on="0"/>
        <pt x="394" y="150" on="0"/>
        <pt x="400" y="174" on="1"/>
        <pt x="410" y="212" on="0"/>
        <pt x="411" y="273" on="1"/>
        <pt x="411" y="306" on="1"/>
        <pt x="332" y="306" on="1"/>
        <pt x="214" y="306" on="0"/>
      </contour>
    </TTGlyph>
    <TTGlyph name="uni0E82" xMin="94" yMin="0" xMax="1211" yMax="1190">
      <contour>
        <pt x="263" y="227" on="1"/>
        <pt x="263" y="133" on="0"/>
        <pt x="358" y="133" on="1"/>
        <pt x="403" y="133" on="0"/>
        <pt x="481" y="166" on="0"/>
        <pt x="559" y="204" on="0"/>
        <pt x="572" y="210" on="1"/>
        <pt x="820" y="323" on="1"/>
        <pt x="918" y="368" on="0"/>
        <pt x="1020" y="373" on="1"/>
        <pt x="1210" y="369" on="0"/>
        <pt x="1210" y="152" on="1"/>
        <pt x="1210" y="0" on="1"/>
        <pt x="1042" y="0" on="1"/>
        <pt x="1042" y="151" on="1"/>
        <pt x="1042" y="190" on="0"/>
        <pt x="1003" y="238" on="0"/>
        <pt x="915" y="238" on="0"/>
        <pt x="855" y="207" on="1"/>
        <pt x="519" y="53" on="1"/>
        <pt x="402" y="0" on="0"/>
        <pt x="225" y="0" on="0"/>
        <pt x="94" y="120" on="0"/>
        <pt x="94" y="218" on="1"/>
        <pt x="94" y="305" on="0"/>
        <pt x="138" y="355" on="1"/>
        <pt x="186" y="410" on="0"/>
        <pt x="233" y="432" on="1"/>
        <pt x="301" y="465" on="0"/>
        <pt x="383" y="493" on="0"/>
        <pt x="388" y="495" on="1"/>
        <pt x="629" y="583" on="1"/>
        <pt x="656" y="593" on="0"/>
        <pt x="766" y="627" on="0"/>
        <pt x="842" y="651" on="0"/>
        <pt x="938" y="696" on="0"/>
        <pt x="968" y="721" on="1"/>
        <pt x="1040" y="782" on="0"/>
        <pt x="1039" y="872" on="1"/>
        <pt x="1039" y="966" on="0"/>
        <pt x="980" y="1013" on="1"/>
        <pt x="920" y="1061" on="0"/>
        <pt x="853" y="1071" on="1"/>
        <pt x="749" y="1088" on="0"/>
        <pt x="650" y="1088" on="1"/>
        <pt x="417" y="1088" on="0"/>
        <pt x="313" y="1009" on="1"/>
        <pt x="337" y="1012" on="0"/>
        <pt x="363" y="1012" on="1"/>
        <pt x="464" y="1012" on="0"/>
        <pt x="581" y="906" on="0"/>
        <pt x="581" y="712" on="0"/>
        <pt x="455" y="617" on="0"/>
        <pt x="350" y="617" on="1"/>
        <pt x="109" y="617" on="0"/>
        <pt x="109" y="861" on="1"/>
        <pt x="110" y="1134" on="0"/>
        <pt x="492" y="1181" on="1"/>
        <pt x="566" y="1190" on="0"/>
        <pt x="740" y="1190" on="0"/>
        <pt x="887" y="1176" on="0"/>
        <pt x="1041" y="1134" on="0"/>
        <pt x="1145" y="1066" on="0"/>
        <pt x="1211" y="947" on="0"/>
        <pt x="1211" y="821" on="0"/>
        <pt x="1184" y="741" on="0"/>
        <pt x="1130" y="680" on="0"/>
        <pt x="1073" y="634" on="0"/>
        <pt x="1030" y="613" on="1"/>
        <pt x="969" y="583" on="0"/>
        <pt x="864" y="545" on="0"/>
        <pt x="857" y="542" on="1"/>
        <pt x="382" y="362" on="1"/>
        <pt x="291" y="325" on="0"/>
        <pt x="272" y="280" on="1"/>
        <pt x="263" y="258" on="0"/>
      </contour>
      <contour>
        <pt x="356" y="710" on="1"/>
        <pt x="450" y="710" on="0"/>
        <pt x="450" y="820" on="1"/>
        <pt x="450" y="877" on="0"/>
        <pt x="374" y="919" on="0"/>
        <pt x="304" y="919" on="1"/>
        <pt x="245" y="919" on="1"/>
        <pt x="235" y="884" on="0"/>
        <pt x="235" y="856" on="1"/>
        <pt x="235" y="710" on="0"/>
      </contour>
    </TTGlyph>
    <TTGlyph name="uni0E84" xMin="107" yMin="0" xMax="1186" yMax="1192">
      <contour>
        <pt x="636" y="1085" on="1"/>
        <pt x="272" y="1085" on="0"/>
        <pt x="272" y="894" on="1"/>
        <pt x="272" y="810" on="0"/>
        <pt x="380" y="711" on="0"/>
        <pt x="466" y="711" on="1"/>
        <pt x="601" y="711" on="1"/>
        <pt x="601" y="590" on="1"/>
        <pt x="466" y="590" on="1"/>
        <pt x="376" y="590" on="0"/>
        <pt x="280" y="483" on="0"/>
        <pt x="273" y="389" on="1"/>
        <pt x="273" y="380" on="1"/>
        <pt x="339" y="391" on="1"/>
        <pt x="364" y="395" on="0"/>
        <pt x="393" y="395" on="1"/>
        <pt x="489" y="395" on="0"/>
        <pt x="602" y="297" on="0"/>
        <pt x="602" y="102" on="0"/>
        <pt x="479" y="0" on="0"/>
        <pt x="241" y="0" on="0"/>
        <pt x="107" y="186" on="0"/>
        <pt x="107" y="468" on="0"/>
        <pt x="255" y="632" on="0"/>
        <pt x="387" y="650" on="1"/>
        <pt x="268" y="652" on="0"/>
        <pt x="107" y="779" on="0"/>
        <pt x="107" y="890" on="1"/>
        <pt x="107" y="1192" on="0"/>
        <pt x="636" y="1192" on="1"/>
        <pt x="917" y="1192" on="0"/>
        <pt x="1048" y="1090" on="1"/>
        <pt x="1186" y="982" on="0"/>
        <pt x="1186" y="711" on="1"/>
        <pt x="1186" y="0" on="1"/>
        <pt x="1014" y="0" on="1"/>
        <pt x="1014" y="706" on="1"/>
        <pt x="1014" y="915" on="0"/>
        <pt x="845" y="1085" on="0"/>
      </contour>
      <contour>
        <pt x="273" y="284" on="1"/>
        <pt x="276" y="103" on="0"/>
        <pt x="469" y="103" on="0"/>
        <pt x="469" y="207" on="1"/>
        <pt x="469" y="262" on="0"/>
        <pt x="402" y="306" on="0"/>
        <pt x="339" y="306" on="1"/>
        <pt x="273" y="306" on="1"/>
      </contour>
    </TTGlyph>
    <TTGlyph name="uni0E87" xMin="44" yMin="-462" xMax="993" yMax="1192">
      <contour>
        <pt x="993" y="144" on="1"/>
        <pt x="994" y="-315" on="0"/>
        <pt x="730" y="-422" on="1"/>
        <pt x="632" y="-462" on="0"/>
        <pt x="490" y="-462" on="1"/>
        <pt x="286" y="-462" on="0"/>
        <pt x="66" y="-305" on="0"/>
        <pt x="66" y="-129" on="1"/>
        <pt x="196" y="-129" on="1"/>
        <pt x="200" y="-354" on="0"/>
        <pt x="486" y="-354" on="1"/>
        <pt x="638" y="-354" on="0"/>
        <pt x="708" y="-292" on="1"/>
        <pt x="783" y="-225" on="0"/>
        <pt x="804" y="-119" on="1"/>
        <pt x="825" y="-14" on="0"/>
        <pt x="825" y="141" on="1"/>
        <pt x="825" y="646" on="1"/>
        <pt x="825" y="859" on="0"/>
        <pt x="760" y="969" on="1"/>
        <pt x="689" y="1089" on="0"/>
        <pt x="490" y="1089" on="1"/>
        <pt x="457" y="1089" on="1"/>
        <pt x="486" y="1002" on="0"/>
        <pt x="486" y="971" on="1"/>
        <pt x="482" y="795" on="0"/>
        <pt x="269" y="795" on="1"/>
        <pt x="173" y="795" on="0"/>
        <pt x="44" y="892" on="0"/>
        <pt x="44" y="980" on="1"/>
        <pt x="44" y="1192" on="0"/>
        <pt x="442" y="1192" on="1"/>
        <pt x="712" y="1192" on="0"/>
        <pt x="993" y="917" on="0"/>
        <pt x="993" y="651" on="1"/>
      </contour>
      <contour>
        <pt x="178" y="983" on="1"/>
        <pt x="178" y="887" on="0"/>
        <pt x="278" y="887" on="1"/>
        <pt x="367" y="887" on="0"/>
        <pt x="367" y="998" on="1"/>
        <pt x="367" y="1089" on="1"/>
        <pt x="230" y="1085" on="0"/>
        <pt x="194" y="1037" on="1"/>
        <pt x="178" y="1015" on="0"/>
      </contour>
    </TTGlyph>
    <TTGlyph name="uni0E88" xMin="34" yMin="-70" xMax="1257" yMax="1192">
      <contour>
        <pt x="614" y="877" on="1"/>
        <pt x="864" y="877" on="0"/>
        <pt x="864" y="598" on="1"/>
        <pt x="864" y="423" on="0"/>
        <pt x="981" y="132" on="0"/>
        <pt x="1087" y="69" on="1"/>
        <pt x="1087" y="681" on="1"/>
        <pt x="1087" y="907" on="0"/>
        <pt x="908" y="1085" on="0"/>
        <pt x="682" y="1085" on="1"/>
        <pt x="194" y="1085" on="0"/>
        <pt x="187" y="754" on="1"/>
        <pt x="187" y="732" on="1"/>
        <pt x="35" y="732" on="1"/>
        <pt x="34" y="747" on="0"/>
        <pt x="34" y="765" on="1"/>
        <pt x="34" y="780" on="1"/>
        <pt x="34" y="1034" on="0"/>
        <pt x="310" y="1136" on="1"/>
        <pt x="464" y="1192" on="0"/>
        <pt x="820" y="1192" on="0"/>
        <pt x="1034" y="1142" on="0"/>
        <pt x="1110" y="1082" on="1"/>
        <pt x="1257" y="967" on="0"/>
        <pt x="1257" y="676" on="1"/>
        <pt x="1257" y="2" on="1"/>
        <pt x="1100" y="-70" on="1"/>
        <pt x="1054" y="-50" on="1"/>
        <pt x="913" y="22" on="0"/>
        <pt x="735" y="299" on="0"/>
        <pt x="712" y="486" on="1"/>
        <pt x="666" y="478" on="1"/>
        <pt x="621" y="473" on="0"/>
        <pt x="608" y="473" on="1"/>
        <pt x="372" y="473" on="0"/>
        <pt x="372" y="670" on="1"/>
        <pt x="372" y="770" on="0"/>
        <pt x="506" y="877" on="0"/>
      </contour>
      <contour>
        <pt x="606" y="782" on="1"/>
        <pt x="505" y="782" on="0"/>
        <pt x="505" y="672" on="1"/>
        <pt x="505" y="611" on="0"/>
        <pt x="576" y="563" on="0"/>
        <pt x="649" y="563" on="1"/>
        <pt x="704" y="563" on="1"/>
        <pt x="703" y="567" on="0"/>
        <pt x="703" y="581" on="1"/>
        <pt x="703" y="610" on="1"/>
        <pt x="703" y="695" on="0"/>
        <pt x="663" y="782" on="0"/>
      </contour>
    </TTGlyph>
    <TTGlyph name="uni0E8A" xMin="94" yMin="-352" xMax="1244" yMax="1192">
      <contour>
        <pt x="250" y="230" on="1"/>
        <pt x="250" y="140" on="0"/>
        <pt x="340" y="132" on="1"/>
        <pt x="452" y="136" on="0"/>
        <pt x="598" y="216" on="1"/>
        <pt x="770" y="311" on="0"/>
        <pt x="916" y="359" on="0"/>
        <pt x="1003" y="359" on="0"/>
        <pt x="1046" y="354" on="0"/>
        <pt x="1080" y="338" on="0"/>
        <pt x="1107" y="325" on="0"/>
        <pt x="1129" y="295" on="0"/>
        <pt x="1144" y="276" on="0"/>
        <pt x="1158" y="232" on="0"/>
        <pt x="1165" y="208" on="0"/>
        <pt x="1170" y="180" on="1"/>
        <pt x="1178" y="137" on="0"/>
        <pt x="1183" y="93" on="1"/>
        <pt x="1244" y="-352" on="1"/>
        <pt x="1099" y="-352" on="1"/>
        <pt x="1042" y="93" on="1"/>
        <pt x="1041" y="102" on="0"/>
        <pt x="1037" y="141" on="0"/>
        <pt x="1034" y="161" on="0"/>
        <pt x="1028" y="194" on="0"/>
        <pt x="1018" y="211" on="0"/>
        <pt x="1011" y="221" on="1"/>
        <pt x="998" y="239" on="0"/>
        <pt x="908" y="239" on="0"/>
        <pt x="774" y="190" on="0"/>
        <pt x="653" y="120" on="0"/>
        <pt x="591" y="84" on="1"/>
        <pt x="443" y="0" on="0"/>
        <pt x="225" y="0" on="0"/>
        <pt x="94" y="121" on="0"/>
        <pt x="94" y="220" on="1"/>
        <pt x="94" y="358" on="0"/>
        <pt x="239" y="433" on="1"/>
        <pt x="304" y="467" on="0"/>
        <pt x="427" y="510" on="0"/>
        <pt x="438" y="514" on="1"/>
        <pt x="636" y="586" on="1"/>
        <pt x="660" y="595" on="0"/>
        <pt x="774" y="631" on="0"/>
        <pt x="852" y="658" on="0"/>
        <pt x="956" y="705" on="0"/>
        <pt x="988" y="729" on="1"/>
        <pt x="1066" y="788" on="0"/>
        <pt x="1065" y="925" on="0"/>
        <pt x="996" y="1016" on="0"/>
        <pt x="936" y="1040" on="1"/>
        <pt x="821" y="1088" on="0"/>
        <pt x="661" y="1088" on="1"/>
        <pt x="420" y="1088" on="0"/>
        <pt x="312" y="1008" on="1"/>
        <pt x="367" y="1013" on="0"/>
        <pt x="370" y="1013" on="1"/>
        <pt x="470" y="1011" on="0"/>
        <pt x="584" y="909" on="0"/>
        <pt x="584" y="715" on="0"/>
        <pt x="449" y="605" on="0"/>
        <pt x="343" y="605" on="1"/>
        <pt x="106" y="605" on="0"/>
        <pt x="106" y="861" on="1"/>
        <pt x="106" y="1066" on="0"/>
        <pt x="342" y="1148" on="1"/>
        <pt x="470" y="1192" on="0"/>
        <pt x="754" y="1192" on="0"/>
        <pt x="942" y="1162" on="0"/>
        <pt x="1113" y="1092" on="0"/>
        <pt x="1211" y="958" on="0"/>
        <pt x="1211" y="809" on="0"/>
        <pt x="1176" y="722" on="0"/>
        <pt x="1123" y="665" on="0"/>
        <pt x="1082" y="640" on="1"/>
        <pt x="1023" y="604" on="0"/>
        <pt x="883" y="553" on="1"/>
        <pt x="569" y="434" on="1"/>
        <pt x="501" y="408" on="0"/>
        <pt x="375" y="372" on="0"/>
        <pt x="342" y="358" on="1"/>
        <pt x="310" y="344" on="0"/>
        <pt x="292" y="328" on="1"/>
        <pt x="250" y="292" on="0"/>
      </contour>
      <contour>
        <pt x="235" y="781" on="0"/>
        <pt x="287" y="707" on="0"/>
        <pt x="407" y="707" on="0"/>
        <pt x="448" y="762" on="0"/>
        <pt x="450" y="820" on="1"/>
        <pt x="450" y="919" on="0"/>
        <pt x="309" y="919" on="1"/>
        <pt x="245" y="919" on="1"/>
        <pt x="235" y="884" on="0"/>
      </contour>
    </TTGlyph>
</ttFont>
